<svg width="36" height="31" viewBox="0 0 36 31" fill="none" xmlns="http://www.w3.org/2000/svg">
<g clip-path="url(#clip0_273_8)">
<path d="M17.947 1.00371C17.8004 1.00056 17.6523 0.999778 17.5049 1.00056C17.3348 0.98799 17.0478 0.99192 16.8769 0.997421C16.6684 1.00371 16.4575 1.01864 16.2497 1.0375C15.8342 1.07444 15.4164 1.13416 15.0064 1.21118C14.1856 1.36521 13.3734 1.59311 12.5925 1.88703C11.0183 2.47879 9.5727 3.33225 8.28229 4.41047C8.0424 3.56959 6.60617 -0.782585 4.17666 1.65284C1.66405 4.17157 6.60774 5.33545 7.14868 5.45412C4.90261 7.7363 3.38642 10.604 2.37354 13.6115C2.12894 14.3298 2.04505 15.0937 2.12502 15.8481C2.13129 15.9125 2.13991 15.977 2.14854 16.0406C2.21753 16.5255 2.34374 17.0033 2.52484 17.4591C2.70594 17.9157 2.94191 18.3519 3.22179 18.7543C3.5001 19.1558 3.82387 19.5252 4.17823 19.8623C4.375 20.0486 4.5804 20.2246 4.79442 20.3912C5.17308 20.6859 5.57604 20.9484 5.99311 21.185C6.41332 21.4223 6.8492 21.6321 7.29449 21.8192C7.73743 22.0054 8.19135 22.1689 8.64997 22.3127C9.32654 22.5257 10.0156 22.697 10.711 22.8377C11.1602 22.9288 11.611 23.0066 12.0634 23.0734C12.522 23.141 12.9814 23.1976 13.4424 23.244C14.3659 23.3383 15.2917 23.3933 16.22 23.4208C16.7954 23.4381 17.3716 23.4428 17.947 23.4389C18.5225 23.4428 19.0987 23.4373 19.6741 23.4208C20.6015 23.3941 21.5282 23.3383 22.4517 23.244C22.9119 23.1976 23.3721 23.1402 23.8307 23.0734C24.2831 23.0066 24.7338 22.928 25.183 22.8377C25.8784 22.697 26.5675 22.5257 27.2441 22.3127C27.7027 22.1681 28.1558 22.0054 28.5996 21.8192C29.0449 21.6321 29.48 21.4223 29.901 21.185C30.3188 20.9484 30.721 20.6859 31.0996 20.3912C31.3137 20.2254 31.5198 20.0486 31.7158 19.8623C32.0702 19.526 32.394 19.1558 32.6723 18.7543C32.9529 18.3511 33.1881 17.9157 33.3692 17.4591C33.5503 17.0033 33.6758 16.5263 33.7455 16.0406C33.7549 15.9762 33.7628 15.9125 33.769 15.8481C33.8498 15.0937 33.7643 14.3298 33.5213 13.6115C32.5092 10.604 30.993 7.7363 28.7462 5.4549C29.2879 5.33545 34.2316 4.17235 31.7182 1.65363C29.2887 -0.781799 27.8517 3.56959 27.6126 4.41126C26.3229 3.33304 24.8757 2.47958 23.3023 1.88782C22.5199 1.5939 21.7093 1.366 20.8885 1.21196C20.4785 1.13495 20.0606 1.07601 19.6451 1.03829C19.4374 1.01943 19.2265 1.00607 19.0179 0.998207C18.8478 0.992705 18.5609 0.988776 18.39 1.00135C18.2426 1.00135 18.0944 1.00135 17.9478 1.00449H17.9462L17.947 1.00371Z" fill="url(#paint0_linear_273_8)"/>
</g>
<ellipse cx="17.769" cy="29.4378" rx="15.7852" ry="1.05234" fill="#5128AA"/>
<defs>
<linearGradient id="paint0_linear_273_8" x1="17.9478" y1="23.4396" x2="17.9478" y2="0.921191" gradientUnits="userSpaceOnUse">
<stop stop-color="#F4639F"/>
<stop offset="1" stop-color="#FF94C0"/>
</linearGradient>
<clipPath id="clip0_273_8">
<rect width="35.3369" height="25.0991" fill="white" transform="translate(0.114258 0.920898)"/>
</clipPath>
</defs>
</svg>
