<svg width="25" height="30" viewBox="0 0 25 30" fill="none" xmlns="http://www.w3.org/2000/svg">
<ellipse cx="12.1465" cy="27.7429" rx="12" ry="1.5" fill="#462097"/>
<path fill-rule="evenodd" clip-rule="evenodd" d="M3.5703 16.0265L2.1507 21.2429L7.36499 19.8202C8.96798 20.7548 10.7909 21.2459 12.6465 21.2429C18.4456 21.2429 23.1465 16.5421 23.1465 10.7429C23.1465 4.94377 18.4456 0.24292 12.6465 0.24292C6.84735 0.24292 2.1465 4.94377 2.1465 10.7429C2.14345 12.5993 2.63489 14.423 3.5703 16.0265Z" fill="#878DDF"/>
<path fill-rule="evenodd" clip-rule="evenodd" d="M23.1114 11.6107C21.2783 15.5286 17.3009 18.2427 12.6895 18.2427C7.99046 18.2427 3.94966 15.4243 2.16533 11.3857C2.26306 13.0189 2.7431 14.6095 3.57048 16.0278L2.15088 21.2442L7.36518 19.8214C8.96816 20.7561 10.7911 21.2472 12.6467 21.2442C18.154 21.2442 22.6709 17.0045 23.1114 11.6107Z" fill="#727BE9"/>
<path d="M17.6465 2.74291C15.1465 1.24292 11.8132 1.40958 10.1465 1.74291C12.9465 1.74291 18.6465 5.40962 21.1465 7.24298C20.8132 6.40962 19.8427 4.06065 17.6465 2.74291Z" fill="#B0B6FF"/>
<g filter="url(#filter0_d_273_2)">
<path d="M14.3048 11.3358C14.8764 11.3359 15.4259 11.5572 15.8388 11.9537C16.2516 12.3501 16.4959 12.8911 16.5207 13.4638L16.5229 13.5603V14.0052C16.523 14.2297 16.4385 14.4459 16.2863 14.6105C16.1341 14.7751 15.9254 14.876 15.7022 14.8928L15.6357 14.895H9.42486C9.20101 14.8951 8.98541 14.8103 8.82128 14.6577C8.65714 14.505 8.5566 14.2958 8.53982 14.072L8.5376 14.0052V13.5603C8.53763 12.9871 8.75832 12.436 9.15365 12.022C9.54898 11.608 10.0884 11.363 10.6595 11.3381L10.7558 11.3358H14.3048ZM12.5303 5.99707C13.1186 5.99707 13.6828 6.23144 14.0987 6.64861C14.5147 7.06578 14.7484 7.63159 14.7484 8.22156C14.7484 8.81153 14.5147 9.37734 14.0987 9.79451C13.6828 10.2117 13.1186 10.4461 12.5303 10.4461C11.942 10.4461 11.3778 10.2117 10.9618 9.79451C10.5458 9.37734 10.3121 8.81153 10.3121 8.22156C10.3121 7.63159 10.5458 7.06578 10.9618 6.64861C11.3778 6.23144 11.942 5.99707 12.5303 5.99707Z" fill="white"/>
</g>
<defs>
<filter id="filter0_d_273_2" x="4.5376" y="5.99707" width="15.9854" height="16.8979" filterUnits="userSpaceOnUse" color-interpolation-filters="sRGB">
<feFlood flood-opacity="0" result="BackgroundImageFix"/>
<feColorMatrix in="SourceAlpha" type="matrix" values="0 0 0 0 0 0 0 0 0 0 0 0 0 0 0 0 0 0 127 0" result="hardAlpha"/>
<feOffset dy="4"/>
<feGaussianBlur stdDeviation="2"/>
<feComposite in2="hardAlpha" operator="out"/>
<feColorMatrix type="matrix" values="0 0 0 0 0 0 0 0 0 0 0 0 0 0 0 0 0 0 0.25 0"/>
<feBlend mode="normal" in2="BackgroundImageFix" result="effect1_dropShadow_273_2"/>
<feBlend mode="normal" in="SourceGraphic" in2="effect1_dropShadow_273_2" result="shape"/>
</filter>
</defs>
</svg>
