<svg width="17" height="20" viewBox="0 0 17 20" fill="none" xmlns="http://www.w3.org/2000/svg">
<path d="M13.9685 18.288C12.938 19.287 11.8128 19.1293 10.7296 18.656C9.58339 18.1723 8.53179 18.1513 7.32246 18.656C5.80816 19.308 5.00895 19.1187 4.10457 18.288C-1.02722 12.9984 -0.270066 4.94322 5.55578 4.64877C6.97543 4.72239 7.96393 5.42695 8.79469 5.49005C10.0356 5.23767 11.2239 4.51207 12.5489 4.60671C14.1368 4.7329 15.3356 5.36386 16.1243 6.49958C12.8433 8.46607 13.6215 12.7881 16.6291 13.9975C16.0297 15.5749 15.2515 17.1417 13.958 18.2985L13.9685 18.288ZM8.68953 4.58568C8.53179 2.24062 10.4352 0.305681 12.6225 0.116394C12.9275 2.82951 10.1618 4.84858 8.68953 4.58568Z" fill="#673AB6"/>
</svg>
