<svg width="24" height="14" viewBox="0 0 24 14" fill="none" xmlns="http://www.w3.org/2000/svg">
<path d="M0.241211 13.7762C0.402018 11.8644 0.987354 10.1044 1.99722 8.49637C3.00709 6.88831 4.35143 5.61079 6.03025 4.66382L4.04697 1.23327C3.93976 1.07247 3.91296 0.902725 3.96657 0.724051C4.02017 0.545377 4.13631 0.411372 4.31498 0.322035C4.45792 0.232697 4.61873 0.21483 4.7974 0.268433C4.97607 0.322035 5.11901 0.429239 5.22622 0.590046L7.2095 4.02059C8.7461 3.37736 10.3542 3.05575 12.0337 3.05575C13.7132 3.05575 15.3213 3.37736 16.8579 4.02059L18.8412 0.590046C18.9484 0.429239 19.0913 0.322035 19.27 0.268433C19.4487 0.21483 19.6095 0.232697 19.7524 0.322035C19.9311 0.411372 20.0472 0.545377 20.1008 0.724051C20.1544 0.902725 20.1276 1.07247 20.0204 1.23327L18.0371 4.66382C19.7167 5.61079 21.061 6.88831 22.0702 8.49637C23.0793 10.1044 23.6647 11.8644 23.8262 13.7762H0.241211ZM6.67348 10.8281C7.04869 10.8281 7.36602 10.6984 7.62545 10.4389C7.88489 10.1795 8.01425 9.86252 8.01353 9.48802C8.01353 9.1128 7.88382 8.79548 7.62438 8.53604C7.36495 8.27661 7.04798 8.14724 6.67348 8.14796C6.29826 8.14796 5.98094 8.27768 5.7215 8.53711C5.46207 8.79655 5.33271 9.11351 5.33342 9.48802C5.33342 9.86323 5.46314 10.1806 5.72257 10.44C5.98201 10.6994 6.29898 10.8288 6.67348 10.8281ZM17.3939 10.8281C17.7691 10.8281 18.0865 10.6984 18.3459 10.4389C18.6053 10.1795 18.7347 9.86252 18.734 9.48802C18.734 9.1128 18.6043 8.79548 18.3448 8.53604C18.0854 8.27661 17.7684 8.14724 17.3939 8.14796C17.0187 8.14796 16.7014 8.27768 16.4419 8.53711C16.1825 8.79655 16.0532 9.11351 16.0539 9.48802C16.0539 9.86323 16.1836 10.1806 16.443 10.44C16.7025 10.6994 17.0194 10.8288 17.3939 10.8281Z" fill="#673AB6"/>
</svg>
