<svg width="28" height="38" viewBox="0 0 28 38" fill="none" xmlns="http://www.w3.org/2000/svg">
<ellipse cx="13.913" cy="35.6765" rx="13.1791" ry="1.64739" fill="#462097"/>
<g clip-path="url(#clip0_273_7)">
<path d="M20.1968 12.9742V12.6422H20.2227C20.2288 12.6422 20.2326 12.6453 20.2341 12.6514L20.2379 12.6811C20.2486 12.6681 20.2607 12.6582 20.2744 12.6498C20.2882 12.6422 20.3041 12.6384 20.3217 12.6384C20.3361 12.6384 20.3491 12.6415 20.3605 12.6468C20.3719 12.6521 20.3818 12.6605 20.3902 12.6712C20.3986 12.6818 20.4047 12.6948 20.4092 12.7108C20.4138 12.7268 20.4161 12.745 20.4161 12.7656C20.4161 12.7839 20.4138 12.8006 20.4085 12.8166C20.4039 12.8326 20.3963 12.8463 20.3871 12.8577C20.378 12.8692 20.3666 12.8783 20.3536 12.8851C20.3399 12.892 20.3255 12.895 20.3087 12.895C20.2935 12.895 20.2805 12.8928 20.2699 12.8874C20.2592 12.8821 20.2493 12.8753 20.2409 12.8661V12.9758H20.1975L20.1968 12.9742ZM20.3072 12.6735C20.2927 12.6735 20.2805 12.6765 20.2699 12.6834C20.2592 12.6902 20.2493 12.6993 20.2402 12.7108V12.8303C20.2478 12.841 20.2569 12.8486 20.2661 12.8532C20.276 12.8577 20.2866 12.86 20.2981 12.86C20.3209 12.86 20.3384 12.8516 20.3514 12.8357C20.3635 12.8189 20.3704 12.7961 20.3704 12.7648C20.3704 12.7488 20.3689 12.7351 20.3658 12.723C20.3628 12.7115 20.359 12.7016 20.3536 12.6948C20.3483 12.6872 20.3415 12.6818 20.3338 12.6788C20.3262 12.675 20.3171 12.6735 20.3072 12.6735Z" fill="white"/>
<path d="M20.4656 12.8905V12.6423H20.4915C20.4976 12.6423 20.5014 12.6453 20.5029 12.6514L20.506 12.6766C20.5151 12.6651 20.5258 12.656 20.5364 12.6491C20.5471 12.6423 20.5608 12.6385 20.576 12.6385C20.5928 12.6385 20.6065 12.6431 20.6164 12.6522C20.627 12.6613 20.6339 12.6743 20.6385 12.6903C20.6415 12.6811 20.6461 12.6735 20.6522 12.6667C20.6575 12.6598 20.6644 12.6545 20.6712 12.6507C20.6781 12.6461 20.6857 12.6431 20.6933 12.6415C20.7009 12.6392 20.7093 12.6385 20.7177 12.6385C20.7306 12.6385 20.742 12.6408 20.7527 12.6446C20.7626 12.6484 20.7717 12.6545 20.7786 12.6629C20.7854 12.6705 20.7908 12.6804 20.7946 12.6926C20.7984 12.704 20.7999 12.7177 20.7999 12.7329V12.8905H20.7565V12.7329C20.7565 12.7139 20.7527 12.6986 20.7443 12.6887C20.7359 12.6788 20.7237 12.6735 20.707 12.6735C20.7001 12.6735 20.6933 12.675 20.6864 12.6773C20.6803 12.6796 20.6743 12.6834 20.6697 12.6887C20.6651 12.6933 20.6613 12.6994 20.6583 12.707C20.6552 12.7146 20.6537 12.723 20.6537 12.7329V12.8905H20.6103V12.7329C20.6103 12.7131 20.6065 12.6979 20.5989 12.688C20.5912 12.6781 20.5791 12.6735 20.5638 12.6735C20.5532 12.6735 20.5433 12.6766 20.5341 12.6819C20.525 12.688 20.5166 12.6956 20.509 12.7055V12.8905H20.4648H20.4656Z" fill="white"/>
<path d="M22.9134 13.2421C22.9134 13.2421 22.726 10.4991 21.1186 9.0882L19.4846 7.78649C19.27 7.60292 18.5471 7.09164 18.5471 7.09164C18.519 7.07495 18.4917 7.05902 18.4651 7.04233C17.3531 5.49029 17.4995 2.99611 17.4995 2.99611C17.4995 2.22995 16.5148 0.888794 13.096 0.888794C9.67706 0.888794 8.80319 2.22995 8.80319 2.99611C8.80319 4.96157 7.98621 6.75483 7.44838 7.26308C7.08351 7.51113 6.70574 7.78649 6.70574 7.78649L5.04143 9.0882C5.04143 9.0882 3.38395 10.2063 3.33009 13.189C3.27623 16.171 3.33009 23.8402 3.33009 23.8402C3.33009 23.8402 3.06231 25.8906 4.48236 27.6482C4.48236 27.6482 5.44651 28.8998 6.46451 29.4589C6.93938 29.7199 7.47796 30.0787 7.92552 30.4526C8.94201 31.9736 8.80319 34.3722 8.80319 34.3722C8.80319 35.1383 10.5312 36.0903 13.1513 36.0903C16.1257 36.0903 17.4995 35.1391 17.4995 34.3722C17.4995 32.3817 18.3369 30.5854 18.874 30.0862C19.65 29.4855 20.4746 28.8733 20.4746 28.8733C20.4746 28.8733 22.8049 27.4085 22.9126 23.9206V19.7932C22.9126 19.7932 22.4575 18.4619 22.9126 17.5561V13.2421H22.9134Z" fill="#00A7E1"/>
<path d="M4.8042 12.6027C4.8042 12.6027 4.88461 9.06097 9.19785 8.82202H17.0202C17.0202 8.82202 21.1727 8.82202 21.3335 13.1626C21.3335 13.1626 21.4139 24.2127 21.3335 24.3197C21.2531 24.4259 21.1727 27.8614 17.1811 28.3674H8.74195C8.74195 28.3674 4.83075 28.1542 4.8042 23.841V12.6027Z" fill="#B3DFF1"/>
<path d="M6.25111 13.4017C6.25111 13.4017 5.95678 11.4582 7.91238 10.4728C7.91238 10.4728 8.15361 10.4728 8.34097 10.2331C8.34097 10.2331 8.5822 9.67406 9.33243 9.78026C9.33243 9.78026 9.68061 9.83336 9.84143 10.2066C9.84143 10.2066 10.0022 10.3401 10.4574 10.3128C10.9125 10.2862 17.0744 10.2862 17.0744 10.2862C17.0744 10.2862 19.7264 10.2862 19.7802 12.8692C19.8341 15.4521 19.7802 23.9997 19.7802 23.9997C19.7802 23.9997 19.9949 26.6092 17.2087 26.8489H14.4498C14.4498 26.8489 14.182 26.8489 14.075 27.009C13.9681 27.169 13.4318 27.4884 12.7088 27.3814C12.7088 27.3814 12.2802 27.3549 11.8251 26.9551C11.8251 26.9551 11.7712 26.8754 11.3161 26.8754C10.861 26.8754 9.06617 26.902 9.06617 26.902C9.06617 26.902 6.30193 26.8223 6.23745 24.0528L6.25338 13.4017H6.25111Z" fill="#1D1D1B"/>
<path d="M22.9903 17.5676C23.0844 17.6078 23.2437 17.714 23.2619 18.1145C23.2619 18.1145 23.3423 19.2592 23.2619 19.5527C23.2619 19.5527 23.1549 19.8456 22.9137 19.7925C22.9137 19.7925 22.5549 19.2068 22.784 17.7929C22.784 17.7929 22.8295 17.6002 22.9137 17.5562C22.9137 17.5562 22.9501 17.5509 22.9903 17.5683V17.5676Z" fill="#B3DFF1"/>
<path d="M9.08991 11.2989C9.34128 11.2989 9.54505 11.0962 9.54505 10.8461C9.54505 10.5959 9.34128 10.3932 9.08991 10.3932C8.83854 10.3932 8.63477 10.5959 8.63477 10.8461C8.63477 11.0962 8.83854 11.2989 9.08991 11.2989Z" fill="#4D4C4C"/>
<path d="M12.9942 26.6218C13.316 26.6218 13.5768 26.3627 13.5768 26.043C13.5768 25.7234 13.316 25.4642 12.9942 25.4642C12.6725 25.4642 12.4116 25.7234 12.4116 26.043C12.4116 26.3627 12.6725 26.6218 12.9942 26.6218Z" stroke="#757576" stroke-width="0.0766158" stroke-miterlimit="10"/>
<path d="M19.1814 12.47H6.87354V24.7035H19.1814V12.47Z" fill="#2D2D2D"/>
<path d="M13.2331 14.515C11.0353 14.515 9.25879 16.2915 9.25879 18.4893C9.25879 20.6871 11.0353 22.4636 13.2331 22.4636C15.4308 22.4636 17.2074 20.6871 17.2074 18.4893C17.2074 16.2915 15.4308 14.515 13.2331 14.515ZM14.942 20.1982C14.9052 20.2351 14.8616 20.2643 14.8135 20.2843C14.7654 20.3042 14.7139 20.3145 14.6618 20.3145C14.6098 20.3145 14.5582 20.3042 14.5102 20.2843C14.4621 20.2643 14.4184 20.2351 14.3816 20.1982L13.2331 19.0497L12.0845 20.1982C12.0102 20.2725 11.9094 20.3143 11.8043 20.3143C11.6992 20.3143 11.5984 20.2725 11.5241 20.1982C11.4498 20.1239 11.4081 20.0231 11.4081 19.9181C11.4081 19.866 11.4183 19.8145 11.4382 19.7664C11.4581 19.7183 11.4873 19.6747 11.5241 19.6379L12.6727 18.4893L11.5241 17.3407C11.4498 17.2664 11.4081 17.1656 11.4081 17.0605C11.4081 16.9555 11.4498 16.8547 11.5241 16.7804C11.5984 16.706 11.6992 16.6643 11.8043 16.6643C11.9094 16.6643 12.0102 16.706 12.0845 16.7804L13.2331 17.9289L14.3816 16.7804C14.4184 16.7436 14.4621 16.7144 14.5102 16.6945C14.5583 16.6745 14.6098 16.6643 14.6618 16.6643C14.7139 16.6643 14.7654 16.6745 14.8135 16.6945C14.8615 16.7144 14.9052 16.7436 14.942 16.7804C14.9788 16.8172 15.008 16.8608 15.0279 16.9089C15.0478 16.957 15.0581 17.0085 15.0581 17.0605C15.0581 17.1126 15.0478 17.1641 15.0279 17.2122C15.008 17.2603 14.9788 17.3039 14.942 17.3407L13.7934 18.4893L14.942 19.6379C15.093 19.7889 15.093 20.0432 14.942 20.1982Z" fill="#FF4E97"/>
</g>
<defs>
<clipPath id="clip0_273_7">
<rect width="19.9907" height="35.2008" fill="white" transform="translate(3.30664 0.888855)"/>
</clipPath>
</defs>
</svg>
