<svg width="119" height="190" viewBox="0 0 119 190" fill="none" xmlns="http://www.w3.org/2000/svg">
<ellipse cx="59.2453" cy="182.205" rx="59.1008" ry="7.3876" fill="#462097"/>
<g clip-path="url(#clip0_101_4)">
<path d="M94.2959 63.6041V61.8761H94.4307C94.4624 61.8761 94.4822 61.892 94.4901 61.9237L94.5099 62.0782C94.5654 62.0109 94.6288 61.9593 94.7001 61.9157C94.7715 61.8761 94.8547 61.8563 94.9459 61.8563C95.0212 61.8563 95.0885 61.8721 95.148 61.8999C95.2074 61.9276 95.259 61.9712 95.3026 62.0267C95.3462 62.0822 95.3779 62.1496 95.4016 62.2328C95.4254 62.316 95.4373 62.4111 95.4373 62.5181C95.4373 62.6133 95.4254 62.7005 95.3977 62.7837C95.3739 62.8669 95.3343 62.9383 95.2867 62.9977C95.2391 63.0571 95.1797 63.1047 95.1123 63.1404C95.041 63.176 94.9657 63.1919 94.8785 63.1919C94.7992 63.1919 94.7319 63.18 94.6764 63.1523C94.6209 63.1245 94.5694 63.0889 94.5258 63.0413V63.612H94.2999L94.2959 63.6041ZM94.8706 62.0386C94.7953 62.0386 94.7319 62.0545 94.6764 62.0901C94.6209 62.1258 94.5694 62.1733 94.5218 62.2328V62.855C94.5614 62.9105 94.609 62.9501 94.6566 62.9739C94.7081 62.9977 94.7636 63.0096 94.823 63.0096C94.9419 63.0096 95.0331 62.966 95.1004 62.8828C95.1638 62.7956 95.1995 62.6767 95.1995 62.5142C95.1995 62.431 95.1916 62.3596 95.1757 62.2962C95.1599 62.2368 95.1401 62.1852 95.1123 62.1496C95.0846 62.1099 95.0489 62.0822 95.0093 62.0663C94.9696 62.0465 94.9221 62.0386 94.8706 62.0386Z" fill="white"/>
<path d="M95.7046 63.1682V61.8762H95.8394C95.8711 61.8762 95.8909 61.8921 95.8988 61.9238L95.9147 62.0545C95.9623 61.9951 96.0177 61.9475 96.0732 61.9119C96.1287 61.8762 96.2 61.8564 96.2793 61.8564C96.3665 61.8564 96.4378 61.8802 96.4894 61.9277C96.5448 61.9753 96.5805 62.0427 96.6043 62.1259C96.6201 62.0783 96.6439 62.0387 96.6756 62.003C96.7034 61.9674 96.739 61.9396 96.7747 61.9198C96.8104 61.896 96.85 61.8802 96.8896 61.8722C96.9293 61.8603 96.9729 61.8564 97.0165 61.8564C97.0838 61.8564 97.1433 61.8683 97.1988 61.8881C97.2503 61.9079 97.2979 61.9396 97.3335 61.9832C97.3692 62.0228 97.3969 62.0744 97.4168 62.1378C97.4366 62.1972 97.4445 62.2686 97.4445 62.3478V63.1682H97.2186V62.3478C97.2186 62.2487 97.1988 62.1695 97.1552 62.118C97.1116 62.0664 97.0482 62.0387 96.961 62.0387C96.9253 62.0387 96.8896 62.0466 96.854 62.0585C96.8223 62.0704 96.7906 62.0902 96.7668 62.118C96.743 62.1417 96.7232 62.1734 96.7073 62.2131C96.6915 62.2527 96.6836 62.2963 96.6836 62.3478V63.1682H96.4577V62.3478C96.4577 62.2448 96.4378 62.1655 96.3982 62.114C96.3586 62.0625 96.2952 62.0387 96.2159 62.0387C96.1604 62.0387 96.1089 62.0545 96.0613 62.0823C96.0138 62.114 95.9702 62.1536 95.9306 62.2051V63.1682H95.7007H95.7046Z" fill="white"/>
<path d="M108.492 65.0114C108.492 65.0114 107.513 50.6805 99.1151 43.3089L90.5784 36.508C89.4568 35.5489 85.6798 32.8777 85.6798 32.8777C85.5332 32.7905 85.3905 32.7073 85.2518 32.6201C79.4417 24.5114 80.2066 11.4803 80.2066 11.4803C80.2066 7.47748 75.0624 0.47052 57.2002 0.47052C39.338 0.47052 34.7724 7.47748 34.7724 11.4803C34.7724 21.749 30.504 31.118 27.6941 33.7734C25.7878 35.0694 23.8141 36.508 23.8141 36.508L15.1188 43.3089C15.1188 43.3089 6.45918 49.1507 6.1778 64.734C5.89641 80.3134 6.1778 120.381 6.1778 120.381C6.1778 120.381 4.77878 131.094 12.1979 140.277C12.1979 140.277 17.2352 146.816 22.5538 149.737C25.0348 151.1 27.8486 152.975 30.1869 154.929C35.4976 162.875 34.7724 175.407 34.7724 175.407C34.7724 179.41 43.8006 184.383 57.4895 184.383C73.0293 184.383 80.2066 179.414 80.2066 175.407C80.2066 165.007 84.582 155.622 87.388 153.015C91.4423 149.876 95.7504 146.677 95.7504 146.677C95.7504 146.677 107.925 139.024 108.488 120.802V99.2378C108.488 99.2378 106.11 92.2823 108.488 87.5502V65.0114H108.492Z" fill="#F4639F"/>
<path d="M13.8782 61.6704C13.8782 61.6704 14.2983 43.1662 36.8331 41.9178H77.7017C77.7017 41.9178 99.3964 41.9178 100.237 64.5953C100.237 64.5953 100.657 122.327 100.237 122.886C99.8165 123.441 99.3964 141.39 78.5419 144.034H34.4512C34.4512 144.034 14.0169 142.92 13.8782 120.385V61.6704V61.6704Z" fill="#FF94C0"/>
<path d="M21.4361 65.8437C21.4361 65.8437 19.8983 55.69 30.1155 50.5418C30.1155 50.5418 31.3758 50.5418 32.3547 49.2894C32.3547 49.2894 33.615 46.3685 37.5346 46.9233C37.5346 46.9233 39.3538 47.2008 40.194 49.1507C40.194 49.1507 41.0342 49.8482 43.4121 49.7055C45.79 49.5668 77.9832 49.5668 77.9832 49.5668C77.9832 49.5668 91.8386 49.5668 92.12 63.0615C92.4013 76.5563 92.12 121.214 92.12 121.214C92.12 121.214 93.2415 134.847 78.6847 136.1H64.2705C64.2705 136.1 62.8715 136.1 62.3126 136.936C61.7538 137.772 58.9518 139.441 55.1749 138.882C55.1749 138.882 52.9357 138.743 50.5578 136.654C50.5578 136.654 50.2764 136.238 47.8984 136.238C45.5205 136.238 36.1436 136.377 36.1436 136.377C36.1436 136.377 21.7016 135.961 21.3647 121.491L21.448 65.8437H21.4361Z" fill="#1D1D1B"/>
<path d="M108.892 87.6101C109.383 87.8201 110.215 88.375 110.311 90.4676C110.311 90.4676 110.731 96.448 110.311 97.9818C110.311 97.9818 109.752 99.5116 108.491 99.2342C108.491 99.2342 106.617 96.1746 107.814 88.7872C107.814 88.7872 108.052 87.7805 108.491 87.5506C108.491 87.5506 108.682 87.5229 108.892 87.614V87.6101Z" fill="#B3DFF1"/>
<path d="M36.269 54.858C37.5823 54.858 38.647 53.7987 38.647 52.492C38.647 51.1853 37.5823 50.126 36.269 50.126C34.9557 50.126 33.8911 51.1853 33.8911 52.492C33.8911 53.7987 34.9557 54.858 36.269 54.858Z" fill="#4D4C4C"/>
<path d="M56.6678 134.915C58.3488 134.915 59.7115 133.561 59.7115 131.891C59.7115 130.221 58.3488 128.867 56.6678 128.867C54.9868 128.867 53.624 130.221 53.624 131.891C53.624 133.561 54.9868 134.915 56.6678 134.915Z" stroke="#757576" stroke-width="0.435975" stroke-miterlimit="10"/>
<path d="M88.9923 60.9767H24.6892V124.891H88.9923V60.9767Z" fill="#2D2D2D"/>
<path d="M66.7484 81.5435C66.7484 80.8747 66.4827 80.2333 66.0098 79.7603C65.5369 79.2874 64.8955 79.0217 64.2266 79.0217H54.1394L46.574 86.5872V101.718C46.574 102.387 46.8397 103.028 47.3126 103.501C47.7855 103.974 48.427 104.24 49.0958 104.24H64.2266C64.8955 104.24 65.5369 103.974 66.0098 103.501C66.4827 103.028 66.7484 102.387 66.7484 101.718V81.5435ZM52.8785 100.457H50.3567V97.9353H52.8785V100.457ZM62.9657 100.457H60.4439V97.9353H62.9657V100.457ZM52.8785 95.4135H50.3567V90.3699H52.8785V95.4135ZM57.9221 100.457H55.4003V95.4135H57.9221V100.457ZM57.9221 92.8917H55.4003V90.3699H57.9221V92.8917ZM62.9657 95.4135H60.4439V90.3699H62.9657V95.4135Z" fill="#F8F8F8"/>
</g>
<defs>
<clipPath id="clip0_101_4">
<rect width="104.443" height="183.909" fill="white" transform="translate(6.05518 0.47052)"/>
</clipPath>
</defs>
</svg>
