<svg width="21" height="21" viewBox="0 0 21 21" fill="none" xmlns="http://www.w3.org/2000/svg">
<path d="M0.182617 2.60205C0.182617 1.50205 1.08262 0.602051 2.18262 0.602051H18.1826C18.7131 0.602051 19.2218 0.812764 19.5968 1.18784C19.9719 1.56291 20.1826 2.07162 20.1826 2.60205V4.60205H0.182617V2.60205ZM1.18262 5.60205H19.1826V18.6021C19.1826 19.1325 18.9719 19.6412 18.5968 20.0163C18.2218 20.3913 17.7131 20.6021 17.1826 20.6021H3.18262C2.65218 20.6021 2.14348 20.3913 1.7684 20.0163C1.39333 19.6412 1.18262 19.1325 1.18262 18.6021V5.60205ZM7.18262 7.60205V9.60205H13.1826V7.60205H7.18262Z" fill="#F8F8F8"/>
</svg>
