<svg width="289" height="296" viewBox="0 0 289 296" fill="none" xmlns="http://www.w3.org/2000/svg">
<mask id="mask0_231_156" style="mask-type:alpha" maskUnits="userSpaceOnUse" x="0" y="19" width="277" height="277">
<circle cx="138.121" cy="157.126" r="138.121" fill="#D9D9D9"/>
</mask>
<g mask="url(#mask0_231_156)">
<path d="M272.514 157.66C272.514 232.2 212.082 292.621 137.554 292.621C63.0137 292.621 2.58154 232.2 2.58154 157.66C2.58154 83.1205 63.0024 22.6997 137.542 22.6997C212.082 22.6997 272.514 83.1205 272.514 157.66Z" fill="#C1AFE1"/>
<path d="M137.554 295.179C61.7294 295.179 0.0354004 233.485 0.0354004 157.66C0.0354004 81.8359 61.718 20.1418 137.554 20.1418C213.378 20.1418 275.072 81.8359 275.072 157.66C275.072 233.485 213.378 295.179 137.554 295.179ZM137.554 25.2574C64.5373 25.2574 5.13963 84.6551 5.13963 157.66C5.13963 230.665 64.5373 290.063 137.554 290.063C210.559 290.063 269.957 230.665 269.957 157.66C269.957 84.6551 210.559 25.2574 137.554 25.2574Z" fill="white"/>
<path d="M56.4775 108.596C56.4775 108.596 13.2792 99.8993 33.4687 79.7211C53.6469 59.543 64.7307 100.945 64.7307 100.945L56.4775 108.596Z" fill="#673AB6"/>
<path d="M50.1341 96.1819C44.9503 94.3857 40.4031 92.1008 38.607 90.2819C38.3455 90.0091 38.2887 89.6112 38.5047 89.2929C38.8457 88.7813 39.4141 88.0424 40.369 87.0875C41.8923 85.5642 42.9154 84.9617 43.4384 84.7343C43.643 84.6434 43.859 84.632 44.0636 84.7229C45.962 85.6665 48.7813 89.975 51.1117 95.1247C51.3846 95.7499 50.7821 96.4092 50.1341 96.1819Z" fill="#EBE4DC"/>
<path d="M271.844 271.738C271.844 380.54 137.758 380.222 137.758 380.222C137.758 380.222 3.6731 380.54 3.6731 271.738C3.6731 162.935 51.4072 74.7305 137.758 74.7305C226.724 74.7305 271.844 162.935 271.844 271.738Z" fill="#EBE4DC"/>
<path d="M161.972 145.838C161.699 145.11 160.869 144.78 160.176 145.121C154.014 148.134 146.955 149.805 139.668 150.01V142.063C139.668 141.04 140.066 140.063 140.793 139.335L150.956 129.104C151.57 128.49 151.127 127.433 150.263 127.433H124.003C123.093 127.433 122.673 128.558 123.366 129.149L135.462 139.54C136.314 140.279 136.803 141.347 136.803 142.473V149.987C129.437 149.794 122.309 148.1 116.091 145.042C115.454 144.724 114.67 144.996 114.34 145.633C114.022 146.281 114.294 147.054 114.931 147.372C121.888 150.794 129.937 152.613 138.19 152.613C146.364 152.613 154.344 150.84 161.256 147.475C161.892 147.19 162.21 146.474 161.972 145.838Z" fill="#673AB6"/>
<path d="M218.584 108.596C218.584 108.596 261.782 99.8993 241.604 79.7211C221.426 59.543 210.342 100.945 210.342 100.945L218.584 108.596Z" fill="#673AB6"/>
<path d="M225.165 96.1821C230.349 94.386 234.896 92.101 236.692 90.2821C236.954 90.0093 237.011 89.6114 236.795 89.2931C236.453 88.7816 235.885 88.0426 234.93 87.0877C233.407 85.5644 232.384 84.9619 231.861 84.7346C231.656 84.6436 231.44 84.6322 231.236 84.7232C229.337 85.6667 226.518 89.9752 224.187 95.1249C223.915 95.7501 224.517 96.4095 225.165 96.1821Z" fill="#EBE4DC"/>
<path d="M16.644 180.203C16.8486 179.589 17.4284 179.373 17.9285 179.498C18.3378 179.6 18.6902 179.941 18.7129 180.475C19.3154 198.607 32.2295 239.839 137.338 239.839C243.071 239.839 256.417 198.107 257.259 180.146C257.27 179.861 257.566 178.782 257.725 178.622C258.214 178.088 259.021 179.043 259.328 179.896C268.718 206.519 275.209 263.564 271.048 310.139C271.037 310.264 271.003 310.389 270.946 310.502C269.877 312.696 258.179 334.989 209.775 366.046C166.224 393.989 110.396 394.273 66.5039 366.865C39.0503 349.722 12.3355 328.737 4.36655 308.433C4.33244 308.342 4.3097 308.251 4.29834 308.149C3.96866 305.25 -2.22688 236.588 16.644 180.203Z" fill="#673AB6"/>
<path d="M142.454 138.187C142.363 138.187 142.272 138.153 142.192 138.085C141.271 137.221 140.749 135.993 140.749 134.731C140.749 132.196 142.817 130.127 145.353 130.127C146.58 130.127 147.74 130.604 148.604 131.48C148.752 131.628 148.752 131.866 148.604 132.014C148.456 132.162 148.217 132.162 148.069 132.014C147.342 131.286 146.376 130.889 145.353 130.889C143.238 130.889 141.51 132.617 141.51 134.731C141.51 135.8 141.942 136.8 142.715 137.528C142.874 137.675 142.874 137.914 142.727 138.062C142.647 138.153 142.545 138.187 142.454 138.187Z" fill="#EDE3D9"/>
<path d="M133.7 138.403C133.609 138.403 133.518 138.369 133.439 138.3C133.279 138.153 133.279 137.914 133.416 137.766C134.075 137.061 134.746 135.674 134.666 134.526C134.598 133.458 134.087 132.446 133.268 131.753C132.506 131.116 131.563 130.832 130.608 130.923C129.426 131.059 128.403 131.605 127.573 132.537C127.436 132.696 127.198 132.707 127.038 132.571C126.879 132.435 126.868 132.196 127.004 132.037C127.948 130.968 129.164 130.332 130.528 130.172C131.699 130.047 132.848 130.4 133.768 131.173C134.746 131.991 135.36 133.208 135.439 134.481C135.53 135.856 134.769 137.437 133.984 138.289C133.905 138.369 133.802 138.403 133.7 138.403Z" fill="#EDE3D9"/>
<path d="M18.2807 175.121L18.7695 181.953L16.189 181.578L18.2807 175.121Z" fill="#673AB6"/>
<path d="M257.701 174.803L257.417 178.839L257.212 181.635L259.804 181.26L257.701 174.803Z" fill="#673AB6"/>
<path d="M216.436 131.411C222.973 145.462 219.915 160.741 209.604 165.538C199.293 170.335 185.629 162.844 179.092 148.804C172.556 134.765 175.614 119.486 185.913 114.677C196.235 109.869 209.888 117.36 216.436 131.411Z" fill="#673AB6"/>
<path d="M60.6268 131.411C54.0902 145.462 57.1482 160.741 67.4589 165.538C77.7697 170.335 91.434 162.844 97.9706 148.804C104.507 134.765 101.449 119.486 91.1385 114.677C80.8277 109.869 67.1747 117.36 60.6268 131.411Z" fill="#673AB6"/>
<path d="M66.4707 135.799C63.2308 145.451 66.357 155.204 73.4393 157.592C80.5329 159.967 88.8997 154.068 92.1396 144.416C95.3795 134.765 92.2533 125.011 85.171 122.624C78.0774 120.236 69.6992 126.136 66.4707 135.799Z" fill="#EBE4DC"/>
<path d="M72.6994 135.64C69.8801 141.699 71.1988 148.293 75.6437 150.373C80.1 152.442 85.9886 149.214 88.8192 143.143C91.6385 137.084 90.3198 130.479 85.8635 128.41C81.4187 126.341 75.5187 129.57 72.6994 135.64Z" fill="#2E2C31"/>
<path d="M86.5345 137.63C86.5345 139.108 85.3409 140.313 83.863 140.313C82.3852 140.313 81.1802 139.119 81.1802 137.63C81.1802 136.152 82.3852 134.958 83.863 134.958C85.3409 134.958 86.5345 136.152 86.5345 137.63Z" fill="white"/>
<path d="M210.753 135.799C213.992 145.451 210.866 155.204 203.773 157.592C196.679 159.967 188.312 154.068 185.072 144.416C181.832 134.765 184.959 125.011 192.041 122.624C199.134 120.236 207.513 126.136 210.753 135.799Z" fill="#EBE4DC"/>
<path d="M204.408 135.64C207.227 141.699 205.908 148.293 201.463 150.373C197.007 152.442 191.119 149.214 188.288 143.143C185.469 137.084 186.787 130.479 191.244 128.41C195.689 126.341 201.589 129.57 204.408 135.64Z" fill="#2E2C31"/>
<path d="M190.573 137.63C190.573 139.108 191.767 140.313 193.245 140.313C194.723 140.313 195.928 139.119 195.928 137.63C195.928 136.152 194.723 134.958 193.245 134.958C191.767 134.958 190.573 136.152 190.573 137.63Z" fill="white"/>
</g>
<circle cx="138.121" cy="157.126" r="135.92" stroke="white" stroke-width="4.40271"/>
<path fill-rule="evenodd" clip-rule="evenodd" d="M242.962 71.2388C268.255 71.2388 288.758 55.2914 288.758 35.6194C288.758 15.9473 268.255 0 242.962 0C217.669 0 197.166 15.9473 197.166 35.6194C197.166 43.5439 200.493 50.864 206.12 56.7807C206.385 57.0589 206.497 57.4504 206.411 57.8246L203.245 71.6761C203.042 72.564 203.922 73.313 204.766 72.9709L219.97 66.8073C220.252 66.6929 220.568 66.6981 220.848 66.8183C227.404 69.6354 234.942 71.2388 242.962 71.2388Z" fill="#CC3664"/>
<path fill-rule="evenodd" clip-rule="evenodd" d="M214.7 43.794C216.987 45.1595 218.835 43.8076 219.555 42.7986C215.892 42.7986 218.029 38.3885 219.555 36.1835H224.135C223.965 36.3531 223.423 37.0995 222.609 38.7278C221.591 40.7632 221.082 44.3251 224.644 44.3251C227.493 44.3251 229.224 42.6289 229.732 41.7809C229.902 42.2897 230.75 43.5109 232.785 44.3251C235.33 45.3428 239.401 43.8163 242.454 38.7278C245.507 33.6393 242.962 30.0774 240.927 29.5685C233.294 27.5331 229.732 37.2012 229.224 40.2543C227.697 41.7809 227.188 41.272 226.679 40.7632C225.615 39.6988 227.519 36.4082 229.114 33.6508C229.807 32.4534 230.442 31.3565 230.75 30.5862C231.768 28.042 231.768 24.9889 228.891 24.48C226.736 24.0988 225.888 25.7707 225.693 26.8204C225.558 26.86 225.586 26.9488 225.662 27.0243C225.669 26.9597 225.679 26.8915 225.693 26.8204C225.861 26.7709 226.284 26.7982 227.188 27.0243C228.816 27.4313 226.17 31.9431 224.644 34.1481H220.573C220.743 33.8089 221.184 32.8251 221.591 31.6039C224.644 24.9889 221.591 24.48 219.555 24.48C217.52 24.48 217.011 25.4977 218.538 27.0243C219.282 27.7681 217.73 31.0494 216.12 34.454C214.926 36.9767 213.701 39.567 213.354 41.2432C213.138 42.287 213.784 43.2477 214.7 43.794ZM233.293 42.7434C232.954 41.8953 232.784 39.4867 234.82 36.6372C237.364 33.0752 238.891 31.5487 239.908 32.0575C240.926 32.5664 240.926 35.6195 238.382 39.1814C236.928 41.2168 234.82 43.2522 233.293 42.7434Z" fill="white"/>
<path fill-rule="evenodd" clip-rule="evenodd" d="M248.051 24.7032C248.899 25.0425 250.188 26.4333 248.56 29.2829C248.511 29.3681 248.461 29.4562 248.409 29.547C246.756 32.4342 243.502 38.119 243.782 42.1361C243.932 44.2819 246.129 45.4423 248.088 44.5536C249.389 43.9634 250.756 43.1127 251.613 42.5129C251.613 43.361 252.224 45.0572 254.666 45.0572C255.684 45.0572 257.21 44.5483 259.246 43.0218C259.755 44.5483 262.808 47.6014 267.896 40.9864C267.661 41.0647 267.423 41.146 267.186 41.2273C264.331 42.2028 261.477 43.1784 263.825 38.951C265.861 35.2873 267.726 31.9967 268.405 30.8094C267.218 30.4702 264.538 29.9953 263.316 30.8094C261.79 30.3006 255.175 28.774 251.613 38.951C251.613 40.1722 251.274 40.8168 251.104 40.9864C249.408 42.0041 246.423 43.1236 248.051 39.4598C249.679 35.7961 252.122 30.4702 253.14 28.2652C253.479 26.569 252.936 23.482 248.051 24.7032ZM262.807 32.0576C260.941 31.888 256.803 33.1771 255.174 39.6904C255.174 40.0312 255.149 40.3213 255.127 40.5776C255.096 40.9249 255.071 41.2102 255.122 41.4758C255.331 42.5678 256.748 42.513 257.569 41.7629C259.299 40.1818 262.083 36.7635 262.807 32.0576Z" fill="white"/>
</svg>
