<svg width="24" height="20" viewBox="0 0 24 20" fill="none" xmlns="http://www.w3.org/2000/svg">
<path d="M6.72326 10.066C6.72326 9.83393 6.81546 9.61133 6.97958 9.44721C7.14371 9.28309 7.36631 9.19088 7.59841 9.19088H15.4748V3.50237C15.4748 1.75206 13.6266 0.439331 11.9742 0.439331H3.66021C2.84811 0.4402 2.06952 0.763191 1.49527 1.33744C0.921028 1.91168 0.598037 2.69027 0.597168 3.50237V16.6297C0.598037 17.4418 0.921028 18.2204 1.49527 18.7946C2.06952 19.3689 2.84811 19.6919 3.66021 19.6927H12.4118C13.2239 19.6919 14.0025 19.3689 14.5767 18.7946C15.1509 18.2204 15.4739 17.4418 15.4748 16.6297V10.9412H7.59841C7.36631 10.9412 7.14371 10.849 6.97958 10.6849C6.81546 10.5207 6.72326 10.2981 6.72326 10.066ZM23.0947 9.44741L18.7189 5.07164C18.5534 4.91444 18.3331 4.8281 18.1049 4.83102C17.8767 4.83394 17.6587 4.9259 17.4973 5.08728C17.3359 5.24866 17.244 5.4667 17.241 5.6949C17.2381 5.92311 17.3245 6.14343 17.4816 6.30889L20.3631 9.19088H15.4748V10.9412H20.3631L17.4816 13.8232C17.397 13.9036 17.3292 14.0002 17.2825 14.1073C17.2357 14.2143 17.2108 14.3297 17.2093 14.4465C17.2079 14.5633 17.2298 14.6792 17.2738 14.7874C17.3178 14.8956 17.383 14.9939 17.4656 15.0765C17.5482 15.1591 17.6465 15.2243 17.7547 15.2683C17.8629 15.3123 17.9788 15.3342 18.0956 15.3327C18.2124 15.3312 18.3278 15.3064 18.4348 15.2596C18.5418 15.2129 18.6384 15.1451 18.7189 15.0604L23.0947 10.6847C23.2587 10.5206 23.3508 10.298 23.3508 10.066C23.3508 9.83403 23.2587 9.61152 23.0947 9.44741Z" fill="white"/>
</svg>
