<svg width="24" height="21" viewBox="0 0 24 21" fill="none" xmlns="http://www.w3.org/2000/svg">
<path d="M14.5574 0.493103C15.8906 0.493103 17.1692 1.02271 18.1119 1.96543C19.0546 2.90814 19.5842 4.18673 19.5842 5.51993C19.5842 6.85313 19.0546 8.13172 18.1119 9.07443C17.1692 10.0171 15.8906 10.5468 14.5574 10.5468C13.2242 10.5468 11.9456 10.0171 11.0029 9.07443C10.0602 8.13172 9.53058 6.85313 9.53058 5.51993C9.53058 4.18673 10.0602 2.90814 11.0029 1.96543C11.9456 1.02271 13.2242 0.493103 14.5574 0.493103ZM5.22168 17.7773C5.22168 14.8043 9.40113 12.3915 14.5572 12.3915C19.7133 12.3915 23.8928 14.8043 23.8928 17.7773V18.8545C23.8928 19.6477 23.2497 20.2908 22.4565 20.2908H6.65791C5.8647 20.2908 5.22168 19.6477 5.22168 18.8545V17.7773Z" fill="#F8F8F8"/>
<rect x="2.28027" y="0.755493" width="2.47116" height="6.79337" rx="0.287247" fill="white"/>
<rect x="6.9209" y="2.92987" width="2.3721" height="6.79337" rx="0.287247" transform="rotate(90 6.9209 2.92987)" fill="white"/>
</svg>
