<svg width="111" height="112" viewBox="0 0 111 112" fill="none" xmlns="http://www.w3.org/2000/svg">
<mask id="mask0_1_5702" style="mask-type:alpha" maskUnits="userSpaceOnUse" x="0" y="0" width="111" height="112">
<circle cx="55.5098" cy="56.1078" r="55.1426" fill="#D9D9D9"/>
</mask>
<g mask="url(#mask0_1_5702)">
<path d="M109.163 56.3208C109.163 86.0796 85.0367 110.202 55.2824 110.202C25.5236 110.202 1.39697 86.0796 1.39697 56.3208C1.39697 26.5619 25.519 2.43985 55.2779 2.43985C85.0367 2.43985 109.163 26.5619 109.163 56.3208Z" fill="#C1AFE1"/>
<path d="M55.282 111.223C25.0103 111.223 0.379883 86.5928 0.379883 56.3211C0.379883 26.0494 25.0057 1.41905 55.282 1.41905C85.5537 1.41905 110.184 26.0494 110.184 56.3211C110.184 86.5928 85.5537 111.223 55.282 111.223ZM55.282 3.46137C26.1313 3.46137 2.41766 27.175 2.41766 56.3211C2.41766 85.4673 26.1313 109.181 55.282 109.181C84.4281 109.181 108.142 85.4673 108.142 56.3211C108.142 27.175 84.4281 3.46137 55.282 3.46137Z" fill="white"/>
<path d="M22.9145 36.7323C22.9145 36.7323 5.66824 33.2603 13.7286 25.2045C21.7844 17.1487 26.2094 33.6779 26.2094 33.6779L22.9145 36.7323Z" fill="#673AB6"/>
<path d="M20.3829 31.7765C18.3134 31.0594 16.498 30.1472 15.7809 29.421C15.6765 29.3121 15.6538 29.1532 15.74 29.0261C15.8762 28.8219 16.1031 28.5269 16.4844 28.1457C17.0925 27.5375 17.501 27.297 17.7097 27.2062C17.7914 27.1699 17.8777 27.1654 17.9594 27.2017C18.7173 27.5784 19.8428 29.2985 20.7732 31.3544C20.8821 31.604 20.6416 31.8672 20.3829 31.7765Z" fill="#EBE4DC"/>
<path d="M108.896 101.865C108.896 145.303 55.3649 145.176 55.3649 145.176C55.3649 145.176 1.8335 145.303 1.8335 101.865C1.8335 58.427 20.8906 23.2129 55.3649 23.2129C90.8831 23.2129 108.896 58.427 108.896 101.865Z" fill="#EBE4DC"/>
<path d="M65.0309 51.6005C64.922 51.31 64.5907 51.1784 64.3138 51.3146C61.854 52.5173 59.0356 53.1844 56.1264 53.2661V50.0937C56.1264 49.6853 56.2853 49.2949 56.5757 49.0045L60.6331 44.9198C60.8782 44.6748 60.7012 44.2527 60.3563 44.2527H49.8724C49.5093 44.2527 49.3414 44.702 49.6182 44.938L54.4472 49.0862C54.7876 49.3812 54.9827 49.8078 54.9827 50.2571V53.257C52.0418 53.1799 49.1962 52.5036 46.7136 51.2828C46.4594 51.1557 46.1463 51.2646 46.0147 51.5188C45.8876 51.7775 45.9965 52.0861 46.2507 52.2132C49.0282 53.5793 52.2415 54.3054 55.5364 54.3054C58.7996 54.3054 61.9856 53.5974 64.745 52.254C64.9992 52.1406 65.1262 51.8547 65.0309 51.6005Z" fill="#673AB6"/>
<path d="M87.6332 36.7323C87.6332 36.7323 104.879 33.2603 96.8236 25.2045C88.7678 17.1487 84.3428 33.6779 84.3428 33.6779L87.6332 36.7323Z" fill="#673AB6"/>
<path d="M90.2609 31.7765C92.3305 31.0594 94.1459 30.1472 94.863 29.421C94.9674 29.3121 94.99 29.1532 94.9038 29.0261C94.7677 28.8219 94.5407 28.5269 94.1595 28.1457C93.5513 27.5375 93.1429 27.297 92.9341 27.2062C92.8524 27.1699 92.7662 27.1654 92.6845 27.2017C91.9266 27.5784 90.801 29.2985 89.8706 31.3544C89.7617 31.604 90.0022 31.8672 90.2609 31.7765Z" fill="#EBE4DC"/>
<path d="M7.01106 65.3205C7.09275 65.0755 7.32421 64.9892 7.5239 65.0392C7.68729 65.08 7.82798 65.2162 7.83706 65.4295C8.0776 72.6683 13.2333 89.1294 55.1962 89.1294C97.4087 89.1294 102.737 72.4686 103.073 65.2978C103.077 65.1844 103.195 64.7532 103.259 64.6897C103.454 64.4764 103.776 64.8576 103.899 65.198C107.647 75.8271 110.239 98.6012 108.578 117.195C108.573 117.245 108.56 117.295 108.537 117.341C108.11 118.217 103.44 127.117 84.1154 139.516C66.7285 150.671 44.44 150.785 26.9169 139.842C15.9564 132.998 5.29097 124.62 2.10949 116.515C2.09587 116.478 2.0868 116.442 2.08226 116.401C1.95064 115.244 -0.522834 87.8314 7.01106 65.3205Z" fill="#673AB6"/>
<path d="M57.2394 48.5465C57.2031 48.5465 57.1667 48.5329 57.135 48.5056C56.7674 48.1607 56.5586 47.6706 56.5586 47.1668C56.5586 46.1547 57.3846 45.3287 58.3967 45.3287C58.8868 45.3287 59.3498 45.5193 59.6947 45.8688C59.7537 45.9278 59.7537 46.0231 59.6947 46.0821C59.6357 46.1411 59.5404 46.1411 59.4814 46.0821C59.1909 45.7916 58.8051 45.6328 58.3967 45.6328C57.5525 45.6328 56.8627 46.3226 56.8627 47.1668C56.8627 47.5934 57.0351 47.9928 57.3438 48.2833C57.4073 48.3423 57.4073 48.4376 57.3483 48.4966C57.3165 48.5329 57.2757 48.5465 57.2394 48.5465Z" fill="#EDE3D9"/>
<path d="M53.7446 48.6329C53.7083 48.6329 53.672 48.6193 53.6402 48.5921C53.5766 48.5331 53.5766 48.4378 53.6311 48.3788C53.8943 48.0974 54.1621 47.5437 54.1303 47.0853C54.1031 46.6587 53.8989 46.2548 53.5721 45.9779C53.268 45.7238 52.8913 45.6103 52.5101 45.6466C52.0381 45.7011 51.6296 45.9189 51.2983 46.2911C51.2439 46.3546 51.1485 46.3592 51.085 46.3047C51.0215 46.2502 51.0169 46.1549 51.0714 46.0914C51.4481 45.6648 51.9337 45.4106 52.4783 45.3471C52.9458 45.2972 53.4042 45.4378 53.7718 45.7465C54.1621 46.0732 54.4072 46.5589 54.439 47.0672C54.4753 47.6163 54.1712 48.2472 53.858 48.5876C53.8263 48.6193 53.7854 48.6329 53.7446 48.6329Z" fill="#EDE3D9"/>
<path d="M7.66516 63.292L7.86032 66.0197L6.83008 65.8699L7.66516 63.292Z" fill="#673AB6"/>
<path d="M103.25 63.1654L103.136 64.7765L103.055 65.893L104.089 65.7432L103.25 63.1654Z" fill="#673AB6"/>
<path d="M86.7752 45.8419C89.3848 51.4515 88.164 57.5512 84.0476 59.4664C79.9311 61.3817 74.4759 58.3908 71.8663 52.7858C69.2566 47.1807 70.4775 41.081 74.5893 39.1612C78.7103 37.2414 84.161 40.2323 86.7752 45.8419Z" fill="#673AB6"/>
<path d="M24.5711 45.8419C21.9615 51.4515 23.1824 57.5512 27.2988 59.4664C31.4152 61.3817 36.8704 58.3908 39.4801 52.7858C42.0897 47.1807 40.8688 41.081 36.7524 39.1612C32.636 37.2414 27.1853 40.2323 24.5711 45.8419Z" fill="#673AB6"/>
<path d="M26.9049 47.593C25.6114 51.4462 26.8595 55.3402 29.687 56.2933C32.519 57.2418 35.8593 54.8863 37.1528 51.0332C38.4462 47.18 37.1982 43.286 34.3707 42.3329C31.5387 41.3798 28.1938 43.7353 26.9049 47.593Z" fill="#EBE4DC"/>
<path d="M29.3915 47.53C28.266 49.949 28.7924 52.5813 30.567 53.4119C32.3461 54.2379 34.697 52.9489 35.8271 50.5254C36.9526 48.1064 36.4262 45.4695 34.6471 44.6435C32.8725 43.8175 30.5171 45.1064 29.3915 47.53Z" fill="#2E2C31"/>
<path d="M34.9145 48.3235C34.9145 48.9135 34.4379 49.3946 33.8479 49.3946C33.2579 49.3946 32.7769 48.918 32.7769 48.3235C32.7769 47.7335 33.2579 47.2569 33.8479 47.2569C34.4379 47.2569 34.9145 47.7335 34.9145 48.3235Z" fill="white"/>
<path d="M84.5069 47.593C85.8004 51.4462 84.5523 55.3402 81.7203 56.2933C78.8883 57.2418 75.548 54.8863 74.2545 51.0332C72.961 47.18 74.2091 43.286 77.0366 42.3329C79.8686 41.3798 83.2135 43.7353 84.5069 47.593Z" fill="#EBE4DC"/>
<path d="M81.9758 47.53C83.1014 49.949 82.5749 52.5813 80.8003 53.4119C79.0213 54.2379 76.6703 52.9489 75.5402 50.5254C74.4147 48.1064 74.9412 45.4695 76.7202 44.6435C78.4948 43.8175 80.8503 45.1064 81.9758 47.53Z" fill="#2E2C31"/>
<path d="M76.4507 48.3235C76.4507 48.9135 76.9272 49.3946 77.5172 49.3946C78.1072 49.3946 78.5883 48.918 78.5883 48.3235C78.5883 47.7335 78.1072 47.2569 77.5172 47.2569C76.9272 47.2569 76.4507 47.7335 76.4507 48.3235Z" fill="white"/>
</g>
<circle cx="55.5098" cy="56.1078" r="54.266" stroke="white" stroke-width="1.75323"/>
</svg>
