<svg width="98" height="69" viewBox="0 0 98 69" fill="none" xmlns="http://www.w3.org/2000/svg">
<ellipse cx="51.1169" cy="65.8299" rx="45.9348" ry="2.4235" fill="#462097"/>
<path d="M11.4015 0.859568L90.3374 0.938074C92.1878 0.939915 93.686 2.44106 93.6842 4.29152L93.6371 51.5685C93.6353 53.419 92.1342 54.9172 90.2837 54.9153L11.3478 54.8368C9.49734 54.835 7.99918 53.3338 8.00102 51.4834L8.04804 4.2084C8.04988 2.35794 9.55102 0.85978 11.4015 0.86162L11.4015 0.859568ZM63.061 27.2277C63.0607 27.5703 63.1958 27.8987 63.4376 28.141L65.9031 30.6114C66.1449 30.8538 66.473 30.9895 66.8156 30.9898L69.0949 30.9921C69.6775 30.9927 70.1661 30.6034 70.3246 30.0722L72.4623 30.0743L72.4621 30.2733C72.4617 30.7144 72.8183 31.0696 73.2573 31.0701L87.4579 31.0842C88.6046 31.0853 89.5349 30.1569 89.536 29.0101L89.5386 26.4581C89.539 26.017 89.1824 25.6617 88.7434 25.6613L88.5936 25.6611L88.599 20.2144L88.7488 20.2145C89.1899 20.215 89.5451 19.8584 89.5456 19.4193L89.5481 16.8673C89.5493 15.7205 88.6209 14.7902 87.4741 14.7891L73.2735 14.775C72.8324 14.7745 72.4772 15.1311 72.4767 15.5701L72.4766 15.7507L70.5666 15.7488C70.4277 15.1886 69.9234 14.7696 69.3203 14.769L65.5804 14.7653C64.1956 14.7639 63.0702 15.887 63.0689 17.2718L63.059 27.2257L63.061 27.2277Z" fill="#53B6C4"/>
<path d="M85.7041 10.3124C85.94 10.2798 86.1699 10.2144 86.3833 10.114C86.449 10.0813 86.529 10.0896 86.5885 10.1327L86.9471 10.4613C87.4973 10.107 87.9122 9.59243 88.1282 8.99361L87.7038 8.73264C87.6464 8.68951 87.6178 8.61767 87.6301 8.54794C87.6755 8.32437 87.6819 8.0946 87.6513 7.86891C87.6391 7.76632 87.7131 7.67202 87.8218 7.65572L88.503 7.56408C88.6097 7.54982 88.743 7.57868 88.7614 7.7182C88.9832 9.48067 87.6871 11.1042 85.8487 11.367C85.7338 11.3771 85.6333 11.297 85.6253 11.1862C85.6253 11.1821 85.6253 11.176 85.6253 11.1719L85.5377 10.5235C85.5255 10.4209 85.5994 10.3266 85.7082 10.3103L85.7041 10.3124Z" fill="white"/>
<path d="M84.6393 8.99474C84.668 8.96194 84.6824 8.91682 84.6784 8.86963C84.6399 8.41416 84.7798 7.97117 85.0735 7.62066C85.3672 7.27014 85.7798 7.05309 86.2332 7.01046C86.3276 7.00235 86.3974 6.9183 86.3893 6.82393C86.3812 6.72955 86.2972 6.65972 86.2028 6.66783C85.657 6.71857 85.1644 6.97862 84.8111 7.40088C84.4579 7.82314 84.2912 8.35432 84.3378 8.90007C84.3459 8.99445 84.43 9.06428 84.5243 9.05617C84.5715 9.05211 84.6126 9.02959 84.6413 8.99474L84.6393 8.99474Z" fill="white"/>
<path d="M85.2896 8.93421C85.3184 8.90142 85.3328 8.8563 85.3287 8.80911C85.3044 8.52803 85.3908 8.25526 85.5716 8.03798C85.7523 7.8207 86.0068 7.68761 86.2879 7.66122C86.3823 7.6531 86.4521 7.56906 86.444 7.47469C86.4359 7.38031 86.3519 7.31047 86.2575 7.31858C85.8861 7.35309 85.5495 7.53124 85.3092 7.81616C85.0689 8.10108 84.9557 8.46614 84.9881 8.83749C84.9962 8.93187 85.0803 9.0017 85.1747 8.99359C85.2219 8.98954 85.2629 8.96701 85.2917 8.93216L85.2896 8.93421Z" fill="white"/>
<path d="M79.5494 8.46873L79.5505 7.35271L78.8756 7.35203L78.8726 10.3083L79.5476 10.3089L79.5487 9.19291L81.3376 9.19469C81.3827 9.19473 81.4258 9.18042 81.471 9.15379C81.5161 9.12717 81.5552 9.09028 81.5921 9.04518C81.6291 9.00009 81.6579 8.94883 81.6805 8.89346C81.7031 8.83604 81.7134 8.77861 81.7135 8.72116L81.7148 7.35691L81.0399 7.35624L81.0388 8.47226L79.5514 8.47078L79.5494 8.46873Z" fill="white"/>
<path d="M77.0913 9.18788L77.0921 8.46575L75.6704 8.46433C75.6252 8.46429 75.5821 8.4786 75.537 8.50523C75.4918 8.53185 75.4528 8.56874 75.4158 8.61384C75.3788 8.65893 75.3501 8.71019 75.3275 8.76556C75.3048 8.82298 75.2945 8.88041 75.2945 8.93786L75.2936 9.82616C75.2935 9.88565 75.3037 9.9431 75.3262 9.99852C75.3487 10.056 75.3774 10.1073 75.4143 10.1504C75.4512 10.1956 75.4901 10.2326 75.5352 10.2593C75.5803 10.286 75.6234 10.3004 75.6685 10.3004L77.8267 10.3026C77.8718 10.3026 77.9149 10.2883 77.9601 10.2617C78.0053 10.2351 78.0443 10.1982 78.0813 10.1531C78.1182 10.108 78.147 10.0567 78.1696 10.0013C78.1922 9.94393 78.2026 9.8865 78.2026 9.82905L78.2046 7.82473C78.2047 7.76524 78.1945 7.70778 78.172 7.65237C78.1494 7.5949 78.1208 7.54359 78.0839 7.50047C78.047 7.4553 78.0081 7.41833 77.963 7.39162C77.9179 7.36491 77.8748 7.3505 77.8297 7.35046L75.2981 7.34794L75.2973 8.14187L77.5293 8.14409L77.528 9.5145L75.9688 9.51295L75.9692 9.18881L77.0913 9.18993L77.0913 9.18788Z" fill="white"/>
<path d="M68.0996 7.09097L71.458 7.09431C71.6898 7.09454 71.8763 7.28347 71.876 7.51529L71.8723 11.2942L71.0361 10.4543L68.0963 10.4513C67.8645 10.4511 67.678 10.2622 67.6762 10.0304L67.6787 7.51111C67.6789 7.27929 67.8678 7.09279 68.0996 7.09097ZM70.4078 8.98271L70.8283 8.98313L70.8287 8.56257L70.4082 8.56215L70.4078 8.98271ZM69.5687 8.98187L69.9893 8.98229L69.9897 8.56173L69.5691 8.56131L69.5687 8.98187ZM68.7296 8.98104L69.1502 8.98146L69.1506 8.5609L68.73 8.56048L68.7296 8.98104Z" fill="white"/>
<path d="M88.4219 33.3767L86.4894 33.3748L86.4889 33.8015L87.1905 33.8022L87.1884 36.0096L87.7156 36.0101L87.7178 33.8027L88.4194 33.8034L88.4198 33.3767L88.4219 33.3767Z" fill="white"/>
<path d="M84.1291 36.0065L84.6604 36.007L84.6607 35.7424C84.7918 35.9189 85.0235 36.034 85.282 36.0343C85.7682 36.0348 86.1193 35.7192 86.1199 35.1448L86.1211 33.918L85.5939 33.9174L85.5927 35.0683C85.5924 35.4048 85.4076 35.5851 85.1286 35.5849C84.8496 35.5846 84.661 35.4039 84.6613 35.0674L84.6625 33.9165L84.1311 33.916L84.1291 36.0065Z" fill="white"/>
<path d="M87.3665 40.5641C87.9143 40.5646 88.3372 40.2778 88.3438 39.7814L87.7776 39.7808C87.763 39.9921 87.6234 40.1315 87.3772 40.1312C87.131 40.131 86.9814 39.9995 86.9816 39.8108C86.9821 39.2405 88.3399 39.5865 88.3367 38.6305C88.3372 38.1545 87.9518 37.869 87.4102 37.8685C86.8686 37.8679 86.5011 38.1425 86.4658 38.6184L87.0464 38.6189C87.0588 38.4446 87.1985 38.3093 87.4241 38.3054C87.6314 38.2974 87.7872 38.4002 87.7869 38.6156C87.7864 39.1428 86.4368 38.8481 86.4359 39.7754C86.4355 40.1898 86.7675 40.5635 87.3665 40.5641Z" fill="white"/>
<path d="M85.05 40.5703C85.6532 40.5709 86.1111 40.1488 86.1117 39.4923C86.1124 38.8358 85.6409 38.4127 85.0378 38.4121C84.4347 38.4115 83.9624 38.8296 83.9617 39.4902C83.9611 40.1508 84.4428 40.5697 85.05 40.5703ZM85.0505 40.1108C84.7715 40.1105 84.5029 39.9072 84.5033 39.4928C84.5037 39.0783 84.7645 38.8735 85.0435 38.8737C85.3225 38.874 85.5746 39.0733 85.5742 39.4938C85.5738 39.9144 85.3315 40.1111 85.0484 40.1108L85.0505 40.1108Z" fill="white"/>
<path d="M81.29 37.8994L80.691 37.8988L79.852 39.8551L79.017 37.8972L78.42 37.8966L78.4174 40.5307L78.9446 40.5312L78.9463 38.8182L79.6503 40.5319L80.0504 40.5323L80.7619 38.82L80.7602 40.533L81.2874 40.5336L81.29 37.8994Z" fill="white"/>
<path d="M76.9675 40.5622C77.5706 40.5628 78.0285 40.1406 78.0292 39.4841C78.0299 38.8276 77.5584 38.4046 76.9553 38.404C76.3521 38.4034 75.8799 38.8214 75.8792 39.482C75.8786 40.1426 76.3603 40.5616 76.9675 40.5622ZM76.968 40.1026C76.6889 40.1023 76.4204 39.899 76.4208 39.4846C76.4212 39.0702 76.682 38.8653 76.961 38.8656C77.24 38.8658 77.4921 39.0651 77.4917 39.4856C77.4913 39.9062 77.249 40.1029 76.9659 40.1026L76.968 40.1026Z" fill="white"/>
<path d="M72.5655 39.3678C72.5658 39.0354 72.7506 38.8633 73.0296 38.8636C73.3086 38.8638 73.4972 39.0384 73.4969 39.3687L73.4957 40.5237L74.023 40.5242L74.0241 39.3692C74.0244 39.0369 74.2092 38.8647 74.4882 38.865C74.7673 38.8653 74.9599 39.0399 74.9596 39.3702L74.9584 40.5252L75.4857 40.5257L75.4878 38.4352L74.9605 38.4347L74.9603 38.687C74.8291 38.5145 74.6056 38.4035 74.3451 38.4033C74.021 38.403 73.7521 38.5422 73.6082 38.8026C73.473 38.5645 73.1983 38.4021 72.8926 38.4018C72.39 38.4013 72.0368 38.719 72.0363 39.2954L72.035 40.5222L72.5623 40.5228L72.5634 39.3678L72.5655 39.3678Z" fill="white"/>
<path d="M70.6062 40.5561C71.2093 40.5567 71.6672 40.1345 71.6679 39.478C71.6685 38.8215 71.1971 38.3985 70.594 38.3979C69.9908 38.3973 69.5185 38.8153 69.5179 39.4759C69.5172 40.1365 69.9989 40.5555 70.6062 40.5561ZM70.6066 40.0965C70.3276 40.0962 70.0591 39.8929 70.0595 39.4785C70.0599 39.0641 70.3206 38.8592 70.5996 38.8595C70.8787 38.8597 71.1308 39.059 71.1304 39.4795C71.13 39.9001 70.8877 40.0968 70.6046 40.0965L70.6066 40.0965Z" fill="white"/>
<path d="M64.6145 28.1189C64.4772 27.9895 64.3994 27.8089 64.3996 27.6181L64.4093 17.8201C64.4103 16.8477 65.4594 16.061 66.7539 16.0622L86.5161 16.0819C87.8106 16.0832 88.8581 16.872 88.8571 17.8444L88.8464 28.6477C88.8454 29.6201 87.7963 30.4068 86.5018 30.4055L67.2812 30.3864C67.1048 30.3862 66.9366 30.3184 66.8096 30.1972L64.6145 28.1168L64.6145 28.1189Z" fill="#53B6C4"/>
<path d="M79.077 26.1348L84.3658 26.14C85.2828 26.141 86.0282 25.5242 86.0289 24.7631L86.0338 19.8641C86.0345 19.103 85.2905 18.4847 84.3734 18.4838L79.0846 18.4786C78.1676 18.4776 77.4223 19.0944 77.4216 19.8555L77.4167 24.7545C77.4159 25.5156 78.16 26.1339 79.077 26.1348Z" fill="#FFFCA2" stroke="#4E3496" stroke-width="1.08553"/>
<path d="M77.3251 24.1412L78.9601 24.1428C79.8771 24.1437 80.6225 23.527 80.6232 22.7659L80.6241 21.8509C80.6249 21.0898 79.8808 20.4715 78.9638 20.4706L77.3287 20.469" stroke="#5D42A6" stroke-width="0.536928"/>
<path d="M86.1199 24.0783L84.2633 24.0765C83.3462 24.0756 82.6022 23.4573 82.6029 22.6962L82.6038 21.7812C82.6046 21.0201 83.3499 20.4034 84.2669 20.4043L86.1235 20.4061" stroke="#5D42A6" stroke-width="0.536928"/>
<path d="M86.0845 22.3835L77.3266 22.3748" stroke="#5D42A6" stroke-width="0.536928"/>
<path d="M79.8156 26.1931L79.8179 23.9569" stroke="#5D42A6" stroke-width="0.536928"/>
<path d="M79.8171 20.6888L79.8193 18.4773" stroke="#5D42A6" stroke-width="0.536928"/>
<path d="M83.6252 26.1968L83.6274 23.9607" stroke="#5D42A6" stroke-width="0.536928"/>
<path d="M83.6308 20.4709L83.6328 18.4255" stroke="#5D42A6" stroke-width="0.536928"/>
<path d="M73.0739 26.0527L73.0815 18.4334C73.0823 17.6477 73.7189 17.0124 74.5046 17.0131L86.508 17.0251C87.2937 17.0259 87.9291 17.6625 87.9283 18.4482L87.9196 27.1794C87.9188 27.9651 87.2822 28.6005 86.4965 28.5997L75.6973 28.5889C75.5004 28.5888 75.3117 28.5127 75.1703 28.3771L73.3113 26.6069C73.1597 26.4611 73.0737 26.262 73.0739 26.0507L73.0739 26.0527Z" fill="#82D6E1"/>
<path d="M79.077 26.1348L84.3658 26.14C85.2828 26.141 86.0282 25.5242 86.0289 24.7631L86.0338 19.8641C86.0345 19.103 85.2905 18.4847 84.3734 18.4838L79.0846 18.4786C78.1676 18.4776 77.4223 19.0944 77.4216 19.8555L77.4167 24.7545C77.4159 25.5156 78.16 26.1339 79.077 26.1348Z" fill="#FFFCA2" stroke="#4E3496" stroke-width="1.08553"/>
<path d="M77.3251 24.1412L78.9601 24.1428C79.8771 24.1437 80.6225 23.527 80.6232 22.7659L80.6241 21.8509C80.6249 21.0898 79.8808 20.4715 78.9638 20.4706L77.3287 20.469" stroke="#5D42A6" stroke-width="0.536928"/>
<path d="M86.1199 24.0783L84.2633 24.0765C83.3462 24.0756 82.6022 23.4573 82.6029 22.6962L82.6038 21.7812C82.6046 21.0201 83.3499 20.4034 84.2669 20.4043L86.1235 20.4061" stroke="#5D42A6" stroke-width="0.536928"/>
<path d="M86.0845 22.3835L77.3266 22.3748" stroke="#5D42A6" stroke-width="0.536928"/>
<path d="M79.8156 26.1931L79.8179 23.9569" stroke="#5D42A6" stroke-width="0.536928"/>
<path d="M79.8171 20.6888L79.8193 18.4773" stroke="#5D42A6" stroke-width="0.536928"/>
<path d="M83.6252 26.1968L83.6274 23.9607" stroke="#5D42A6" stroke-width="0.536928"/>
<path d="M83.6308 20.4709L83.6328 18.4255" stroke="#5D42A6" stroke-width="0.536928"/>
<path d="M76.3681 25.3384C76.2821 25.2522 76.233 25.125 76.2331 24.9916L76.2389 19.1161C76.2395 18.515 76.7037 18.0272 77.274 18.0278L86.0031 18.0364C86.5755 18.037 87.0366 18.5257 87.036 19.1268L87.0294 25.8127C87.0288 26.4138 86.5647 26.9016 85.9943 26.901L78.0611 26.8931C77.9688 26.893 77.8807 26.854 77.811 26.7841L76.3681 25.3384Z" fill="#E6F6FC"/>
<path d="M79.077 26.1348L84.3658 26.14C85.2828 26.141 86.0282 25.5242 86.0289 24.7631L86.0338 19.8641C86.0345 19.103 85.2905 18.4847 84.3734 18.4838L79.0846 18.4786C78.1676 18.4776 77.4223 19.0944 77.4216 19.8555L77.4167 24.7545C77.4159 25.5156 78.16 26.1339 79.077 26.1348Z" fill="#FFFCA2" stroke="#4E3496" stroke-width="0.583617"/>
<path d="M77.3251 24.1412L78.9601 24.1428C79.8771 24.1437 80.6225 23.527 80.6232 22.7659L80.6241 21.8509C80.6249 21.0898 79.8808 20.4715 78.9638 20.4706L77.3287 20.469" stroke="#4E3496" stroke-width="0.350171"/>
<path d="M86.1199 24.0783L84.2633 24.0765C83.3462 24.0756 82.6022 23.4573 82.6029 22.6962L82.6038 21.7812C82.6046 21.0201 83.3499 20.4034 84.2669 20.4043L86.1235 20.4061" stroke="#4E3496" stroke-width="0.350171"/>
<path d="M86.0845 22.3835L77.3266 22.3748" stroke="#4E3496" stroke-width="0.350171"/>
<path d="M79.8156 26.1931L79.8179 23.9569" stroke="#5D42A6" stroke-width="0.536928"/>
<path d="M79.8171 20.6888L79.8193 18.4773" stroke="#4E3496" stroke-width="0.350171"/>
<path d="M83.6252 26.1968L83.6274 23.9607" stroke="#5D42A6" stroke-width="0.536928"/>
<path d="M83.6308 20.4709L83.6328 18.4255" stroke="#4E3496" stroke-width="0.350171"/>
<mask id="mask0_31_2493" style="mask-type:alpha" maskUnits="userSpaceOnUse" x="22" y="21" width="58" height="34">
<rect width="57.4423" height="33.6448" transform="matrix(-1 -0.000994557 -0.000994557 1 79.8262 21.1141)" fill="#D9D9D9"/>
</mask>
<g mask="url(#mask0_31_2493)">
<path d="M30.7962 58.7825C30.7822 72.9071 48.1893 72.8834 48.1893 72.8834C48.1893 72.8834 65.5963 72.9418 65.6103 58.8171C65.6244 44.6925 59.4381 33.2348 48.2287 33.2237C37.0193 33.2125 30.8103 44.6579 30.7962 58.7825Z" fill="#EDE4DC"/>
<path d="M58.6854 37.6307C58.6854 37.6307 64.2933 36.5079 61.6761 33.8855C59.0589 31.2631 57.6155 36.6367 57.6155 36.6367L58.6854 37.6307Z" fill="#66428F"/>
<path d="M59.4505 36.0194C60.1236 35.7862 60.7147 35.4914 60.9488 35.2536C60.9838 35.2188 60.99 35.1655 60.9633 35.1244C60.9183 35.0566 60.8445 34.9622 60.7215 34.839C60.5248 34.6419 60.3915 34.5638 60.3239 34.5329C60.2972 34.5206 60.2685 34.5185 60.2438 34.5328C59.9975 34.6536 59.6318 35.2133 59.3275 35.8818C59.2905 35.9638 59.3684 36.048 59.4525 36.0194L59.4505 36.0194Z" fill="#EDE4DC"/>
<path d="M37.641 37.6098C37.641 37.6098 32.0353 36.4759 34.6577 33.8588C37.2801 31.2416 38.7129 36.618 38.7129 36.618L37.641 37.6098Z" fill="#66428F"/>
<path d="M36.8792 35.9965C36.2065 35.762 35.616 35.4659 35.3824 35.2277C35.3475 35.1928 35.3414 35.1395 35.3681 35.0985C35.4133 35.0308 35.4873 34.9365 35.6105 34.8136C35.8076 34.6168 35.9411 34.539 36.0088 34.5083C36.0355 34.496 36.0642 34.494 36.0888 34.5084C36.3348 34.6296 36.6995 35.1901 37.0024 35.8592C37.0393 35.9413 36.9612 36.0253 36.8771 35.9965L36.8792 35.9965Z" fill="#EDE4DC"/>
<path d="M63.9407 46.9317C63.8937 46.786 63.6782 46.8145 63.674 46.9663C63.5937 49.3214 61.9102 54.6721 48.2656 54.6585C34.621 54.6449 32.8129 49.2251 32.7044 46.8945C32.6964 46.7406 32.481 46.7137 32.4378 46.8614C31.7709 49.064 30.3685 54.3822 30.902 60.4306C30.902 60.447 30.9082 60.4634 30.9143 60.4778C31.0535 60.7631 32.5688 63.6572 38.8485 67.6967C44.4989 71.3294 51.7468 71.3736 57.4474 67.8219C61.0131 65.5996 64.4849 62.8786 65.5215 60.2455C65.5256 60.2332 65.5297 60.2209 65.5297 60.2086C65.5711 59.8291 66.1636 54.0157 63.9386 46.9337L63.9407 46.9317Z" fill="#66428F"/>
<path d="M45.0775 42.4506C45.1124 42.3563 45.2212 42.3133 45.3094 42.3585C46.1091 42.7491 47.0259 42.9675 47.9716 42.9951L47.9726 41.9632C47.9727 41.8299 47.9195 41.7026 47.8273 41.6082L46.5095 40.2795C46.4296 40.1994 46.4872 40.0641 46.6 40.0642L50.0096 40.0676C50.1265 40.0677 50.1818 40.2134 50.0914 40.2913L48.5207 41.6396C48.4098 41.7359 48.3461 41.8733 48.3459 42.021L48.345 42.9975C49.301 42.9739 50.2264 42.7532 51.0351 42.3581C51.1193 42.3171 51.2198 42.3521 51.2607 42.4363C51.3017 42.5204 51.2667 42.6209 51.1825 42.6619C50.2794 43.1061 49.235 43.339 48.162 43.3379C47.0891 43.3368 46.0656 43.104 45.1675 42.6682C45.0875 42.6291 45.0466 42.5368 45.0774 42.4547L45.0775 42.4506Z" fill="#66428F"/>
<path d="M47.6116 41.4951C47.6321 41.4952 47.6526 41.487 47.6691 41.4726C47.7964 41.3538 47.8683 41.1856 47.8685 41.0112C47.8689 40.6625 47.586 40.377 47.2352 40.3767C47.067 40.3765 46.9069 40.442 46.7878 40.5609C46.755 40.5937 46.7549 40.647 46.7877 40.6799C46.8205 40.7127 46.8738 40.7128 46.9067 40.68C46.995 40.5919 47.112 40.5448 47.2351 40.5449C47.4915 40.5452 47.6985 40.7526 47.6982 41.009C47.6981 41.1383 47.6467 41.2572 47.5522 41.3474C47.5173 41.3802 47.5173 41.4335 47.548 41.4664C47.5644 41.4848 47.587 41.4931 47.6095 41.4931L47.6116 41.4951Z" fill="#EDE4DC"/>
<path d="M48.7195 41.4778C48.74 41.4779 48.7605 41.4697 48.7769 41.4553C48.8118 41.4225 48.8119 41.3692 48.7812 41.3363C48.693 41.2419 48.648 41.1187 48.6564 40.9895C48.673 40.7351 48.8927 40.5405 49.1492 40.5551C49.2722 40.5634 49.3871 40.6189 49.467 40.7113C49.4977 40.7462 49.5511 40.7504 49.586 40.7196C49.6209 40.6889 49.625 40.6356 49.5943 40.6007C49.4816 40.4734 49.3278 40.3973 49.1596 40.3869C48.8108 40.364 48.509 40.6303 48.4881 40.9791C48.4777 41.1535 48.5391 41.3238 48.658 41.4511C48.6743 41.4696 48.6969 41.4778 48.7195 41.4778Z" fill="#EDE4DC"/>
<path d="M38.4964 39.8818C37.6844 41.6227 38.06 43.5187 39.3395 44.1149C40.617 44.7111 42.3125 43.7835 43.1266 42.0425C43.9407 40.3016 43.5631 38.4056 42.2835 37.8094C41.006 37.2132 39.3085 38.1409 38.4964 39.8818Z" fill="#5F4390"/>
<path d="M57.8211 39.9009C58.6297 41.6435 58.2503 43.5387 56.9696 44.1324C55.6909 44.726 53.9973 43.795 53.1866 42.0525C52.3759 40.3099 52.7574 38.4147 54.0381 37.821C55.3168 37.2274 57.0104 38.1584 57.8211 39.9009Z" fill="#5F4390"/>
<path d="M57.0992 40.4442C57.5002 41.6427 57.1112 42.8527 56.2308 43.1452C55.3504 43.4398 54.3131 42.7063 53.9122 41.5079C53.5113 40.3094 53.9002 39.0994 54.7806 38.8069C55.661 38.5123 56.6983 39.2458 57.0972 40.4442" fill="#E8E1D9"/>
<path d="M56.3256 40.4229C56.6757 41.1761 56.5108 41.9924 55.9587 42.2504C55.4065 42.5063 54.6766 42.1055 54.3265 41.3523C53.9765 40.599 54.1414 39.7827 54.6935 39.5247C55.2456 39.2688 55.9776 39.6696 56.3256 40.4229Z" fill="#2E2C31"/>
<path d="M54.6084 40.6693C54.6082 40.854 54.7558 41.0018 54.9404 41.002C55.1251 41.0022 55.2729 40.8546 55.2731 40.67C55.2733 40.4854 55.1237 40.3375 54.9411 40.3373C54.7585 40.3371 54.6086 40.4847 54.6084 40.6693Z" fill="white"/>
<path d="M39.201 40.4261C38.7977 41.6237 39.1842 42.8345 40.064 43.1288C40.9438 43.4251 41.9826 42.6937 42.3838 41.496C42.7871 40.2983 42.4006 39.0876 41.5208 38.7933C40.641 38.497 39.6022 39.2284 39.1989 40.4261" fill="#E8E1D9"/>
<path d="M39.9871 40.4065C39.6356 41.159 39.7989 41.9757 40.3505 42.2347C40.9021 42.4917 41.6328 42.0924 41.9844 41.3398C42.3359 40.5873 42.1726 39.7706 41.621 39.5116C41.0694 39.2546 40.3366 39.6539 39.9871 40.4065Z" fill="#2E2C31"/>
<path d="M41.7043 40.6563C41.7041 40.841 41.5562 40.9885 41.3716 40.9883C41.1869 40.9881 41.0394 40.8403 41.0396 40.6557C41.0398 40.471 41.1897 40.3235 41.3722 40.3236C41.5548 40.3238 41.7044 40.4717 41.7043 40.6563Z" fill="white"/>
<path d="M63.6787 46.1287C63.6787 46.1287 63.8648 46.7013 64.0489 47.2841C64.2329 47.8669 63.6654 47.1052 63.6654 47.1052L63.6787 46.1287Z" fill="#66428F"/>
<path d="M32.6784 46.1021C32.6784 46.1021 32.4973 46.6497 32.3512 47.146C32.205 47.6423 32.7144 47.0705 32.7144 47.0705L32.6784 46.1021Z" fill="#66428F"/>
<path d="M58.6854 37.6491C58.6854 37.6491 64.2933 36.5263 61.6761 33.904C59.0589 31.2816 57.6155 36.6551 57.6155 36.6551L58.6854 37.6491Z" fill="#66428F"/>
<path d="M59.4505 36.0376C60.1236 35.8044 60.7147 35.5096 60.9488 35.2718C60.9838 35.237 60.99 35.1836 60.9633 35.1426C60.9183 35.0748 60.8445 34.9804 60.7215 34.8572C60.5248 34.66 60.3915 34.582 60.3239 34.5511C60.2972 34.5388 60.2685 34.5367 60.2438 34.551C59.9975 34.6718 59.6318 35.2315 59.3275 35.9C59.2905 35.982 59.3684 36.0662 59.4525 36.0376L59.4505 36.0376Z" fill="#EDE4DC"/>
<path d="M37.6698 37.6283C37.6698 37.6283 32.0641 36.4944 34.6865 33.8772C37.3089 31.26 38.7417 36.6364 38.7417 36.6364L37.6698 37.6283Z" fill="#66428F"/>
<path d="M36.91 36.0149C36.2373 35.7804 35.6467 35.4844 35.4131 35.2462C35.3783 35.2113 35.3722 35.1579 35.3989 35.1169C35.4441 35.0493 35.518 34.955 35.6412 34.832C35.8384 34.6352 35.9718 34.5574 36.0395 34.5267C36.0662 34.5144 36.0949 34.5124 36.1195 34.5268C36.3656 34.6481 36.7302 35.2085 37.0332 35.8776C37.07 35.9597 36.992 36.0437 36.9079 36.0149L36.91 36.0149Z" fill="#EDE4DC"/>
<g opacity="0.54">
<path d="M48.0822 26.3283C38.516 26.3188 30.7257 33.2164 30.7173 41.7014C30.7089 50.1865 38.4854 57.0996 48.0516 57.1091C57.6178 57.1186 65.4081 50.221 65.4165 41.736C65.425 33.2509 57.6484 26.3378 48.0822 26.3283ZM48.0833 25.2348C58.269 25.245 66.519 32.6345 66.51 41.737C66.5009 50.8396 58.2363 58.2127 48.0505 58.2026C37.8648 58.1924 29.6148 50.805 29.6239 41.7004C29.6329 32.5958 37.8976 25.2247 48.0833 25.2348Z" fill="#E9E8E9"/>
</g>
<g opacity="0.19">
<path d="M47.5342 57.702C37.3597 57.3632 29.3498 49.9338 29.6437 41.108C29.9376 32.2821 38.4239 25.402 48.5984 25.7407C58.7729 26.0795 66.7828 33.5089 66.4889 42.3347C66.1951 51.1606 57.7087 58.0407 47.5342 57.702Z" fill="white"/>
</g>
<path d="M65.0222 48.2169C65.0222 48.2169 70.1148 61.8707 57.6758 77.0908C57.6758 77.0908 60.0965 79.1755 59.1384 79.2833C58.1822 79.3911 51.1075 76.3662 51.1075 76.3662L48.0564 72.8305L45.3018 76.3523L37.378 79.2637C37.378 79.2637 37.1954 79.2943 38.9787 76.7255C38.9787 76.7255 25.8636 66.1472 31.3073 48.5917C31.3073 48.5917 33.1683 54.5511 49.4696 54.4791C49.4696 54.4791 58.9216 53.7766 65.0243 48.2128L65.0222 48.2169Z" fill="url(#paint0_linear_31_2493)"/>
<path style="mix-blend-mode:screen" opacity="0.79" d="M47.7963 54.5079C47.0107 56.3657 40.6207 55.9511 36.5186 50.847C33.0026 46.4738 32.117 39.6824 33.869 39.6082C34.345 39.5882 35.91 46.0684 40.4862 48.822C45.3823 51.7708 49.0897 51.4462 47.7963 54.5058L47.7963 54.5079Z" fill="url(#paint1_linear_31_2493)"/>
<g style="mix-blend-mode:screen" opacity="0.43">
<path d="M38.4819 32.123C38.2907 30.4632 43.9769 26.9423 49.8844 27.7852C54.9468 28.5082 58.8799 32.3423 57.4058 33.4281C57.0075 33.7232 52.6369 30.4918 47.4169 31.4364C41.8317 32.4484 38.7972 34.8539 38.4819 32.123Z" fill="white"/>
</g>
<path d="M65.3617 49.3803C65.3617 49.3803 66.381 47.6498 64.7158 46.9548C64.7158 46.9548 64.1678 47.2763 62.3588 48.848C62.3588 48.848 57.2085 54.0004 43.3419 52.3331C43.3419 52.3331 35.2326 52.0932 32.4333 46.8611C32.4333 46.8611 30.3125 46.4549 30.5866 49.3457C30.5866 49.3457 34.404 55.9964 50.4809 54.7364C50.4809 54.7364 60.0838 54.8998 65.3596 49.3803L65.3617 49.3803Z" fill="#66428F"/>
<path d="M65.6703 48.2172C65.6703 48.2172 65.6812 49.641 65.0466 50.2742C65.0466 50.2742 58.7411 57.6903 38.4103 53.9589C38.4103 53.9589 32.9525 52.698 30.5883 49.3455C30.5883 49.3455 30.5255 48.5577 30.8322 47.5938C30.8322 47.5938 33.235 53.2747 43.6826 53.9847C43.6826 53.9847 61.6567 55.2212 65.6703 48.2193L65.6703 48.2172Z" fill="#512B83"/>
<path d="M39.7963 52.9486C40.9093 51.8932 55.5385 52.0124 57.1213 52.9659C58.7041 53.9194 58.8077 67.3076 57.5636 68.2008C56.3195 69.0961 40.3734 68.8156 39.5843 68.0968C38.1086 66.7516 38.6833 54.002 39.7963 52.9486Z" fill="url(#paint2_linear_31_2493)"/>
<path d="M39.7968 52.1431C40.9091 51.7134 55.5384 51.7711 57.1218 52.1604C58.7051 52.5497 58.8166 58.0068 57.5731 58.3687C56.3295 58.7326 40.3832 58.6101 39.5937 58.3159C38.1171 57.7667 38.6844 52.5708 39.7968 52.1431Z" fill="url(#paint3_linear_31_2493)"/>
<g style="mix-blend-mode:screen" opacity="0.3">
<path d="M58.4103 56.0711C58.3523 54.5878 57.925 53.0775 57.1231 52.8818C55.5417 52.4925 40.9084 52.4369 39.7981 52.8646C39.2152 53.0897 38.7808 54.6299 38.7137 56.1213C38.6415 54.4472 39.1195 52.4044 39.7988 52.1404C40.9091 51.7127 55.5425 51.7683 57.1238 52.1576C58.0591 52.3883 58.4817 54.3951 58.4103 56.0711Z" fill="#636262"/>
</g>
</g>
<rect width="6.77208" height="3.38604" rx="1.56442" transform="matrix(-1 -8.74228e-08 -8.74228e-08 1 88.9375 32.6963)" fill="#81D7E3"/>
<rect width="20.3162" height="3.38604" rx="1.56442" transform="matrix(-1 -8.74228e-08 -8.74228e-08 1 88.9375 37.2113)" fill="#81D7E3"/>
<rect width="19.1876" height="7.90076" rx="1.56442" transform="matrix(-1 -8.74228e-08 -8.74228e-08 1 88.9375 41.7258)" fill="#81D7E3"/>
<defs>
<linearGradient id="paint0_linear_31_2493" x1="29.9773" y1="63.7223" x2="66.0448" y2="63.7582" gradientUnits="userSpaceOnUse">
<stop stop-color="#E3D9E4"/>
<stop offset="1" stop-color="#F6F3F8"/>
</linearGradient>
<linearGradient id="paint1_linear_31_2493" x1="33.5364" y1="37.8703" x2="43.6648" y2="54.2617" gradientUnits="userSpaceOnUse">
<stop stop-color="white"/>
<stop offset="1" stop-color="white" stop-opacity="0"/>
</linearGradient>
<linearGradient id="paint2_linear_31_2493" x1="38.6995" y1="60.4745" x2="58.4145" y2="60.4942" gradientUnits="userSpaceOnUse">
<stop stop-color="#E3D9E4"/>
<stop offset="1" stop-color="#F6F3F8"/>
</linearGradient>
<linearGradient id="paint3_linear_31_2493" x1="38.7044" y1="55.2091" x2="58.4194" y2="55.2287" gradientUnits="userSpaceOnUse">
<stop stop-color="#E3D9E4"/>
<stop offset="1" stop-color="#F6F3F8"/>
</linearGradient>
</defs>
</svg>
