<svg width="18" height="22" viewBox="0 0 18 22" fill="none" xmlns="http://www.w3.org/2000/svg">
<path d="M17.7888 2.22153C17.7888 1.65479 17.5637 1.11127 17.1629 0.710531C16.7622 0.30979 16.2187 0.0846558 15.6519 0.0846558H7.10446L0.693848 6.49527V19.3165C0.693848 19.8832 0.918982 20.4268 1.31972 20.8275C1.72046 21.2282 2.26399 21.4534 2.83072 21.4534H15.6519C16.2187 21.4534 16.7622 21.2282 17.1629 20.8275C17.5637 20.4268 17.7888 19.8832 17.7888 19.3165V2.22153ZM6.03603 18.2481H3.89915V16.1112H6.03603V18.2481ZM14.5835 18.2481H12.4466V16.1112H14.5835V18.2481ZM6.03603 13.9743H3.89915V9.70058H6.03603V13.9743ZM10.3098 18.2481H8.1729V13.9743H10.3098V18.2481ZM10.3098 11.8374H8.1729V9.70058H10.3098V11.8374ZM14.5835 13.9743H12.4466V9.70058H14.5835V13.9743Z" fill="#F8F8F8"/>
</svg>
