<svg width="19" height="29" viewBox="0 0 19 29" fill="none" xmlns="http://www.w3.org/2000/svg">
<path d="M14.1056 2.97681C14.4819 2.97681 14.7876 2.67293 14.7882 2.29603C14.7882 1.91975 14.4837 1.61402 14.1074 1.6134C13.7312 1.6134 13.4254 1.91789 13.4248 2.29418C13.4248 2.67046 13.7293 2.97619 14.1056 2.97681Z" fill="black"/>
<path d="M16.0449 3.16628L2.81434 3.14709C2.45538 3.14709 2.16451 3.43673 2.16389 3.79569L2.13232 25.3731C2.13232 25.7321 2.42196 26.0229 2.78092 26.0236L16.0114 26.0427C16.3704 26.0427 16.6613 25.7531 16.6619 25.3942L16.6934 3.81673C16.6934 3.45777 16.4038 3.1669 16.0449 3.16628V3.16628Z" fill="#BAA5DB"/>
<path d="M7.56306 1.74528C7.58101 1.749 7.5971 1.75642 7.61072 1.76756C7.62433 1.7787 7.63361 1.7917 7.6398 1.80717C7.64537 1.82264 7.64723 1.83997 7.64599 1.85978C7.64414 1.87958 7.63671 1.90001 7.62433 1.92167C7.61134 1.9458 7.59586 1.96189 7.57853 1.96994C7.56121 1.97798 7.54573 1.97798 7.53274 1.96994C7.51974 1.96189 7.51231 1.94828 7.51046 1.92971C7.5086 1.91115 7.51293 1.8932 7.52283 1.87463C7.53274 1.8573 7.54635 1.84492 7.56244 1.83812C7.57853 1.83069 7.59339 1.83131 7.607 1.83997C7.60762 1.82698 7.60329 1.81522 7.59277 1.8047C7.58287 1.79418 7.56678 1.78675 7.54573 1.78304C7.52098 1.77932 7.49746 1.78427 7.4758 1.79789C7.45414 1.8115 7.43805 1.83007 7.42876 1.85297C7.41762 1.87834 7.41824 1.90372 7.43062 1.92785C7.443 1.95199 7.46342 1.97365 7.49189 1.99222C7.53026 2.01636 7.55811 2.04544 7.57482 2.07948C7.59153 2.11352 7.59153 2.15251 7.57482 2.19707C7.56554 2.22059 7.55192 2.24225 7.53398 2.26267C7.51603 2.28309 7.49499 2.30042 7.47085 2.31404C7.44671 2.32827 7.42072 2.33818 7.39225 2.34375C7.36378 2.34993 7.33469 2.35055 7.30499 2.3456C7.28209 2.34189 7.26352 2.33322 7.24743 2.32023C7.23196 2.30723 7.2202 2.29114 7.21277 2.27319C7.20535 2.25525 7.20163 2.23544 7.20287 2.21378C7.20411 2.19212 7.20968 2.1717 7.21958 2.15189C7.23072 2.13023 7.24496 2.1129 7.2629 2.10114C7.28085 2.08938 7.29756 2.08753 7.31365 2.09681C7.32665 2.10424 7.33407 2.11785 7.33593 2.13642C7.33779 2.15499 7.33346 2.17355 7.32355 2.19088C7.31427 2.20759 7.30189 2.21935 7.28704 2.22616C7.27219 2.23358 7.25795 2.2342 7.24495 2.22925C7.24248 2.24349 7.24929 2.25834 7.26476 2.27257C7.28023 2.28743 7.30004 2.29733 7.32479 2.3029C7.33717 2.30599 7.35017 2.30599 7.3644 2.3029C7.37863 2.2998 7.39225 2.29485 7.40525 2.28743C7.41824 2.28 7.43 2.2701 7.44052 2.25834C7.45104 2.24658 7.45909 2.23358 7.46528 2.21811C7.47642 2.18779 7.47456 2.16241 7.45971 2.14137C7.44485 2.12033 7.42072 2.09743 7.38544 2.07206C7.36811 2.05968 7.35326 2.04544 7.34212 2.02811C7.33036 2.01079 7.32232 1.99222 7.31737 1.9718C7.31241 1.95137 7.3118 1.93095 7.31427 1.90991C7.31675 1.88887 7.32417 1.86782 7.33593 1.84802C7.34707 1.82821 7.36069 1.81089 7.37802 1.79603C7.39534 1.78118 7.41391 1.7688 7.43433 1.76014C7.45476 1.75147 7.47642 1.74528 7.49808 1.74281C7.52036 1.74033 7.54202 1.74095 7.56306 1.7459V1.74528Z" fill="white"/>
<path d="M7.90275 1.89277C7.92875 1.89277 7.95103 1.89834 7.96898 1.9101C7.98692 1.92186 7.99992 1.93795 8.00796 1.95837C8.01601 1.97879 8.0191 2.00231 8.01787 2.02954C8.01663 2.05677 8.00982 2.08586 7.99806 2.11681C7.98507 2.15208 7.96898 2.18365 7.94979 2.21088C7.9306 2.23873 7.90956 2.26163 7.88666 2.28143C7.86376 2.30123 7.83901 2.31609 7.81363 2.32599C7.78764 2.33589 7.76103 2.34146 7.73318 2.34084C7.70533 2.34084 7.68429 2.33527 7.66634 2.32351C7.64901 2.31175 7.63601 2.29566 7.62797 2.27524C7.61992 2.25482 7.61683 2.23068 7.61869 2.20345C7.62054 2.17622 7.62735 2.14651 7.63911 2.11557C7.66696 2.04378 7.70347 1.9887 7.74927 1.95033C7.79507 1.91134 7.84582 1.89215 7.90275 1.89215V1.89277ZM7.8749 2.11866C7.88357 2.09515 7.891 2.07348 7.89657 2.05244C7.90214 2.0314 7.90585 2.01283 7.90709 1.99674C7.90832 1.98065 7.90771 1.96765 7.90523 1.95775C7.90214 1.94785 7.89657 1.9429 7.8879 1.9429C7.87924 1.9429 7.86933 1.94785 7.85819 1.95775C7.84705 1.96765 7.83591 1.98065 7.82478 1.99674C7.81364 2.01283 7.80249 2.0314 7.79135 2.05244C7.78021 2.07348 7.77031 2.09576 7.76165 2.11866C7.75298 2.14094 7.74556 2.1626 7.73999 2.18365C7.7338 2.20407 7.7307 2.22264 7.72947 2.23811C7.72823 2.2542 7.72947 2.26658 7.73318 2.27586C7.73689 2.28514 7.74308 2.29009 7.75175 2.29009C7.76041 2.29009 7.77031 2.28514 7.78083 2.27586C7.79135 2.26658 7.8025 2.25358 7.81302 2.23811C7.82416 2.22264 7.83468 2.20407 7.84582 2.18365C7.85696 2.16322 7.86686 2.14156 7.87552 2.11866H7.8749Z" fill="white"/>
<path d="M8.47358 1.90247C8.46739 1.91671 8.4612 1.93342 8.45316 1.95198C8.44573 1.97055 8.43768 1.99097 8.42902 2.01263C8.42036 2.03429 8.41231 2.05657 8.40303 2.07947C8.39436 2.10237 8.3857 2.12465 8.37642 2.14693C8.35661 2.1983 8.33557 2.25152 8.31267 2.30722C8.28482 2.38025 8.24831 2.43595 8.20189 2.47432C8.15609 2.51269 8.10472 2.53188 8.04903 2.53188C8.02551 2.53188 8.00694 2.52631 7.99271 2.51455C7.97847 2.50341 7.96919 2.48856 7.96362 2.47123C7.95867 2.4539 7.95743 2.43471 7.96114 2.41367C7.96424 2.39263 7.97167 2.37159 7.9828 2.35178C7.99333 2.33445 8.00447 2.3196 8.01808 2.3066C8.01127 2.29361 8.00818 2.27875 8.0088 2.26081C8.0088 2.24286 8.01437 2.22244 8.02365 2.1983C8.02736 2.18902 8.03293 2.1754 8.04036 2.15683C8.04779 2.13827 8.05645 2.11908 8.0645 2.09866C8.07254 2.07824 8.08059 2.05905 8.0874 2.0411C8.0942 2.02315 8.09915 2.00954 8.10225 2.00149C8.10906 1.98664 8.10968 1.97426 8.10534 1.96498C8.10101 1.9557 8.09049 1.95074 8.07378 1.95074H8.06264L8.08554 1.90185C8.09111 1.90062 8.0973 1.89876 8.10411 1.89752C8.10968 1.89628 8.11586 1.89505 8.12267 1.89443C8.12948 1.89381 8.13629 1.89319 8.14433 1.89319C8.1858 1.89319 8.21179 1.90495 8.22231 1.92908C8.23283 1.9526 8.22788 1.98973 8.20746 2.03925C8.20313 2.05039 8.19694 2.06586 8.18951 2.08566C8.18209 2.10547 8.17404 2.12465 8.16599 2.14446C8.15733 2.16735 8.14805 2.19025 8.13876 2.21439C8.13443 2.22739 8.13443 2.23667 8.13876 2.24348C8.1431 2.24967 8.1499 2.25338 8.15919 2.25338C8.16847 2.25338 8.17899 2.2509 8.19137 2.24472C8.20375 2.23853 8.21551 2.22924 8.22603 2.21625L8.35104 1.90185H8.47234L8.47358 1.90247ZM8.09111 2.34188C8.07502 2.34188 8.0614 2.3394 8.04964 2.33507C8.04036 2.34312 8.03108 2.35426 8.02241 2.36787C8.01375 2.38149 8.00694 2.39944 8.00261 2.4211C7.99828 2.43966 8.00075 2.45452 8.00942 2.46566C8.0187 2.4768 8.03046 2.48175 8.04469 2.48237C8.05893 2.48299 8.07254 2.47742 8.08678 2.46628C8.10101 2.45575 8.11463 2.44214 8.127 2.42543C8.14 2.40872 8.15176 2.39015 8.1629 2.36973C8.17404 2.34931 8.1827 2.32826 8.19013 2.30784C8.17404 2.31836 8.15795 2.32641 8.14124 2.3326C8.12453 2.33879 8.10782 2.34126 8.09111 2.34126V2.34188Z" fill="white"/>
<path d="M9.24912 1.75836C9.2157 1.80106 9.18166 1.845 9.14639 1.89204C9.11111 1.93845 9.07707 1.98301 9.04489 2.02448C9.01271 2.06594 8.98362 2.10431 8.95763 2.13835C8.93163 2.17239 8.91121 2.19838 8.8976 2.21633C8.87346 2.24789 8.84994 2.27079 8.82766 2.28379C8.80476 2.29679 8.78434 2.30112 8.76701 2.29617C8.74968 2.29122 8.73545 2.2776 8.72493 2.25532C8.71441 2.23304 8.71007 2.2021 8.71131 2.16311C8.71131 2.15135 8.71131 2.13092 8.71317 2.10122C8.71441 2.07151 8.71564 2.03809 8.71688 2.00034C8.71812 1.96259 8.71936 1.92298 8.72059 1.88151C8.72183 1.84005 8.72307 1.80106 8.72431 1.76454L8.5405 2.22809C8.52688 2.26337 8.52503 2.28812 8.53431 2.30174C8.54421 2.31535 8.56711 2.31721 8.60363 2.30793L8.57082 2.37724C8.56154 2.38095 8.55226 2.38343 8.54174 2.38591C8.53245 2.38838 8.52255 2.39024 8.51079 2.39209C8.49965 2.39395 8.48789 2.39333 8.47675 2.39148C8.45509 2.38776 8.44024 2.37662 8.43158 2.35682C8.42291 2.33701 8.42415 2.31411 8.43405 2.28688L8.70388 1.61106C8.71193 1.59126 8.71564 1.57517 8.71564 1.56341C8.70327 1.5467 8.68284 1.53865 8.65561 1.53865H8.63828L8.64509 1.46253C8.65314 1.46005 8.66242 1.45758 8.67232 1.45572C8.68161 1.45325 8.69089 1.45139 8.70079 1.45077C8.71069 1.44953 8.72183 1.44891 8.73421 1.44891C8.79919 1.44891 8.84623 1.46748 8.87593 1.50461C8.90564 1.54175 8.91926 1.59992 8.91678 1.67914L8.90255 2.08451L9.30544 1.55722C9.29616 1.54546 9.28069 1.53927 9.25902 1.53927H9.2417L9.27635 1.46315C9.28564 1.46067 9.29492 1.45882 9.30544 1.45634C9.31472 1.45386 9.32463 1.45201 9.33515 1.45139C9.34567 1.45015 9.35743 1.44953 9.37042 1.44953C9.43541 1.44953 9.47625 1.4681 9.49296 1.50523C9.50967 1.54237 9.50163 1.60054 9.46944 1.67976L9.26831 2.19096C9.25902 2.21447 9.26026 2.23118 9.2714 2.2417C9.28254 2.25161 9.29863 2.2547 9.31844 2.25037C9.33824 2.24604 9.3599 2.2349 9.3828 2.21695C9.4057 2.19838 9.42427 2.17363 9.43912 2.14206L9.46821 2.19158C9.45645 2.22004 9.44098 2.24604 9.42117 2.27017C9.40137 2.29431 9.37909 2.31597 9.35433 2.33454C9.32958 2.3531 9.30358 2.36796 9.27573 2.37848C9.24788 2.389 9.22003 2.39457 9.1928 2.39457C9.16557 2.39457 9.14206 2.38962 9.12163 2.3791C9.10183 2.3692 9.08636 2.35434 9.07645 2.33578C9.06655 2.31659 9.0616 2.29307 9.06284 2.26522C9.06408 2.23675 9.07212 2.20457 9.08697 2.16806L9.2485 1.75897L9.24912 1.75836Z" fill="white"/>
<path d="M9.88129 1.68659C9.92214 1.68659 9.9568 1.69588 9.98465 1.71444C10.0125 1.73301 10.0329 1.75776 10.0453 1.78995C10.0577 1.82213 10.0626 1.85926 10.0608 1.90135C10.0583 1.94405 10.0484 1.98923 10.0298 2.0375C10.0094 2.0932 9.98403 2.14209 9.95432 2.18541C9.92461 2.22874 9.89181 2.26525 9.85592 2.29619C9.82002 2.32652 9.78165 2.35004 9.74142 2.36613C9.7012 2.38222 9.65911 2.38965 9.61579 2.38965C9.57247 2.38965 9.53905 2.38036 9.5112 2.3618C9.48397 2.34323 9.46416 2.31847 9.45117 2.28629C9.43879 2.25411 9.43384 2.21698 9.43693 2.17366C9.44003 2.13033 9.45055 2.08515 9.4685 2.03626C9.51182 1.92424 9.56937 1.8376 9.64055 1.77695C9.71172 1.7163 9.79217 1.68597 9.88129 1.68597V1.68659ZM9.83797 2.03998C9.85159 2.00346 9.86273 1.9688 9.87139 1.936C9.88005 1.9032 9.88562 1.87412 9.8881 1.84874C9.89058 1.82337 9.88934 1.80294 9.88501 1.78809C9.88067 1.77262 9.87139 1.76519 9.85777 1.76519C9.84416 1.76519 9.82869 1.77262 9.81136 1.78809C9.79403 1.80356 9.7767 1.82399 9.75937 1.84874C9.74142 1.87412 9.72409 1.9032 9.70677 1.936C9.68944 1.9688 9.67397 2.00346 9.66035 2.03998C9.64673 2.07525 9.63498 2.10929 9.62569 2.14147C9.61641 2.17366 9.61084 2.20212 9.6096 2.22688C9.60774 2.25163 9.6096 2.27144 9.61579 2.28629C9.62136 2.30115 9.63126 2.30857 9.64488 2.30857C9.65849 2.30857 9.67335 2.30115 9.69006 2.28691C9.70677 2.27206 9.72348 2.25225 9.7408 2.22812C9.75813 2.20336 9.77546 2.17489 9.79217 2.14271C9.8095 2.11053 9.82497 2.07649 9.83859 2.04121L9.83797 2.03998Z" fill="white"/>
<path d="M10.8791 2.19089C10.8698 2.21317 10.871 2.22926 10.8822 2.23854C10.8933 2.24783 10.9088 2.25092 10.9286 2.24721C10.9478 2.24349 10.9694 2.23297 10.9929 2.21564C11.0165 2.1977 11.0356 2.17294 11.0505 2.14138L11.0796 2.19089C11.0684 2.21936 11.0524 2.24535 11.0326 2.26949C11.0127 2.29362 10.9905 2.31466 10.9657 2.33199C10.941 2.34994 10.915 2.36356 10.8871 2.37408C10.8593 2.3846 10.8314 2.39017 10.8042 2.39017C10.7485 2.39017 10.7095 2.37098 10.6878 2.33323C10.6662 2.29548 10.6705 2.23916 10.7002 2.16489L10.8104 1.88887C10.8172 1.87092 10.8178 1.85731 10.8128 1.84803C10.8079 1.83874 10.7986 1.83317 10.7862 1.83132C10.7739 1.82946 10.759 1.83132 10.7417 1.8375C10.7243 1.84369 10.7083 1.8536 10.6922 1.86783C10.6897 1.87464 10.6872 1.88206 10.6841 1.88887C10.681 1.89568 10.6785 1.90373 10.6767 1.91177L10.5529 2.22121C10.5436 2.24597 10.5424 2.26577 10.5492 2.27939C10.556 2.29362 10.5721 2.30043 10.5969 2.30043H10.6142L10.5795 2.37655C10.5702 2.37903 10.561 2.3815 10.5504 2.38336C10.5331 2.38707 10.5121 2.38831 10.4873 2.38831C10.4223 2.38831 10.3815 2.36975 10.3654 2.33323C10.3487 2.29672 10.3567 2.23916 10.3889 2.1618C10.3957 2.14509 10.405 2.12157 10.4161 2.09125C10.4273 2.0603 10.4397 2.02998 10.452 1.99903C10.4657 1.96376 10.4805 1.92662 10.4966 1.88763C10.5034 1.86969 10.5034 1.85607 10.4972 1.84617C10.491 1.83627 10.4817 1.83008 10.4687 1.82822C10.4564 1.82636 10.4415 1.82884 10.4242 1.83627C10.4069 1.84307 10.3901 1.85421 10.3728 1.86969C10.3703 1.87649 10.3679 1.88392 10.3648 1.89073C10.3617 1.89754 10.3592 1.90558 10.3573 1.91363C10.3505 1.93219 10.3406 1.95757 10.3283 1.98789C10.3159 2.01884 10.3035 2.04978 10.2911 2.08073C10.2794 2.11229 10.2682 2.14076 10.2577 2.16675C10.2472 2.19274 10.2404 2.21069 10.2373 2.21998C10.2268 2.24473 10.2255 2.26454 10.2323 2.27815C10.2391 2.29238 10.2558 2.29919 10.2818 2.29919H10.2992L10.2633 2.37532C10.254 2.37779 10.2447 2.38027 10.2342 2.38212C10.2169 2.38584 10.1958 2.38707 10.1711 2.38707C10.1061 2.38707 10.0659 2.36851 10.0498 2.33199C10.0337 2.29548 10.0411 2.23792 10.072 2.15994C10.0788 2.14138 10.0881 2.11724 10.0993 2.08939C10.1104 2.06092 10.1228 2.03183 10.1345 2.00151C10.1463 1.97118 10.1574 1.94333 10.168 1.91672C10.1785 1.89011 10.1872 1.86907 10.194 1.8536C10.2032 1.83008 10.2045 1.81089 10.1977 1.79604C10.1909 1.78119 10.1748 1.77376 10.15 1.77376H10.1327L10.1673 1.69764C10.1766 1.69516 10.1859 1.69269 10.1964 1.69083C10.2057 1.68835 10.215 1.6865 10.2255 1.68588C10.236 1.68464 10.2472 1.68402 10.2596 1.68402C10.3351 1.68402 10.3778 1.71001 10.3877 1.762C10.4149 1.73848 10.4446 1.71992 10.4768 1.70568C10.509 1.69145 10.5405 1.68464 10.5727 1.68464C10.6427 1.68464 10.6841 1.71187 10.6977 1.76633C10.725 1.74158 10.7553 1.72177 10.7875 1.70692C10.8203 1.69207 10.8525 1.68464 10.8859 1.68464C10.9416 1.68464 10.9806 1.70383 11.001 1.74158C11.022 1.77933 11.0183 1.83565 10.9898 1.90991L10.8797 2.18779L10.8791 2.19089Z" fill="white"/>
<path d="M11.4905 1.68922C11.5314 1.68922 11.566 1.6985 11.5939 1.71707C11.6217 1.73563 11.6422 1.76039 11.6545 1.79257C11.6669 1.82475 11.6719 1.86189 11.67 1.90397C11.6675 1.94667 11.657 1.99185 11.6391 2.04013C11.6186 2.09582 11.5933 2.14472 11.5636 2.18804C11.5339 2.23136 11.5011 2.26787 11.4652 2.29882C11.4293 2.32914 11.3909 2.35266 11.3507 2.36875C11.3104 2.38484 11.2684 2.39289 11.225 2.39227C11.1817 2.39227 11.1483 2.38299 11.1204 2.36442C11.0932 2.34585 11.0734 2.3211 11.061 2.28892C11.0487 2.25673 11.0437 2.2196 11.0468 2.17628C11.0499 2.13296 11.0604 2.08778 11.0784 2.03889C11.1217 1.92687 11.1792 1.84023 11.251 1.77957C11.3222 1.71892 11.4027 1.6886 11.4918 1.6886L11.4905 1.68922ZM11.4472 2.0426C11.4608 2.00609 11.472 1.97143 11.4806 1.93863C11.4893 1.90583 11.4949 1.87674 11.4973 1.85137C11.4998 1.82599 11.4986 1.80557 11.4942 1.79071C11.4899 1.77524 11.4806 1.76782 11.467 1.76782C11.4534 1.76782 11.4379 1.77524 11.4206 1.79071C11.4033 1.80619 11.3859 1.82599 11.3686 1.85137C11.3507 1.87674 11.3333 1.90583 11.316 1.93863C11.2987 1.97143 11.2832 2.00609 11.2696 2.0426C11.256 2.07788 11.2442 2.11192 11.2349 2.1441C11.2257 2.17628 11.2201 2.20475 11.2188 2.2295C11.217 2.25426 11.2188 2.27406 11.225 2.28892C11.2306 2.30377 11.2405 2.3112 11.2541 2.3112C11.2677 2.3112 11.2826 2.30377 11.2993 2.28892C11.316 2.27406 11.3327 2.25488 11.35 2.23012C11.3674 2.20537 11.3841 2.1769 11.4014 2.14472C11.4187 2.11253 11.4342 2.0785 11.4478 2.04322L11.4472 2.0426Z" fill="white"/>
<path d="M6.1702 0.87143C5.14532 0.820063 3.50775 0.789119 2.92353 0.674625C2.46246 0.674006 1.58179 0.756937 0.930099 1.57325C0.699255 1.97119 0.405285 2.2435 0.527824 4.31924C0.650363 6.39498 0.943096 9.68188 0.860165 13.6916C0.809417 16.1449 0.711633 21.7006 0.711633 21.7006L0.63551 23.556C0.63551 23.556 0.116885 27.1505 1.26863 27.9705C2.42099 28.7899 3.02874 28.707 3.8042 28.6662C4.57781 28.6253 8.10545 28.4217 9.39273 28.444H9.39397H9.3983H9.40263H9.40387C10.6912 28.4267 14.2176 28.6402 14.9918 28.6829C15.7672 28.7256 16.3756 28.811 17.5298 27.9947C18.6847 27.179 18.1753 23.582 18.1753 23.582L18.1048 21.726C18.1048 21.726 18.0237 16.1696 17.9804 13.7164C17.9092 9.70601 18.2112 6.42035 18.34 4.34523C18.4687 2.26949 18.1759 1.99718 17.9457 1.598C17.2971 0.779835 16.4165 0.694429 15.9554 0.69381C15.3705 0.805829 13.733 0.831822 12.7081 0.881333" fill="white"/>
<path d="M14.1056 2.97681C14.4819 2.97681 14.7876 2.67293 14.7882 2.29603C14.7882 1.91975 14.4837 1.61402 14.1074 1.6134C13.7312 1.6134 13.4254 1.91789 13.4248 2.29418C13.4248 2.67046 13.7293 2.97619 14.1056 2.97681Z" fill="#603BB0"/>
<path d="M16.0449 3.16628L2.81434 3.14709C2.45538 3.14709 2.16451 3.43673 2.16389 3.79569L2.13232 25.3731C2.13232 25.7321 2.42196 26.0229 2.78092 26.0236L16.0114 26.0427C16.3704 26.0427 16.6613 25.7531 16.6619 25.3942L16.6934 3.81673C16.6934 3.45777 16.4038 3.1669 16.0449 3.16628Z" fill="#A089D0"/>
<path d="M7.56306 1.74528C7.58101 1.749 7.5971 1.75642 7.61072 1.76756C7.62433 1.7787 7.63361 1.7917 7.6398 1.80717C7.64537 1.82264 7.64723 1.83997 7.64599 1.85978C7.64414 1.87958 7.63671 1.90001 7.62433 1.92167C7.61134 1.9458 7.59586 1.96189 7.57853 1.96994C7.56121 1.97798 7.54573 1.97798 7.53274 1.96994C7.51974 1.96189 7.51231 1.94828 7.51046 1.92971C7.5086 1.91115 7.51293 1.8932 7.52283 1.87463C7.53274 1.8573 7.54635 1.84492 7.56244 1.83812C7.57853 1.83069 7.59339 1.83131 7.607 1.83997C7.60762 1.82698 7.60329 1.81522 7.59277 1.8047C7.58287 1.79418 7.56678 1.78675 7.54573 1.78304C7.52098 1.77932 7.49746 1.78427 7.4758 1.79789C7.45414 1.8115 7.43805 1.83007 7.42876 1.85297C7.41762 1.87834 7.41824 1.90372 7.43062 1.92785C7.443 1.95199 7.46342 1.97365 7.49189 1.99222C7.53026 2.01636 7.55811 2.04544 7.57482 2.07948C7.59153 2.11352 7.59153 2.15251 7.57482 2.19707C7.56554 2.22059 7.55192 2.24225 7.53398 2.26267C7.51603 2.28309 7.49499 2.30042 7.47085 2.31404C7.44671 2.32827 7.42072 2.33818 7.39225 2.34375C7.36378 2.34993 7.33469 2.35055 7.30499 2.3456C7.28209 2.34189 7.26352 2.33322 7.24743 2.32023C7.23196 2.30723 7.2202 2.29114 7.21277 2.27319C7.20535 2.25525 7.20163 2.23544 7.20287 2.21378C7.20411 2.19212 7.20968 2.1717 7.21958 2.15189C7.23072 2.13023 7.24496 2.1129 7.2629 2.10114C7.28085 2.08938 7.29756 2.08753 7.31365 2.09681C7.32665 2.10424 7.33407 2.11785 7.33593 2.13642C7.33779 2.15499 7.33346 2.17355 7.32355 2.19088C7.31427 2.20759 7.30189 2.21935 7.28704 2.22616C7.27219 2.23358 7.25795 2.2342 7.24495 2.22925C7.24248 2.24349 7.24929 2.25834 7.26476 2.27257C7.28023 2.28743 7.30004 2.29733 7.32479 2.3029C7.33717 2.30599 7.35017 2.30599 7.3644 2.3029C7.37863 2.2998 7.39225 2.29485 7.40525 2.28743C7.41824 2.28 7.43 2.2701 7.44052 2.25834C7.45104 2.24658 7.45909 2.23358 7.46528 2.21811C7.47642 2.18779 7.47456 2.16241 7.45971 2.14137C7.44485 2.12033 7.42072 2.09743 7.38544 2.07206C7.36811 2.05968 7.35326 2.04544 7.34212 2.02811C7.33036 2.01079 7.32232 1.99222 7.31737 1.9718C7.31241 1.95137 7.3118 1.93095 7.31427 1.90991C7.31675 1.88887 7.32417 1.86782 7.33593 1.84802C7.34707 1.82821 7.36069 1.81089 7.37802 1.79603C7.39534 1.78118 7.41391 1.7688 7.43433 1.76014C7.45476 1.75147 7.47642 1.74528 7.49808 1.74281C7.52036 1.74033 7.54202 1.74095 7.56306 1.7459V1.74528Z" fill="white"/>
<path d="M7.90275 1.89277C7.92875 1.89277 7.95103 1.89834 7.96898 1.9101C7.98692 1.92186 7.99992 1.93795 8.00796 1.95837C8.01601 1.97879 8.0191 2.00231 8.01787 2.02954C8.01663 2.05677 8.00982 2.08586 7.99806 2.11681C7.98507 2.15208 7.96898 2.18365 7.94979 2.21088C7.9306 2.23873 7.90956 2.26163 7.88666 2.28143C7.86376 2.30123 7.83901 2.31609 7.81363 2.32599C7.78764 2.33589 7.76103 2.34146 7.73318 2.34084C7.70533 2.34084 7.68429 2.33527 7.66634 2.32351C7.64901 2.31175 7.63601 2.29566 7.62797 2.27524C7.61992 2.25482 7.61683 2.23068 7.61869 2.20345C7.62054 2.17622 7.62735 2.14651 7.63911 2.11557C7.66696 2.04378 7.70347 1.9887 7.74927 1.95033C7.79507 1.91134 7.84582 1.89215 7.90275 1.89215V1.89277ZM7.8749 2.11866C7.88357 2.09515 7.891 2.07348 7.89657 2.05244C7.90214 2.0314 7.90585 2.01283 7.90709 1.99674C7.90832 1.98065 7.90771 1.96765 7.90523 1.95775C7.90214 1.94785 7.89657 1.9429 7.8879 1.9429C7.87924 1.9429 7.86933 1.94785 7.85819 1.95775C7.84705 1.96765 7.83591 1.98065 7.82478 1.99674C7.81364 2.01283 7.80249 2.0314 7.79135 2.05244C7.78021 2.07348 7.77031 2.09576 7.76165 2.11866C7.75298 2.14094 7.74556 2.1626 7.73999 2.18365C7.7338 2.20407 7.7307 2.22264 7.72947 2.23811C7.72823 2.2542 7.72947 2.26658 7.73318 2.27586C7.73689 2.28514 7.74308 2.29009 7.75175 2.29009C7.76041 2.29009 7.77031 2.28514 7.78083 2.27586C7.79135 2.26658 7.8025 2.25358 7.81302 2.23811C7.82416 2.22264 7.83468 2.20407 7.84582 2.18365C7.85696 2.16322 7.86686 2.14156 7.87552 2.11866H7.8749Z" fill="white"/>
<path d="M8.47358 1.90247C8.46739 1.91671 8.4612 1.93342 8.45316 1.95198C8.44573 1.97055 8.43768 1.99097 8.42902 2.01263C8.42036 2.03429 8.41231 2.05657 8.40303 2.07947C8.39436 2.10237 8.3857 2.12465 8.37642 2.14693C8.35661 2.1983 8.33557 2.25152 8.31267 2.30722C8.28482 2.38025 8.24831 2.43595 8.20189 2.47432C8.15609 2.51269 8.10472 2.53188 8.04903 2.53188C8.02551 2.53188 8.00694 2.52631 7.99271 2.51455C7.97847 2.50341 7.96919 2.48856 7.96362 2.47123C7.95867 2.4539 7.95743 2.43471 7.96114 2.41367C7.96424 2.39263 7.97167 2.37159 7.9828 2.35178C7.99333 2.33445 8.00447 2.3196 8.01808 2.3066C8.01127 2.29361 8.00818 2.27875 8.0088 2.26081C8.0088 2.24286 8.01437 2.22244 8.02365 2.1983C8.02736 2.18902 8.03293 2.1754 8.04036 2.15683C8.04779 2.13827 8.05645 2.11908 8.0645 2.09866C8.07254 2.07824 8.08059 2.05905 8.0874 2.0411C8.0942 2.02315 8.09915 2.00954 8.10225 2.00149C8.10906 1.98664 8.10968 1.97426 8.10534 1.96498C8.10101 1.9557 8.09049 1.95074 8.07378 1.95074H8.06264L8.08554 1.90185C8.09111 1.90062 8.0973 1.89876 8.10411 1.89752C8.10968 1.89628 8.11586 1.89505 8.12267 1.89443C8.12948 1.89381 8.13629 1.89319 8.14433 1.89319C8.1858 1.89319 8.21179 1.90495 8.22231 1.92908C8.23283 1.9526 8.22788 1.98973 8.20746 2.03925C8.20313 2.05039 8.19694 2.06586 8.18951 2.08566C8.18209 2.10547 8.17404 2.12465 8.16599 2.14446C8.15733 2.16735 8.14805 2.19025 8.13876 2.21439C8.13443 2.22739 8.13443 2.23667 8.13876 2.24348C8.1431 2.24967 8.1499 2.25338 8.15919 2.25338C8.16847 2.25338 8.17899 2.2509 8.19137 2.24472C8.20375 2.23853 8.21551 2.22924 8.22603 2.21625L8.35104 1.90185H8.47234L8.47358 1.90247ZM8.09111 2.34188C8.07502 2.34188 8.0614 2.3394 8.04964 2.33507C8.04036 2.34312 8.03108 2.35426 8.02241 2.36787C8.01375 2.38149 8.00694 2.39944 8.00261 2.4211C7.99828 2.43966 8.00075 2.45452 8.00942 2.46566C8.0187 2.4768 8.03046 2.48175 8.04469 2.48237C8.05893 2.48299 8.07254 2.47742 8.08678 2.46628C8.10101 2.45575 8.11463 2.44214 8.127 2.42543C8.14 2.40872 8.15176 2.39015 8.1629 2.36973C8.17404 2.34931 8.1827 2.32826 8.19013 2.30784C8.17404 2.31836 8.15795 2.32641 8.14124 2.3326C8.12453 2.33879 8.10782 2.34126 8.09111 2.34126V2.34188Z" fill="white"/>
<path d="M9.24912 1.75836C9.2157 1.80106 9.18166 1.845 9.14639 1.89204C9.11111 1.93845 9.07707 1.98301 9.04489 2.02448C9.01271 2.06594 8.98362 2.10431 8.95763 2.13835C8.93163 2.17239 8.91121 2.19838 8.8976 2.21633C8.87346 2.24789 8.84994 2.27079 8.82766 2.28379C8.80476 2.29679 8.78434 2.30112 8.76701 2.29617C8.74968 2.29122 8.73545 2.2776 8.72493 2.25532C8.71441 2.23304 8.71007 2.2021 8.71131 2.16311C8.71131 2.15135 8.71131 2.13092 8.71317 2.10122C8.71441 2.07151 8.71564 2.03809 8.71688 2.00034C8.71812 1.96259 8.71936 1.92298 8.72059 1.88151C8.72183 1.84005 8.72307 1.80106 8.72431 1.76454L8.5405 2.22809C8.52688 2.26337 8.52503 2.28812 8.53431 2.30174C8.54421 2.31535 8.56711 2.31721 8.60363 2.30793L8.57082 2.37724C8.56154 2.38095 8.55226 2.38343 8.54174 2.38591C8.53245 2.38838 8.52255 2.39024 8.51079 2.39209C8.49965 2.39395 8.48789 2.39333 8.47675 2.39148C8.45509 2.38776 8.44024 2.37662 8.43158 2.35682C8.42291 2.33701 8.42415 2.31411 8.43405 2.28688L8.70388 1.61106C8.71193 1.59126 8.71564 1.57517 8.71564 1.56341C8.70327 1.5467 8.68284 1.53865 8.65561 1.53865H8.63828L8.64509 1.46253C8.65314 1.46005 8.66242 1.45758 8.67232 1.45572C8.68161 1.45325 8.69089 1.45139 8.70079 1.45077C8.71069 1.44953 8.72183 1.44891 8.73421 1.44891C8.79919 1.44891 8.84623 1.46748 8.87593 1.50461C8.90564 1.54175 8.91926 1.59992 8.91678 1.67914L8.90255 2.08451L9.30544 1.55722C9.29616 1.54546 9.28069 1.53927 9.25902 1.53927H9.2417L9.27635 1.46315C9.28564 1.46067 9.29492 1.45882 9.30544 1.45634C9.31472 1.45386 9.32463 1.45201 9.33515 1.45139C9.34567 1.45015 9.35743 1.44953 9.37042 1.44953C9.43541 1.44953 9.47625 1.4681 9.49296 1.50523C9.50967 1.54237 9.50163 1.60054 9.46944 1.67976L9.26831 2.19096C9.25902 2.21447 9.26026 2.23118 9.2714 2.2417C9.28254 2.25161 9.29863 2.2547 9.31844 2.25037C9.33824 2.24604 9.3599 2.2349 9.3828 2.21695C9.4057 2.19838 9.42427 2.17363 9.43912 2.14206L9.46821 2.19158C9.45645 2.22004 9.44098 2.24604 9.42117 2.27017C9.40137 2.29431 9.37909 2.31597 9.35433 2.33454C9.32958 2.3531 9.30358 2.36796 9.27573 2.37848C9.24788 2.389 9.22003 2.39457 9.1928 2.39457C9.16557 2.39457 9.14206 2.38962 9.12163 2.3791C9.10183 2.3692 9.08636 2.35434 9.07645 2.33578C9.06655 2.31659 9.0616 2.29307 9.06284 2.26522C9.06408 2.23675 9.07212 2.20457 9.08697 2.16806L9.2485 1.75897L9.24912 1.75836Z" fill="white"/>
<path d="M9.88129 1.68659C9.92214 1.68659 9.9568 1.69588 9.98465 1.71444C10.0125 1.73301 10.0329 1.75776 10.0453 1.78995C10.0577 1.82213 10.0626 1.85926 10.0608 1.90135C10.0583 1.94405 10.0484 1.98923 10.0298 2.0375C10.0094 2.0932 9.98403 2.14209 9.95432 2.18541C9.92461 2.22874 9.89181 2.26525 9.85592 2.29619C9.82002 2.32652 9.78165 2.35004 9.74142 2.36613C9.7012 2.38222 9.65911 2.38965 9.61579 2.38965C9.57247 2.38965 9.53905 2.38036 9.5112 2.3618C9.48397 2.34323 9.46416 2.31847 9.45117 2.28629C9.43879 2.25411 9.43384 2.21698 9.43693 2.17366C9.44003 2.13033 9.45055 2.08515 9.4685 2.03626C9.51182 1.92424 9.56937 1.8376 9.64055 1.77695C9.71172 1.7163 9.79217 1.68597 9.88129 1.68597V1.68659ZM9.83797 2.03998C9.85159 2.00346 9.86273 1.9688 9.87139 1.936C9.88005 1.9032 9.88562 1.87412 9.8881 1.84874C9.89058 1.82337 9.88934 1.80294 9.88501 1.78809C9.88067 1.77262 9.87139 1.76519 9.85777 1.76519C9.84416 1.76519 9.82869 1.77262 9.81136 1.78809C9.79403 1.80356 9.7767 1.82399 9.75937 1.84874C9.74142 1.87412 9.72409 1.9032 9.70677 1.936C9.68944 1.9688 9.67397 2.00346 9.66035 2.03998C9.64673 2.07525 9.63498 2.10929 9.62569 2.14147C9.61641 2.17366 9.61084 2.20212 9.6096 2.22688C9.60774 2.25163 9.6096 2.27144 9.61579 2.28629C9.62136 2.30115 9.63126 2.30857 9.64488 2.30857C9.65849 2.30857 9.67335 2.30115 9.69006 2.28691C9.70677 2.27206 9.72348 2.25225 9.7408 2.22812C9.75813 2.20336 9.77546 2.17489 9.79217 2.14271C9.8095 2.11053 9.82497 2.07649 9.83859 2.04121L9.83797 2.03998Z" fill="white"/>
<path d="M10.8791 2.19089C10.8698 2.21317 10.871 2.22926 10.8822 2.23854C10.8933 2.24783 10.9088 2.25092 10.9286 2.24721C10.9478 2.24349 10.9694 2.23297 10.9929 2.21564C11.0165 2.1977 11.0356 2.17294 11.0505 2.14138L11.0796 2.19089C11.0684 2.21936 11.0524 2.24535 11.0326 2.26949C11.0127 2.29362 10.9905 2.31466 10.9657 2.33199C10.941 2.34994 10.915 2.36356 10.8871 2.37408C10.8593 2.3846 10.8314 2.39017 10.8042 2.39017C10.7485 2.39017 10.7095 2.37098 10.6878 2.33323C10.6662 2.29548 10.6705 2.23916 10.7002 2.16489L10.8104 1.88887C10.8172 1.87092 10.8178 1.85731 10.8128 1.84803C10.8079 1.83874 10.7986 1.83317 10.7862 1.83132C10.7739 1.82946 10.759 1.83132 10.7417 1.8375C10.7243 1.84369 10.7083 1.8536 10.6922 1.86783C10.6897 1.87464 10.6872 1.88206 10.6841 1.88887C10.681 1.89568 10.6785 1.90373 10.6767 1.91177L10.5529 2.22121C10.5436 2.24597 10.5424 2.26577 10.5492 2.27939C10.556 2.29362 10.5721 2.30043 10.5969 2.30043H10.6142L10.5795 2.37655C10.5702 2.37903 10.561 2.3815 10.5504 2.38336C10.5331 2.38707 10.5121 2.38831 10.4873 2.38831C10.4223 2.38831 10.3815 2.36975 10.3654 2.33323C10.3487 2.29672 10.3567 2.23916 10.3889 2.1618C10.3957 2.14509 10.405 2.12157 10.4161 2.09125C10.4273 2.0603 10.4397 2.02998 10.452 1.99903C10.4657 1.96376 10.4805 1.92662 10.4966 1.88763C10.5034 1.86969 10.5034 1.85607 10.4972 1.84617C10.491 1.83627 10.4817 1.83008 10.4687 1.82822C10.4564 1.82636 10.4415 1.82884 10.4242 1.83627C10.4069 1.84307 10.3901 1.85421 10.3728 1.86969C10.3703 1.87649 10.3679 1.88392 10.3648 1.89073C10.3617 1.89754 10.3592 1.90558 10.3573 1.91363C10.3505 1.93219 10.3406 1.95757 10.3283 1.98789C10.3159 2.01884 10.3035 2.04978 10.2911 2.08073C10.2794 2.11229 10.2682 2.14076 10.2577 2.16675C10.2472 2.19274 10.2404 2.21069 10.2373 2.21998C10.2268 2.24473 10.2255 2.26454 10.2323 2.27815C10.2391 2.29238 10.2558 2.29919 10.2818 2.29919H10.2992L10.2633 2.37532C10.254 2.37779 10.2447 2.38027 10.2342 2.38212C10.2169 2.38584 10.1958 2.38707 10.1711 2.38707C10.1061 2.38707 10.0659 2.36851 10.0498 2.33199C10.0337 2.29548 10.0411 2.23792 10.072 2.15994C10.0788 2.14138 10.0881 2.11724 10.0993 2.08939C10.1104 2.06092 10.1228 2.03183 10.1345 2.00151C10.1463 1.97118 10.1574 1.94333 10.168 1.91672C10.1785 1.89011 10.1872 1.86907 10.194 1.8536C10.2032 1.83008 10.2045 1.81089 10.1977 1.79604C10.1909 1.78119 10.1748 1.77376 10.15 1.77376H10.1327L10.1673 1.69764C10.1766 1.69516 10.1859 1.69269 10.1964 1.69083C10.2057 1.68835 10.215 1.6865 10.2255 1.68588C10.236 1.68464 10.2472 1.68402 10.2596 1.68402C10.3351 1.68402 10.3778 1.71001 10.3877 1.762C10.4149 1.73848 10.4446 1.71992 10.4768 1.70568C10.509 1.69145 10.5405 1.68464 10.5727 1.68464C10.6427 1.68464 10.6841 1.71187 10.6977 1.76633C10.725 1.74158 10.7553 1.72177 10.7875 1.70692C10.8203 1.69207 10.8525 1.68464 10.8859 1.68464C10.9416 1.68464 10.9806 1.70383 11.001 1.74158C11.022 1.77933 11.0183 1.83565 10.9898 1.90991L10.8797 2.18779L10.8791 2.19089Z" fill="white"/>
<path d="M11.4905 1.68922C11.5314 1.68922 11.566 1.6985 11.5939 1.71707C11.6217 1.73563 11.6422 1.76039 11.6545 1.79257C11.6669 1.82475 11.6719 1.86189 11.67 1.90397C11.6675 1.94667 11.657 1.99185 11.6391 2.04013C11.6186 2.09582 11.5933 2.14472 11.5636 2.18804C11.5339 2.23136 11.5011 2.26787 11.4652 2.29882C11.4293 2.32914 11.3909 2.35266 11.3507 2.36875C11.3104 2.38484 11.2684 2.39289 11.225 2.39227C11.1817 2.39227 11.1483 2.38299 11.1204 2.36442C11.0932 2.34585 11.0734 2.3211 11.061 2.28892C11.0487 2.25673 11.0437 2.2196 11.0468 2.17628C11.0499 2.13296 11.0604 2.08778 11.0784 2.03889C11.1217 1.92687 11.1792 1.84023 11.251 1.77957C11.3222 1.71892 11.4027 1.6886 11.4918 1.6886L11.4905 1.68922ZM11.4472 2.0426C11.4608 2.00609 11.472 1.97143 11.4806 1.93863C11.4893 1.90583 11.4949 1.87674 11.4973 1.85137C11.4998 1.82599 11.4986 1.80557 11.4942 1.79071C11.4899 1.77524 11.4806 1.76782 11.467 1.76782C11.4534 1.76782 11.4379 1.77524 11.4206 1.79071C11.4033 1.80619 11.3859 1.82599 11.3686 1.85137C11.3507 1.87674 11.3333 1.90583 11.316 1.93863C11.2987 1.97143 11.2832 2.00609 11.2696 2.0426C11.256 2.07788 11.2442 2.11192 11.2349 2.1441C11.2257 2.17628 11.2201 2.20475 11.2188 2.2295C11.217 2.25426 11.2188 2.27406 11.225 2.28892C11.2306 2.30377 11.2405 2.3112 11.2541 2.3112C11.2677 2.3112 11.2826 2.30377 11.2993 2.28892C11.316 2.27406 11.3327 2.25488 11.35 2.23012C11.3674 2.20537 11.3841 2.1769 11.4014 2.14472C11.4187 2.11253 11.4342 2.0785 11.4478 2.04322L11.4472 2.0426Z" fill="white"/>
</svg>
