<svg width="54" height="54" viewBox="0 0 54 54" fill="none" xmlns="http://www.w3.org/2000/svg">
<rect x="0.566895" y="0.408936" width="52.8548" height="52.8548" rx="16.1501" fill="#613DB2"/>
<g clip-path="url(#clip0_101_2)">
<path d="M26.947 14.0037C26.8004 14.0006 26.6523 13.9998 26.5049 14.0006C26.3348 13.988 26.0478 13.9919 25.8769 13.9974C25.6684 14.0037 25.4575 14.0186 25.2497 14.0375C24.8342 14.0744 24.4164 14.1342 24.0064 14.2112C23.1856 14.3652 22.3734 14.5931 21.5925 14.887C20.0183 15.4788 18.5727 16.3323 17.2823 17.4105C17.0424 16.5696 15.6062 12.2174 13.1767 14.6528C10.664 17.1716 15.6077 18.3354 16.1487 18.4541C13.9026 20.7363 12.3864 23.604 11.3735 26.6115C11.1289 27.3298 11.0451 28.0937 11.125 28.8481C11.1313 28.9125 11.1399 28.977 11.1485 29.0406C11.2175 29.5255 11.3437 30.0033 11.5248 30.4591C11.7059 30.9157 11.9419 31.3519 12.2218 31.7543C12.5001 32.1558 12.8239 32.5252 13.1782 32.8623C13.375 33.0486 13.5804 33.2246 13.7944 33.3912C14.1731 33.6859 14.576 33.9484 14.9931 34.185C15.4133 34.4223 15.8492 34.6321 16.2945 34.8192C16.7374 35.0054 17.1914 35.1689 17.65 35.3127C18.3265 35.5257 19.0156 35.697 19.711 35.8377C20.1602 35.9288 20.611 36.0066 21.0634 36.0734C21.522 36.141 21.9814 36.1976 22.4424 36.244C23.3659 36.3383 24.2917 36.3933 25.22 36.4208C25.7954 36.4381 26.3716 36.4428 26.947 36.4389C27.5225 36.4428 28.0987 36.4373 28.6741 36.4208C29.6015 36.3941 30.5282 36.3383 31.4517 36.244C31.9119 36.1976 32.3721 36.1402 32.8307 36.0734C33.2831 36.0066 33.7338 35.928 34.183 35.8377C34.8784 35.697 35.5675 35.5257 36.2441 35.3127C36.7027 35.1681 37.1558 35.0054 37.5996 34.8192C38.0449 34.6321 38.48 34.4223 38.901 34.185C39.3188 33.9484 39.721 33.6859 40.0996 33.3912C40.3137 33.2254 40.5198 33.0486 40.7158 32.8623C41.0702 32.526 41.394 32.1558 41.6723 31.7543C41.9529 31.3511 42.1881 30.9157 42.3692 30.4591C42.5503 30.0033 42.6758 29.5263 42.7455 29.0406C42.7549 28.9762 42.7628 28.9125 42.769 28.8481C42.8498 28.0937 42.7643 27.3298 42.5213 26.6115C41.5092 23.604 39.993 20.7363 37.7462 18.4549C38.2879 18.3354 43.2316 17.1724 40.7182 14.6536C38.2887 12.2182 36.8517 16.5696 36.6126 17.4113C35.3229 16.333 33.8757 15.4796 32.3023 14.8878C31.5199 14.5939 30.7093 14.366 29.8885 14.212C29.4785 14.1349 29.0606 14.076 28.6451 14.0383C28.4374 14.0194 28.2265 14.0061 28.0179 13.9982C27.8478 13.9927 27.5609 13.9888 27.39 14.0014C27.2426 14.0014 27.0944 14.0014 26.9478 14.0045H26.9462L26.947 14.0037Z" fill="url(#paint0_linear_101_2)"/>
</g>
<defs>
<linearGradient id="paint0_linear_101_2" x1="26.9478" y1="36.4396" x2="26.9478" y2="13.9212" gradientUnits="userSpaceOnUse">
<stop stop-color="#F4639F"/>
<stop offset="1" stop-color="#FF94C0"/>
</linearGradient>
<clipPath id="clip0_101_2">
<rect width="35.3369" height="25.0991" fill="white" transform="translate(9.11426 13.9209)"/>
</clipPath>
</defs>
</svg>
