<svg width="12" height="15" viewBox="0 0 12 15" fill="none" xmlns="http://www.w3.org/2000/svg">
<path d="M11.8674 1.5109C11.8674 1.13773 11.7192 0.779853 11.4553 0.515987C11.1915 0.25212 10.8336 0.103882 10.4604 0.103882H4.83237L0.611328 4.32492V12.767C0.611328 13.1402 0.759567 13.4981 1.02343 13.7619C1.2873 14.0258 1.64518 14.174 2.01834 14.174H10.4604C10.8336 14.174 11.1915 14.0258 11.4553 13.7619C11.7192 13.4981 11.8674 13.1402 11.8674 12.767V1.5109ZM4.12886 12.0635H2.72185V10.6565H4.12886V12.0635ZM9.75692 12.0635H8.34991V10.6565H9.75692V12.0635ZM4.12886 9.24947H2.72185V6.43545H4.12886V9.24947ZM6.94289 12.0635H5.53588V9.24947H6.94289V12.0635ZM6.94289 7.84246H5.53588V6.43545H6.94289V7.84246ZM9.75692 9.24947H8.34991V6.43545H9.75692V9.24947Z" fill="#603BB0"/>
</svg>
