<svg width="10" height="15" viewBox="0 0 10 15" fill="none" xmlns="http://www.w3.org/2000/svg">
<path d="M0.905273 5.2608L0.905273 13.0524C0.905273 13.3968 1.04209 13.7271 1.28562 13.9706C1.52916 14.2141 1.85946 14.351 2.20387 14.351L7.39824 14.351C7.74265 14.351 8.07295 14.2141 8.31649 13.9706C8.56002 13.7271 8.69684 13.3968 8.69684 13.0524L8.69684 5.2608C8.69684 4.91639 8.56002 4.58608 8.31649 4.34255C8.07295 4.09902 7.74265 3.9622 7.39824 3.9622L2.20387 3.9622C1.85946 3.9622 1.52916 4.09902 1.28562 4.34255C1.04209 4.58609 0.905273 4.91639 0.905273 5.2608ZM5.45035 1.36501L4.15176 1.36501C3.97955 1.36501 3.8144 1.43342 3.69264 1.55519C3.57087 1.67696 3.50246 1.84211 3.50246 2.01431L6.09965 2.01431C6.09965 1.84211 6.03124 1.67695 5.90947 1.55519C5.78771 1.43342 5.62256 1.36501 5.45035 1.36501Z" fill="#603BB0"/>
<path d="M0.905273 5.2608L0.905273 13.0524C0.905273 13.3968 1.04209 13.7271 1.28562 13.9706C1.52916 14.2141 1.85946 14.351 2.20387 14.351L7.39824 14.351C7.74265 14.351 8.07295 14.2141 8.31649 13.9706C8.56002 13.7271 8.69684 13.3968 8.69684 13.0524L8.69684 5.2608C8.69684 4.91639 8.56002 4.58608 8.31649 4.34255C8.07295 4.09902 7.74265 3.9622 7.39824 3.9622L2.20387 3.9622C1.85946 3.9622 1.52916 4.09902 1.28562 4.34255C1.04209 4.58609 0.905273 4.91639 0.905273 5.2608ZM5.45035 1.36501L4.15176 1.36501C3.97955 1.36501 3.8144 1.43342 3.69264 1.55519C3.57087 1.67696 3.50246 1.84211 3.50246 2.01431L6.09965 2.01431C6.09965 1.84211 6.03124 1.67696 5.90947 1.55519C5.78771 1.43342 5.62256 1.36501 5.45035 1.36501Z" stroke="#603BB0" stroke-width="1.15416" stroke-linecap="round" stroke-linejoin="round"/>
</svg>
