<svg width="14" height="15" viewBox="0 0 14 15" fill="none" xmlns="http://www.w3.org/2000/svg">
<path d="M7.42937 8.77887C7.22412 8.77887 7.05219 8.70933 6.91359 8.57024C6.7745 8.43164 6.70496 8.25971 6.70496 8.05446C6.70496 7.84921 6.7745 7.67704 6.91359 7.53796C7.05219 7.39935 7.22412 7.33005 7.42937 7.33005C7.63462 7.33005 7.80679 7.39935 7.94588 7.53796C8.08448 7.67704 8.15378 7.84921 8.15378 8.05446C8.15378 8.25971 8.08448 8.43164 7.94588 8.57024C7.80679 8.70933 7.63462 8.77887 7.42937 8.77887ZM4.53173 8.77887C4.32648 8.77887 4.15431 8.70933 4.01522 8.57024C3.87662 8.43164 3.80731 8.25971 3.80731 8.05446C3.80731 7.84921 3.87662 7.67704 4.01522 7.53796C4.15431 7.39935 4.32648 7.33005 4.53173 7.33005C4.73698 7.33005 4.90914 7.39935 5.04823 7.53796C5.18684 7.67704 5.25614 7.84921 5.25614 8.05446C5.25614 8.25971 5.18684 8.43164 5.04823 8.57024C4.90914 8.70933 4.73698 8.77887 4.53173 8.77887ZM10.327 8.77887C10.1218 8.77887 9.94984 8.70933 9.81124 8.57024C9.67215 8.43164 9.60261 8.25971 9.60261 8.05446C9.60261 7.84921 9.67215 7.67704 9.81124 7.53796C9.94984 7.39935 10.1218 7.33005 10.327 7.33005C10.5323 7.33005 10.7042 7.39935 10.8428 7.53796C10.9819 7.67704 11.0514 7.84921 11.0514 8.05446C11.0514 8.25971 10.9819 8.43164 10.8428 8.57024C10.7042 8.70933 10.5323 8.77887 10.327 8.77887ZM7.42937 11.6765C7.22412 11.6765 7.05219 11.607 6.91359 11.4679C6.7745 11.3293 6.70496 11.1574 6.70496 10.9521C6.70496 10.7469 6.7745 10.5749 6.91359 10.4363C7.05219 10.2972 7.22412 10.2277 7.42937 10.2277C7.63462 10.2277 7.80679 10.2972 7.94588 10.4363C8.08448 10.5749 8.15378 10.7469 8.15378 10.9521C8.15378 11.1574 8.08448 11.3293 7.94588 11.4679C7.80679 11.607 7.63462 11.6765 7.42937 11.6765ZM4.53173 11.6765C4.32648 11.6765 4.15431 11.607 4.01522 11.4679C3.87662 11.3293 3.80731 11.1574 3.80731 10.9521C3.80731 10.7469 3.87662 10.5749 4.01522 10.4363C4.15431 10.2972 4.32648 10.2277 4.53173 10.2277C4.73698 10.2277 4.90914 10.2972 5.04823 10.4363C5.18684 10.5749 5.25614 10.7469 5.25614 10.9521C5.25614 11.1574 5.18684 11.3293 5.04823 11.4679C4.90914 11.607 4.73698 11.6765 4.53173 11.6765ZM10.327 11.6765C10.1218 11.6765 9.94984 11.607 9.81124 11.4679C9.67215 11.3293 9.60261 11.1574 9.60261 10.9521C9.60261 10.7469 9.67215 10.5749 9.81124 10.4363C9.94984 10.2972 10.1218 10.2277 10.327 10.2277C10.5323 10.2277 10.7042 10.2972 10.8428 10.4363C10.9819 10.5749 11.0514 10.7469 11.0514 10.9521C11.0514 11.1574 10.9819 11.3293 10.8428 11.4679C10.7042 11.607 10.5323 11.6765 10.327 11.6765ZM2.35849 14.5742C1.96006 14.5742 1.61887 14.4324 1.3349 14.1489C1.05141 13.865 0.909668 13.5238 0.909668 13.1253V2.98358C0.909668 2.58516 1.05141 2.2442 1.3349 1.96071C1.61887 1.67674 1.96006 1.53476 2.35849 1.53476H3.0829V0.0859375H4.53173V1.53476H10.327V0.0859375H11.7758V1.53476H12.5003C12.8987 1.53476 13.2399 1.67674 13.5238 1.96071C13.8073 2.2442 13.9491 2.58516 13.9491 2.98358V13.1253C13.9491 13.5238 13.8073 13.865 13.5238 14.1489C13.2399 14.4324 12.8987 14.5742 12.5003 14.5742H2.35849ZM2.35849 13.1253H12.5003V5.88123H2.35849V13.1253Z" fill="#603BB0"/>
</svg>
