<svg width="15" height="16" viewBox="0 0 15 16" fill="none" xmlns="http://www.w3.org/2000/svg">
<path d="M11.6115 11.7732C11.4252 11.2001 10.8879 10.7774 10.2503 10.7774H9.53385V8.62808C9.53385 8.43807 9.45837 8.25585 9.32401 8.12149C9.18966 7.98713 9.00743 7.91165 8.81742 7.91165H4.51882V6.47878H5.95168C6.14169 6.47878 6.32392 6.4033 6.45828 6.26894C6.59264 6.13459 6.66812 5.95236 6.66812 5.76235V4.32948H8.10098C8.481 4.32948 8.84546 4.17852 9.11417 3.90981C9.38289 3.64109 9.53385 3.27664 9.53385 2.89662V2.60288C10.391 2.94846 11.1517 3.49661 11.7508 4.20041C12.3499 4.9042 12.7695 5.74268 12.9737 6.64407C13.1779 7.54546 13.1607 8.48292 12.9234 9.37619C12.6862 10.2695 12.2361 11.0919 11.6115 11.7732ZM6.66812 13.593C3.8382 13.2419 1.65308 10.8347 1.65308 7.91165C1.65308 7.46746 1.7104 7.0376 1.80353 6.62923L5.23525 10.061V10.7774C5.23525 11.1574 5.38621 11.5219 5.65493 11.7906C5.92364 12.0593 6.2881 12.2103 6.66812 12.2103M7.38455 0.747314C6.44372 0.747314 5.51209 0.932626 4.64288 1.29267C3.77366 1.65271 2.98387 2.18043 2.3186 2.8457C0.975027 4.18927 0.220215 6.01155 0.220215 7.91165C0.220215 9.81175 0.975027 11.634 2.3186 12.9776C2.98387 13.6429 3.77366 14.1706 4.64288 14.5306C5.51209 14.8907 6.44372 15.076 7.38455 15.076C9.28465 15.076 11.1069 14.3212 12.4505 12.9776C13.7941 11.634 14.5489 9.81175 14.5489 7.91165C14.5489 6.97082 14.3636 6.03919 14.0035 5.16998C13.6435 4.30076 13.1158 3.51097 12.4505 2.8457C11.7852 2.18043 10.9954 1.65271 10.1262 1.29267C9.25701 0.932626 8.32539 0.747314 7.38455 0.747314Z" fill="#603BB0"/>
</svg>
