<svg width="36" height="26" viewBox="0 0 36 26" fill="none" xmlns="http://www.w3.org/2000/svg">
<path opacity="0.5" d="M31.7661 6.67395C32.8675 7.63764 35.0702 10.1616 35.0702 14.1082C35.0702 17.7427 33.1428 20.028 32.1791 20.7163" stroke="#603BB0" stroke-width="1.65215" stroke-linecap="round"/>
<path opacity="0.5" d="M4.50488 6.67395C3.40352 7.63764 1.20079 10.1616 1.20079 14.1082C1.20079 17.7427 3.12818 20.028 4.09187 20.7163" stroke="#603BB0" stroke-width="1.65215" stroke-linecap="round"/>
<path opacity="0.5" d="M28.4619 8.32623C29.2879 9.049 30.94 10.8043 30.94 13.9019C30.94 16.6278 29.4944 18.3418 28.7717 18.858" stroke="#603BB0" stroke-width="1.65215" stroke-linecap="round"/>
<path opacity="0.5" d="M7.81006 8.32623C6.98404 9.049 5.33199 10.8043 5.33199 13.9019C5.33199 16.6278 6.77753 18.3418 7.5003 18.858" stroke="#603BB0" stroke-width="1.65215" stroke-linecap="round"/>
<path fill-rule="evenodd" clip-rule="evenodd" d="M24.0077 6.00052C25.1712 7.02183 25.3068 9.00733 25.3068 9.00733H25.3063V12.13C24.9768 12.7856 25.3063 13.7493 25.3063 13.7493V16.7368C25.2283 19.2616 23.5415 20.3218 23.5415 20.3218C23.5415 20.3218 22.9447 20.765 22.383 21.1998C21.9942 21.5611 21.388 22.8614 21.388 24.3022C21.388 24.8573 20.3936 25.5459 18.2406 25.5459C16.3441 25.5459 15.0933 24.8568 15.0933 24.3022C15.0933 24.3022 15.1937 22.566 14.458 21.465C14.134 21.1943 13.7441 20.9346 13.4004 20.7457C12.6635 20.3411 11.9656 19.4351 11.9656 19.4351C10.9378 18.1628 11.1316 16.6786 11.1316 16.6786C11.1316 16.6786 11.0926 11.1274 11.1316 8.96889C11.1706 6.80988 12.3703 6.00052 12.3703 6.00052L13.575 5.05829C13.575 5.05829 13.8485 4.85897 14.1126 4.67942C14.5019 4.31153 15.0933 3.01348 15.0933 1.5908C15.0933 1.03622 15.7258 0.0654297 18.2005 0.0654297C20.6753 0.0654297 21.388 1.03622 21.388 1.5908C21.388 1.5908 21.282 3.3962 22.087 4.51963C22.1023 4.52924 22.1179 4.53851 22.1339 4.54797C22.138 4.55041 22.1421 4.55285 22.1463 4.55532C22.1463 4.55532 22.6696 4.92541 22.825 5.05829L24.0077 6.00052ZM14.448 7.00257C13.0325 7.71579 13.2456 9.12246 13.2456 9.12246H13.2472L13.2357 16.8317C13.2824 18.8363 15.2831 18.894 15.2831 18.894C15.2831 18.894 16.5822 18.8748 16.9116 18.8748C17.241 18.8748 17.28 18.9324 17.28 18.9324C17.6094 19.2218 17.9197 19.241 17.9197 19.241C18.4429 19.3184 18.8311 19.0872 18.9085 18.9714C18.9859 18.8555 19.1797 18.8555 19.1797 18.8555H21.1766C23.1933 18.682 23.0379 16.7933 23.0379 16.7933C23.0379 16.7933 23.0769 10.6066 23.0379 8.73703C22.999 6.8675 21.0795 6.8675 21.0795 6.8675C21.0795 6.8675 16.6195 6.8675 16.2901 6.88672C15.9606 6.90648 15.8442 6.80985 15.8442 6.80985C15.7278 6.53972 15.4758 6.50128 15.4758 6.50128C14.9328 6.42441 14.7582 6.82907 14.7582 6.82907C14.6226 7.00257 14.448 7.00257 14.448 7.00257Z" fill="#603BB0"/>
<rect x="12.7661" y="5.84778" width="10.7383" height="14.0424" rx="3.3043" fill="#603BB0" fill-opacity="0.37"/>
</svg>
