<svg width="33" height="31" viewBox="0 0 33 31" fill="none" xmlns="http://www.w3.org/2000/svg">
<ellipse cx="16.5537" cy="28.4797" rx="16.4194" ry="2.05243" fill="#462097"/>
<rect x="3.65283" y="6.65112" width="6.02589" height="2.28007" rx="1.14003" fill="#F4639F"/>
<rect x="3.65283" y="13.6543" width="6.02589" height="2.28007" rx="1.14003" fill="#F4639F"/>
<path fill-rule="evenodd" clip-rule="evenodd" d="M8.56452 0.625244C6.82322 0.625244 5.41162 2.03684 5.41162 3.77814V6.19235C5.66787 6.06892 5.95518 5.99976 6.25864 5.99976H8.5387C9.61806 5.99976 10.4931 6.87475 10.4931 7.9541C10.4931 9.03346 9.61806 9.90845 8.53871 9.90845H6.25864C5.95518 9.90845 5.66787 9.83928 5.41162 9.71586V13.0325C5.66789 12.9091 5.95523 12.8399 6.25873 12.8399H8.5388C9.61815 12.8399 10.4931 13.7149 10.4931 14.7942C10.4931 15.8736 9.61816 16.7486 8.5388 16.7486H6.25873C5.95524 16.7486 5.66789 16.6794 5.41162 16.556V19.8728C5.66789 19.7493 5.95523 19.6801 6.25873 19.6801H8.5388C9.61815 19.6801 10.4931 20.5551 10.4931 21.6345C10.4931 22.7139 9.61816 23.5888 8.5388 23.5888H6.25873C5.95524 23.5888 5.66789 23.5197 5.41162 23.3962V25.8103C5.41162 27.5516 6.82322 28.9632 8.56452 28.9632H25.548C27.2893 28.9632 28.7009 27.5516 28.7009 25.8103V3.77814C28.7009 2.03684 27.2893 0.625244 25.548 0.625244H8.56452Z" fill="url(#paint0_linear_70_3523)"/>
<rect x="3.65283" y="20.6572" width="6.02589" height="2.28007" rx="1.14003" fill="#F4639F"/>
<path d="M18.3125 10.6222C18.2637 10.6212 18.2145 10.6209 18.1653 10.6212C18.1085 10.617 18.013 10.6183 17.9562 10.6203C17.8869 10.6225 17.8166 10.6273 17.7475 10.6338C17.6091 10.6463 17.47 10.6665 17.3335 10.6926C17.0601 10.7446 16.7899 10.8218 16.5298 10.9214C16.0057 11.1216 15.5243 11.4106 15.0948 11.7757C15.015 11.4909 14.5367 10.0176 13.728 10.842C12.8914 11.6947 14.5374 12.0887 14.7174 12.1289C13.9695 12.9015 13.4647 13.8722 13.1276 14.8903C13.0463 15.1336 13.0182 15.392 13.045 15.6476C13.0472 15.6694 13.05 15.6913 13.0529 15.7128C13.0759 15.877 13.1178 16.0387 13.1781 16.193C13.2383 16.3476 13.3168 16.4951 13.4101 16.6314C13.5028 16.7673 13.6107 16.8923 13.7286 17.0064C13.7942 17.0694 13.8626 17.1292 13.9339 17.1854C14.06 17.2851 14.194 17.3741 14.333 17.4541C14.473 17.5345 14.6181 17.6055 14.7663 17.6688C14.9138 17.7318 15.0649 17.7871 15.2175 17.836C15.4426 17.9079 15.6721 17.9661 15.9036 18.0137C16.053 18.0445 16.2031 18.0709 16.3538 18.0934C16.5065 18.1162 16.6594 18.1355 16.8129 18.1512C17.1204 18.1831 17.4287 18.2017 17.7377 18.211C17.9294 18.2168 18.1211 18.2184 18.3129 18.2171C18.5046 18.2184 18.6963 18.2165 18.888 18.211C19.1967 18.202 19.5053 18.1831 19.8128 18.1512C19.966 18.1355 20.1193 18.1162 20.2719 18.0934C20.4226 18.0709 20.5727 18.0442 20.7221 18.0137C20.9536 17.9661 21.1831 17.9079 21.4082 17.836C21.5608 17.7871 21.7119 17.7318 21.8594 17.6688C22.0076 17.6055 22.1527 17.5345 22.2927 17.4541C22.4317 17.3741 22.5657 17.2851 22.6919 17.1854C22.7631 17.1292 22.8319 17.0694 22.8971 17.0064C23.015 16.8927 23.1229 16.7673 23.2156 16.6314C23.3089 16.4948 23.3874 16.3476 23.4476 16.193C23.5079 16.0387 23.5498 15.877 23.5728 15.7128C23.576 15.6909 23.5785 15.6694 23.5807 15.6476C23.6075 15.392 23.5791 15.1336 23.4981 14.8903C23.161 13.8722 22.6562 12.9012 21.9083 12.1289C22.0887 12.0884 23.7346 11.6947 22.8978 10.842C22.089 10.0176 21.6103 11.4906 21.5309 11.7757C21.1014 11.4106 20.6196 11.1216 20.0959 10.9214C19.8355 10.8218 19.5656 10.7446 19.2922 10.6926C19.1557 10.6665 19.0166 10.6466 18.8782 10.6338C18.8091 10.6273 18.7388 10.6228 18.6695 10.6203C18.6127 10.6183 18.5172 10.617 18.4604 10.6212C18.4112 10.6212 18.362 10.6212 18.3132 10.6222H18.3125Z" fill="url(#paint1_linear_70_3523)"/>
<defs>
<linearGradient id="paint0_linear_70_3523" x1="17.0563" y1="0.625244" x2="17.0563" y2="28.9632" gradientUnits="userSpaceOnUse">
<stop stop-color="#A4ACFD"/>
<stop offset="0.302083" stop-color="#727ADE"/>
</linearGradient>
<linearGradient id="paint1_linear_70_3523" x1="18.3128" y1="10.5942" x2="18.3128" y2="18.2175" gradientUnits="userSpaceOnUse">
<stop stop-color="#FFE7AC"/>
<stop offset="1" stop-color="#EDC665"/>
</linearGradient>
</defs>
</svg>
