<svg width="25" height="30" viewBox="0 0 25 30" fill="none" xmlns="http://www.w3.org/2000/svg">
<ellipse cx="12.1465" cy="27.7429" rx="12" ry="1.5" fill="#462097"/>
<path fill-rule="evenodd" clip-rule="evenodd" d="M3.5703 16.0265L2.1507 21.2429L7.36499 19.8202C8.96798 20.7548 10.7909 21.2459 12.6465 21.2429C18.4456 21.2429 23.1465 16.5421 23.1465 10.7429C23.1465 4.94377 18.4456 0.24292 12.6465 0.24292C6.84735 0.24292 2.1465 4.94377 2.1465 10.7429C2.14345 12.5993 2.63489 14.423 3.5703 16.0265Z" fill="#878DDF"/>
<path fill-rule="evenodd" clip-rule="evenodd" d="M23.1114 11.6107C21.2783 15.5286 17.3009 18.2427 12.6895 18.2427C7.99046 18.2427 3.94966 15.4243 2.16533 11.3857C2.26306 13.0189 2.7431 14.6095 3.57048 16.0278L2.15088 21.2442L7.36518 19.8214C8.96816 20.7561 10.7911 21.2472 12.6467 21.2442C18.154 21.2442 22.6709 17.0045 23.1114 11.6107Z" fill="#727BE9"/>
<path d="M17.6465 2.74291C15.1465 1.24292 11.8132 1.40958 10.1465 1.74291C12.9465 1.74291 18.6465 5.40962 21.1465 7.24298C20.8132 6.40962 19.8427 4.06065 17.6465 2.74291Z" fill="#B0B6FF"/>
<path d="M12.895 16.0659L12.1608 15.4285C9.55313 13.1734 7.83154 11.6813 7.83154 9.86074C7.83154 8.36861 9.0569 7.20483 10.6165 7.20483C11.4975 7.20483 12.3431 7.59598 12.895 8.20925C13.4469 7.59598 14.2925 7.20483 15.1736 7.20483C16.7331 7.20483 17.9585 8.36861 17.9585 9.86074C17.9585 11.6813 16.2369 13.1734 13.6292 15.4285L12.895 16.0659Z" fill="white"/>
</svg>
