<svg width="20" height="19" viewBox="0 0 20 19" fill="none" xmlns="http://www.w3.org/2000/svg">
<path d="M8.84937 6.13699V9.93945C8.84937 10.3011 9.04569 10.6421 9.35568 10.8281L12.5795 12.7396C12.9515 12.9566 13.4268 12.8326 13.6438 12.471C13.8608 12.099 13.7471 11.6237 13.3751 11.4067L10.4096 9.6398V6.12665C10.3993 5.71334 10.048 5.36203 9.62433 5.36203C9.20069 5.36203 8.84937 5.71334 8.84937 6.13699ZM19.1822 6.91194V1.4459C19.1822 0.980927 18.6242 0.753606 18.3039 1.08425L16.4646 2.92349C15.4967 1.95553 14.3273 1.21292 13.0396 0.748567C11.7519 0.28421 10.3776 0.109529 9.0147 0.236967C4.68526 0.629613 1.12045 4.11176 0.645143 8.4412C0.393893 10.8688 1.107 13.2978 2.63063 15.2043C4.15426 17.1108 6.36627 18.3419 8.78948 18.6321C11.2127 18.9223 13.6529 18.2483 15.5836 16.7554C17.5143 15.2626 18.7808 13.0707 19.1098 10.6524C19.1822 10.0324 18.6965 9.49514 18.0765 9.49514C17.5599 9.49514 17.1259 9.87745 17.0639 10.3838C16.6196 13.9899 13.5095 16.7798 9.77932 16.7281C5.94586 16.6764 2.7117 13.4423 2.6497 9.59847C2.58771 5.56868 5.8632 2.26219 9.88265 2.26219C11.8769 2.26219 13.6851 3.07848 14.9974 4.38041L12.8378 6.53996C12.5072 6.87061 12.7345 7.42858 13.1995 7.42858H18.6655C18.9548 7.42858 19.1822 7.20126 19.1822 6.91194Z" fill="white"/>
</svg>
