<svg width="32" height="24" viewBox="0 0 32 24" fill="none" xmlns="http://www.w3.org/2000/svg">
<ellipse cx="15.5635" cy="22.3256" rx="15.4263" ry="0.979446" fill="#401B8F"/>
<path d="M31.731 6.27079C23.0515 -1.87789 9.55237 -1.87491 0.87627 6.27079C0.549997 6.57711 0.543629 7.09576 0.859123 7.41351L2.53654 9.10272C2.83733 9.40605 3.32135 9.41251 3.63391 9.12161C10.7825 2.47417 21.8238 2.47268 28.9739 9.12161C29.2865 9.41251 29.7705 9.40555 30.0713 9.10272L31.7487 7.41351C32.0637 7.09576 32.0573 6.57711 31.731 6.27079ZM16.3037 16.0729C14.5719 16.0729 13.1683 17.4975 13.1683 19.2554C13.1683 21.0132 14.5719 22.4379 16.3037 22.4379C18.0354 22.4379 19.439 21.0132 19.439 19.2554C19.439 17.4975 18.0354 16.0729 16.3037 16.0729ZM26.2324 11.9162C20.5859 6.84762 12.0151 6.85309 6.37489 11.9162C6.03686 12.2196 6.02608 12.7462 6.34696 13.0674L8.03417 14.7576C8.32811 15.052 8.80136 15.0719 9.1144 14.7974C13.2271 11.1887 19.3895 11.1967 23.4924 14.7974C23.8055 15.0719 24.2787 15.0525 24.5727 14.7576L26.2599 13.0674C26.5812 12.7462 26.57 12.2191 26.2324 11.9162Z" fill="url(#paint0_linear_70_3690)"/>
<path d="M18.9914 19.6322C18.7956 17.2815 17.1142 16.6938 16.298 16.6938L15.0986 18.3022C15.9148 18.7103 17.6202 19.4363 18.9914 19.6322Z" fill="url(#paint1_linear_70_3690)"/>
<path d="M6.7488 13.0208L7.72824 14.0002C8.62608 12.9392 11.1074 10.3763 13.8498 8.61328C10.9115 9.103 8.46283 10.817 7.23852 11.5516C6.25907 12.1393 6.50393 12.7759 6.7488 13.0208Z" fill="url(#paint2_linear_70_3690)"/>
<defs>
<linearGradient id="paint0_linear_70_3690" x1="16.3037" y1="0.1604" x2="16.3037" y2="22.4379" gradientUnits="userSpaceOnUse">
<stop stop-color="white"/>
<stop offset="1" stop-color="#BF9AFF"/>
</linearGradient>
<linearGradient id="paint1_linear_70_3690" x1="16.9101" y1="16.6938" x2="16.298" y2="18.6527" gradientUnits="userSpaceOnUse">
<stop stop-color="white"/>
<stop offset="1" stop-color="white" stop-opacity="0"/>
</linearGradient>
<linearGradient id="paint2_linear_70_3690" x1="8.70771" y1="9.59273" x2="9.93202" y2="12.0413" gradientUnits="userSpaceOnUse">
<stop stop-color="white"/>
<stop offset="1" stop-color="white" stop-opacity="0"/>
</linearGradient>
</defs>
</svg>
