<svg width="333" height="94" viewBox="0 0 333 94" fill="none" xmlns="http://www.w3.org/2000/svg">
<path d="M18.5328 80.7888C17.2622 80.7888 15.9609 80.6909 14.6719 80.4952C11.5475 79.9754 8.90194 78.7828 6.68603 76.9237C4.58061 75.1624 2.97239 72.9975 1.91048 70.4962C0.866976 68.0316 0.412746 65.353 0.553926 62.5398C0.695105 59.8184 1.40714 57.1948 2.67776 54.7486C4.09569 51.9538 6.03538 49.7093 8.45998 48.0826C8.60116 47.9847 8.74848 47.893 8.8958 47.8013C8.33722 45.404 8.20218 42.9271 8.50295 40.4442C8.816 37.8329 9.6815 35.2765 11.0749 32.8548C12.2596 30.7388 13.8494 28.7696 15.7645 27.0939C17.5876 25.4916 19.6193 24.1951 21.8045 23.2288C23.9529 22.2809 26.2363 21.6571 28.5812 21.3758C29.4651 21.2718 30.3551 21.2168 31.2267 21.2168C32.7429 21.2168 34.2652 21.3758 35.7445 21.6938C38.2243 22.2075 40.4893 23.2655 42.4413 24.8372C44.5529 26.5435 46.0936 28.6656 47.0327 31.1485C47.9105 33.4663 48.2235 35.9982 47.978 38.6768C47.7386 41.2515 46.8793 43.8567 45.4368 46.413C44.5836 47.9664 43.6014 49.3057 42.5027 50.4249C43.8899 53.6233 44.8352 58.5158 42.4781 64.7537C42.4536 64.821 42.429 64.8882 42.3983 64.9555C41.3732 67.469 39.9062 69.8174 38.034 71.9517C36.1803 74.0555 34.0012 75.8351 31.5521 77.2478C29.1459 78.6422 26.488 79.6513 23.6644 80.2506C21.9825 80.6053 20.2638 80.7826 18.539 80.7826L18.5328 80.7888Z" fill="white"/>
<path d="M46.1744 80.183C42.7002 80.183 39.6433 79.3207 37.0837 77.6206C34.4688 75.8776 32.4616 73.3764 31.2769 70.3736C30.2457 67.7622 29.8283 64.8145 30.0431 61.61C30.2273 58.8274 30.8902 55.9225 32.0074 52.9686C34.4872 46.5717 37.9001 41.5202 42.1662 37.8937C46.8558 33.9063 52.239 31.8882 58.1686 31.8882C61.563 31.8882 64.583 32.7383 67.155 34.4078C69.8312 36.1569 71.8691 38.6704 73.0661 41.6854C74.085 44.2723 74.5147 47.171 74.349 50.3145C74.1955 53.1032 73.551 56.0264 72.4154 59.0169C71.2676 62.1114 69.8005 64.9735 68.0695 67.4809C66.3202 70.0067 64.3436 72.2205 62.183 74.0552C59.8873 76.0061 57.3829 77.5227 54.7311 78.5624C51.9935 79.6387 49.1147 80.183 46.1744 80.183Z" fill="white"/>
<path d="M68.6152 93.5874C65.1532 93.5874 62.1578 92.6028 59.7147 90.6703C57.3883 88.8234 55.7126 86.3404 54.8655 83.4783C54.1412 81.0199 53.9939 78.3963 54.4236 75.6626C54.8041 73.2286 55.6144 70.8374 56.8482 68.5563C56.8973 68.4585 56.9525 68.3606 57.0078 68.2689C57.2226 67.9081 57.4375 67.5595 57.6646 67.2109C57.6462 66.8134 57.64 66.4036 57.6462 65.9939C57.6953 63.7005 58.2293 61.2849 59.2789 58.6124C59.5736 57.8785 59.9848 56.8878 60.5373 55.5546L62.2314 51.4571C62.5383 50.7171 62.833 49.9894 63.1092 49.2922C62.9619 49.0904 62.8207 48.8824 62.6918 48.6684C61.2186 46.2344 61.0652 43.1949 62.2867 40.6142L63.9133 37.1833C64.9629 34.9756 66.9026 33.355 69.2167 32.7617C69.6587 32.6456 70.1313 32.5355 70.6285 32.4193C71.3528 32.2358 72.114 32.1013 72.8935 32.0095C73.6792 31.9239 74.4895 31.8811 75.3366 31.8811C79.6088 31.8811 82.5551 33.092 84.5808 34.6392C86.0294 33.2999 87.9322 32.5171 89.964 32.5171H98.5514C101.252 32.5171 103.775 33.9115 105.273 36.2354C106.764 38.5593 107.034 41.4948 105.985 44.0634L104.561 47.5615C104.033 48.858 103.48 50.2401 102.903 51.7201C102.314 53.2184 101.719 54.7656 101.111 56.3679C100.479 58.0314 99.8404 59.6581 99.2021 61.2482C97.8516 64.7524 96.3355 68.5808 94.7334 72.5253C92.2658 78.9712 88.8346 84.0654 84.5194 87.6675C79.8113 91.5937 74.4588 93.5874 68.6152 93.5874Z" fill="white"/>
<path d="M100.19 83.7481C99.2512 83.7481 98.312 83.6563 97.379 83.4729C93.2664 82.7512 89.9517 80.1399 88.2514 76.2932C87.1957 73.8958 86.3363 69.9696 88.2637 64.8937C88.2821 64.8509 105.445 21.8032 105.445 21.8032C105.009 21.4791 104.604 21.0999 104.235 20.6841C102.707 18.9534 101.958 16.6417 102.167 14.3116L102.652 8.94215C102.959 5.52965 105.273 2.66144 108.471 1.71964C109.14 1.52394 109.907 1.32212 110.767 1.12642C111.706 0.887917 112.682 0.710565 113.67 0.588253C114.689 0.465941 115.8 0.404785 116.978 0.404785C125.824 0.404785 130.71 4.18422 133.251 7.35821C136.67 11.633 138.223 17.4673 138.002 25.2035L137.891 28.4753L145.577 18.4274C144.656 16.2625 144.662 13.7674 145.65 11.5841L148.075 6.2146C149.1 3.9396 151.076 2.25781 153.44 1.65237C154.121 1.48113 154.839 1.30378 155.6 1.12642C156.57 0.881801 157.62 0.698334 158.718 0.576022C159.787 0.459825 160.904 0.404785 162.052 0.404785C172.026 0.404785 176.249 5.17495 178.042 9.17454C180.221 14.0548 179.724 20.2682 176.519 28.1635L168.208 49.3356C170.553 49.6964 172.658 51.1091 173.917 53.2435L175.979 56.7416C177.317 59.0105 177.52 61.8053 176.532 64.2516C175.402 67.0403 173.843 69.6516 171.891 72.0061C170.093 74.1833 168.055 76.1464 165.845 77.8404C163.5 79.6384 160.941 81.0694 158.246 82.0968C155.373 83.1793 152.464 83.7297 149.585 83.7297C146.43 83.7297 143.551 83.0937 141.034 81.8339C138.162 80.4028 135.841 78.1645 134.313 75.3697C133.552 73.9692 132.999 72.4464 132.674 70.8075C131.029 72.5688 129.329 73.9448 127.542 74.96C125.161 76.3115 122.755 76.9964 120.397 76.9964C119.36 76.9964 118.329 76.8619 117.334 76.5989C116.162 76.287 115.063 75.7978 114.05 75.1434L112.731 77.9321C111.822 79.8463 110.239 81.3324 108.305 82.0785C107.348 82.4454 106.329 82.7573 105.273 83.0081C104.401 83.2282 103.45 83.4178 102.437 83.5768C101.694 83.693 100.945 83.7481 100.196 83.7481H100.19Z" fill="white"/>
<path d="M179.373 83.3566C174.825 83.3566 170.865 82.2558 167.606 80.0908C164.261 77.8587 161.793 74.7825 160.271 70.9297C158.92 67.5111 158.38 63.6032 158.663 59.2978C158.92 55.4206 159.853 51.3415 161.437 47.1584C165.022 37.9116 169.914 30.6341 175.997 25.4664C182.504 19.9379 189.955 17.137 198.15 17.137C202.594 17.137 206.504 18.2194 209.788 20.3599C213.207 22.5921 215.718 25.6866 217.246 29.5577C218.584 32.9519 219.149 36.8108 218.922 41.0306C218.713 44.8956 217.798 48.9931 216.202 53.2067C214.533 57.7017 212.415 61.8358 209.929 65.4379C207.425 69.0583 204.601 72.2201 201.526 74.8314C198.322 77.559 194.823 79.6811 191.146 81.1244C187.371 82.6044 183.412 83.3566 179.373 83.3566Z" fill="white"/>
<path d="M263.584 83.3563C258.925 83.3563 255.525 82.0476 253.088 80.3658C252.124 81.2587 250.946 81.9069 249.657 82.2372C248.951 82.4206 248.208 82.598 247.416 82.7815C247.355 82.7937 247.299 82.8059 247.238 82.8181C245.489 83.179 243.506 83.3563 241.167 83.3563C236.337 83.3563 232.856 82.2433 230.346 80.6532C229.443 81.3993 228.388 81.9436 227.24 82.2372C226.534 82.4206 225.791 82.598 224.999 82.7815C224.938 82.7937 224.883 82.8059 224.821 82.8181C223.072 83.179 221.089 83.3563 218.75 83.3563C208.739 83.3563 204.553 78.5923 202.797 74.5927C200.673 69.7491 201.128 63.8476 204.215 56.0196C204.743 54.5825 205.418 52.8456 206.222 50.8581C207.02 48.8766 207.849 46.8218 208.69 44.7119C209.525 42.6143 210.304 40.645 211.022 38.792C211.065 38.688 211.102 38.5902 211.139 38.4862C210.366 37.893 209.697 37.153 209.163 36.2969C207.683 33.8995 207.487 30.8968 208.647 28.3221L211.072 22.9526C212.097 20.6776 214.073 18.9958 216.436 18.3904C217.118 18.2192 217.836 18.0418 218.597 17.8645C219.555 17.626 220.561 17.4425 221.605 17.3202C222.654 17.204 223.765 17.1428 224.926 17.1428C229.787 17.1428 233.28 18.3048 235.784 19.9499C236.232 19.7297 236.68 19.5157 237.141 19.3139C240.4 17.8706 243.752 17.1428 247.103 17.1428C251.805 17.1428 255.212 18.3659 257.673 20.0783C258.133 19.8459 258.594 19.6196 259.066 19.4056C262.387 17.9012 265.825 17.1428 269.274 17.1428C278.482 17.1428 282.723 22.2493 284.43 25.2888C287.253 30.328 287.161 36.5721 284.16 44.3817L282.251 49.213C284.577 49.5799 286.67 50.9926 287.922 53.1147L289.985 56.6128C291.323 58.8817 291.525 61.6766 290.537 64.1228C289.408 66.9115 287.849 69.5229 285.897 71.8835C284.043 74.1218 281.944 76.091 279.654 77.7361C277.352 79.3873 274.866 80.7266 272.251 81.7173C269.379 82.7998 266.469 83.3502 263.59 83.3502L263.584 83.3563Z" fill="white"/>
<path d="M293.386 83.3566C288.837 83.3566 284.878 82.2558 281.619 80.0908C278.273 77.8587 275.806 74.7825 274.284 70.9297C272.933 67.5111 272.393 63.6032 272.675 59.2978C272.933 55.4206 273.866 51.3415 275.45 47.1584C279.035 37.9116 283.927 30.6341 290.01 25.4664C296.516 19.9379 303.968 17.137 312.163 17.137C316.607 17.137 320.517 18.2194 323.801 20.3599C327.22 22.5921 329.73 25.6866 331.259 29.5577C332.597 32.9519 333.162 36.8108 332.934 41.0306C332.726 44.8956 331.811 48.9931 330.215 53.2067C328.546 57.7017 326.428 61.8358 323.942 65.4379C321.438 69.0583 318.614 72.2201 315.539 74.8314C312.334 77.559 308.836 79.6811 305.159 81.1244C301.384 82.6044 297.425 83.3566 293.386 83.3566Z" fill="white"/>
<path d="M34.1063 29.8329C35.3953 30.1019 36.5186 30.6156 37.4701 31.3862C38.4215 32.1568 39.109 33.0863 39.5202 34.1749C39.9315 35.2635 40.0727 36.505 39.9438 37.8871C39.8149 39.2692 39.3115 40.7308 38.4338 42.272C37.5069 43.9721 36.4204 45.1157 35.1866 45.7028C33.9467 46.2899 32.8664 46.2899 31.9334 45.7028C31.0065 45.1157 30.4786 44.1739 30.3497 42.8713C30.2208 41.5687 30.5154 40.2783 31.2397 39.0001C31.9641 37.777 32.9032 36.9147 34.0633 36.4071C35.2235 35.8995 36.267 35.9423 37.2 36.5294C37.2491 35.6243 36.9176 34.7987 36.1933 34.0587C35.469 33.3126 34.3641 32.8111 32.8664 32.5421C31.1108 32.2791 29.4597 32.6216 27.9128 33.5817C26.366 34.5357 25.255 35.8445 24.5859 37.4896C23.8125 39.2998 23.8616 41.055 24.7393 42.7551C25.6171 44.4552 27.0596 45.9719 29.0729 47.299C31.8045 48.9991 33.7687 51.0478 34.9534 53.439C36.1381 55.8302 36.1381 58.6006 34.9534 61.7379C34.2843 63.3891 33.3145 64.9302 32.05 66.3674C30.7855 67.8046 29.3001 69.0154 27.5998 69.9939C25.8995 70.9785 24.0396 71.6818 22.0262 72.1099C20.0129 72.538 17.9505 72.5869 15.8389 72.2689C14.2368 71.9998 12.8864 71.4066 11.7754 70.4771C10.6644 69.5475 9.84183 68.4406 9.30166 67.1685C8.7615 65.8904 8.52824 64.496 8.60804 62.9794C8.68784 61.4627 9.08682 60.0133 9.805 58.6312C10.5784 57.09 11.5974 55.8914 12.8618 55.0413C14.1263 54.1912 15.3233 54.0812 16.4589 54.7233C17.3857 55.2554 17.9136 56.1849 18.0425 57.5181C18.1714 58.8452 17.8768 60.1234 17.1525 61.3465C16.4834 62.5146 15.6179 63.3524 14.5621 63.86C13.5064 64.3676 12.512 64.4349 11.5851 64.0618C11.4316 65.0709 11.892 66.0983 12.9785 67.1318C14.0588 68.1715 15.4829 68.8748 17.2323 69.2478C18.11 69.4619 19.0492 69.4619 20.0559 69.2478C21.0625 69.0338 22.0262 68.6607 22.9593 68.1287C23.8861 67.5966 24.7271 66.9178 25.4759 66.0922C26.2248 65.2666 26.8018 64.3248 27.2192 63.2607C27.9926 61.1324 27.8637 59.3283 26.8325 57.8361C25.8013 56.3501 24.0457 54.7233 21.572 52.9681C20.3321 52.1181 19.3009 51.0784 18.4783 49.8553C17.6497 48.6322 17.0727 47.3051 16.7351 45.8679C16.3975 44.4308 16.3238 42.9691 16.5018 41.483C16.6798 39.997 17.1832 38.5292 18.0118 37.0982C18.7853 35.716 19.7796 34.4929 20.9889 33.4288C22.1981 32.3647 23.5301 31.5146 24.9726 30.8786C26.4151 30.2426 27.9251 29.8267 29.4965 29.6433C31.0679 29.4598 32.6024 29.521 34.1002 29.8451L34.1063 29.8329Z" fill="#E81E63"/>
<path d="M58.1688 40.1987C60.0287 40.1987 61.5878 40.6085 62.8523 41.4341C64.1168 42.2597 65.0314 43.3911 65.6022 44.8221C66.167 46.2593 66.4002 47.935 66.2959 49.8491C66.1915 51.7633 65.725 53.812 64.9025 55.9892C63.9756 58.4905 62.84 60.7104 61.4957 62.6491C60.1515 64.5938 58.6722 66.2512 57.0455 67.6333C55.4189 69.0154 53.694 70.0673 51.8587 70.7828C50.0295 71.4983 48.1328 71.8592 46.1686 71.8592C44.2043 71.8592 42.6882 71.4494 41.4482 70.6238C40.2083 69.7982 39.306 68.6668 38.7413 67.2358C38.1766 65.7986 37.9556 64.1107 38.0845 62.1721C38.2134 60.2334 38.6922 58.1725 39.5147 55.9892C41.4728 50.9377 44.0693 47.0421 47.2919 44.3023C50.5144 41.5625 54.1421 40.1926 58.1627 40.1926L58.1688 40.1987ZM56.2353 56.1115C56.8552 54.4664 57.3586 52.9069 57.7453 51.4209C58.132 49.9348 58.3775 48.626 58.4819 47.4885C58.5862 46.351 58.531 45.4337 58.3284 44.7426C58.1197 44.0516 57.7084 43.7091 57.0885 43.7091C56.4685 43.7091 55.7749 44.0577 55.0015 44.7426C54.2281 45.4337 53.4424 46.3449 52.6444 47.4885C51.8464 48.626 51.0607 49.9409 50.2873 51.4209C49.5139 52.9069 48.8141 54.4725 48.2003 56.1115C47.5803 57.7016 47.0647 59.2243 46.6535 60.686C46.2422 62.1415 45.9967 63.4319 45.9169 64.5449C45.8371 65.6579 45.9292 66.5447 46.187 67.2113C46.4448 67.8718 46.8806 68.202 47.5005 68.202C48.1205 68.202 48.8019 67.8718 49.5507 67.2113C50.2996 66.5508 51.0607 65.6579 51.8342 64.5449C52.6076 63.4319 53.381 62.1476 54.1544 60.686C54.9278 59.2305 55.6276 57.7016 56.2414 56.1115H56.2353Z" fill="#E81E63"/>
<path d="M98.5639 40.8401C98.1527 41.8492 97.6739 43.0234 97.1337 44.3505C96.5936 45.6775 96.0227 47.1025 95.4334 48.6191C94.838 50.1358 94.2365 51.7014 93.6165 53.3281C92.9965 54.9488 92.3766 56.5327 91.7566 58.0738C90.3632 61.6882 88.8655 65.4676 87.2696 69.3999C85.3115 74.5554 82.7027 78.4938 79.4556 81.2091C76.2084 83.9183 72.593 85.276 68.6216 85.276C66.9704 85.276 65.6445 84.8785 64.6379 84.0773C63.6312 83.2823 62.9498 82.2671 62.5877 81.044C62.2255 79.8209 62.1641 78.4632 62.3974 76.9771C62.6306 75.4849 63.134 74.0233 63.9074 72.5923C64.6317 71.3691 65.4542 70.305 66.3811 69.3999C65.9146 68.4948 65.6998 67.4185 65.7243 66.1709C65.7489 64.9233 66.0988 63.4433 66.7678 61.7432C67.0256 61.1072 67.4246 60.1348 67.9648 58.8322C68.5049 57.5296 69.0758 56.1597 69.6651 54.7225C70.2543 53.2853 70.8006 51.9277 71.2917 50.6556C71.7828 49.3775 72.1265 48.4479 72.3352 47.8669C72.8017 46.8028 72.8754 45.9405 72.5685 45.2739C72.2616 44.6073 71.5127 44.2771 70.3219 44.2771H69.5484L71.1751 40.8462C71.5863 40.7423 72.0283 40.6322 72.4887 40.5282C72.8999 40.4243 73.3419 40.3448 73.8023 40.2897C74.2688 40.2347 74.7844 40.2102 75.3491 40.2102C78.2893 40.2102 80.1308 41.048 80.8796 42.7237C81.6285 44.3994 81.2786 46.9924 79.8361 50.5027C79.5292 51.2978 79.0996 52.3925 78.5594 53.7746C78.0192 55.1567 77.4606 56.5388 76.8959 57.921C76.276 59.5171 75.6314 61.1683 74.9624 62.8685C74.6555 63.7736 74.6555 64.4524 74.9624 64.905C75.2693 65.3575 75.7481 65.596 76.3926 65.6205C77.0371 65.6449 77.7982 65.4492 78.676 65.0212C79.5538 64.5931 80.3763 63.9326 81.1497 63.0275L89.9704 40.8523H98.5578L98.5639 40.8401ZM71.5557 71.8706C70.4201 71.8706 69.438 71.7116 68.6154 71.3936C67.9464 71.9807 67.3018 72.7513 66.6819 73.7053C66.0619 74.6593 65.5954 75.913 65.2885 77.4541C64.9816 78.7812 65.1473 79.8331 65.7918 80.6037C66.4364 81.3742 67.2773 81.7595 68.3085 81.7595C69.3397 81.7595 70.2789 81.3865 71.2856 80.6404C72.2922 79.8943 73.2437 78.9402 74.146 77.766C75.0483 76.598 75.8893 75.277 76.6627 73.8154C77.4361 72.3537 78.0806 70.9044 78.5962 69.4672C77.4606 70.2133 76.3005 70.7943 75.1158 71.2224C73.9312 71.6505 72.7403 71.8584 71.5557 71.8584V71.8706Z" fill="#E81E63"/>
<path d="M153.446 30.579C151.101 33.5757 148.677 36.7191 146.178 40.0093C143.674 43.2995 141.292 46.4245 139.027 49.3784C136.762 52.3322 134.706 55.023 132.846 57.4326C130.986 59.8482 129.575 61.6768 128.605 62.9305C126.911 65.181 125.253 66.7589 123.639 67.6762C122.024 68.5935 120.588 68.881 119.336 68.5507C118.084 68.2205 117.095 67.2603 116.365 65.6764C115.641 64.0925 115.315 61.9275 115.395 59.1816C115.395 58.3499 115.432 56.8944 115.518 54.809C115.598 52.7297 115.678 50.3568 115.763 47.6905C115.843 45.0241 115.923 42.2353 116.003 39.3243C116.083 36.4133 116.162 33.6613 116.242 31.0805L103.278 63.805C102.308 66.3002 102.167 68.0309 102.855 68.9911C103.542 69.9512 105.175 70.098 107.759 69.4253L105.457 74.2994C104.807 74.5501 104.125 74.7581 103.395 74.9232C102.75 75.0883 102.02 75.2351 101.216 75.3574C100.406 75.4797 99.6015 75.4613 98.7912 75.2962C97.2567 75.0455 96.1886 74.2321 95.5809 72.8622C94.9733 71.4862 95.0346 69.8472 95.7651 67.9269L114.788 20.2131C115.352 18.8004 115.635 17.6751 115.635 16.8434C114.745 15.6753 113.333 15.0944 111.393 15.0944H110.184L110.669 9.72487C111.233 9.55975 111.878 9.39463 112.608 9.22339C113.253 9.05827 113.922 8.92984 114.61 8.85034C115.297 8.77084 116.083 8.72803 116.973 8.72803C121.576 8.72803 124.928 10.0429 127.027 12.6604C129.126 15.2839 130.096 19.3875 129.937 24.9649L128.967 53.5675L157.442 16.3419C156.792 15.5102 155.705 15.0944 154.17 15.0944H152.961L155.386 9.72487C156.03 9.55975 156.718 9.39463 157.448 9.22339C158.093 9.05827 158.799 8.92984 159.566 8.85034C160.333 8.77084 161.162 8.72803 162.052 8.72803C166.656 8.72803 169.541 10.0429 170.713 12.6604C171.885 15.2839 171.339 19.3875 169.074 24.9649L154.901 61.0653C154.25 62.7287 154.336 63.9212 155.14 64.6245C155.944 65.3339 157.055 65.5419 158.473 65.2483C159.885 64.9548 161.401 64.1659 163.016 62.8755C164.63 61.5851 165.962 59.8177 167.012 57.5671L169.074 61.0653C168.264 63.065 167.153 64.9181 165.741 66.6243C164.329 68.3306 162.752 69.8534 161.015 71.1866C159.278 72.5197 157.418 73.5594 155.441 74.3116C153.458 75.0577 151.506 75.4369 149.567 75.4369C147.627 75.4369 145.951 75.0822 144.54 74.3728C143.128 73.6695 142.054 72.6482 141.329 71.315C140.605 69.9818 140.28 68.3183 140.359 66.3185C140.439 64.3187 141.004 62.0315 142.054 59.4507L153.44 30.5974L153.446 30.579Z" fill="#E81E63"/>
<path d="M198.156 25.4543C201.066 25.4543 203.509 26.1026 205.485 27.393C207.462 28.6834 208.898 30.4508 209.788 32.7013C210.678 34.9519 211.04 37.5754 210.881 40.5721C210.715 43.5687 209.991 46.7794 208.702 50.1919C207.247 54.1059 205.473 57.5857 203.373 60.619C201.274 63.6584 198.948 66.2637 196.407 68.4225C193.859 70.5874 191.152 72.2325 188.292 73.3578C185.425 74.483 182.454 75.0457 179.385 75.0457C176.316 75.0457 173.934 74.3974 171.995 73.107C170.055 71.8166 168.643 70.0492 167.753 67.7987C166.863 65.5482 166.526 62.9062 166.722 59.8668C166.925 56.8273 167.673 53.6044 168.962 50.1858C172.032 42.2783 176.089 36.175 181.141 31.8879C186.186 27.6009 191.864 25.4543 198.162 25.4543H198.156ZM195.13 50.3754C196.1 47.8007 196.885 45.3545 197.493 43.0306C198.101 40.7066 198.481 38.6518 198.647 36.866C198.807 35.0803 198.727 33.6492 198.408 32.5729C198.082 31.4965 197.438 30.9523 196.468 30.9523C195.498 30.9523 194.406 31.4965 193.196 32.5729C191.987 33.6492 190.753 35.0864 189.501 36.866C188.249 38.6518 187.015 40.7066 185.806 43.0306C184.597 45.3545 183.504 47.8068 182.534 50.3754C181.564 52.8644 180.754 55.2495 180.11 57.5367C179.459 59.8178 179.078 61.8299 178.956 63.5728C178.833 65.3158 178.974 66.704 179.379 67.7437C179.784 68.7833 180.472 69.297 181.442 69.297C182.411 69.297 183.479 68.7772 184.652 67.7437C185.824 66.704 187.015 65.3158 188.224 63.5728C189.434 61.8299 190.649 59.8178 191.858 57.5367C193.067 55.2556 194.16 52.8705 195.13 50.3754Z" fill="#E81E63"/>
<path d="M268.913 60.9306C268.262 62.5146 268.348 63.6398 269.152 64.3003C269.956 64.9669 271.049 65.1749 272.424 64.9241C273.799 64.6734 275.309 63.9273 276.966 62.6736C278.623 61.426 279.974 59.6769 281.023 57.4264L283.086 60.9245C282.276 62.9243 281.165 64.7773 279.753 66.4836C278.341 68.1898 276.763 69.6698 275.026 70.9174C273.289 72.165 271.429 73.1679 269.453 73.914C267.47 74.6601 265.518 75.0393 263.579 75.0393C259.619 75.0393 256.876 73.7061 255.341 71.0397C253.806 68.3733 254.089 64.4226 256.188 59.1755L263.941 39.6912C264.426 38.4436 264.487 37.4835 264.125 36.8169C263.763 36.1503 263.137 35.7527 262.247 35.6304C261.356 35.5081 260.307 35.6488 259.098 36.0646C257.888 36.4805 256.716 37.1899 255.587 38.1867C255.421 38.6882 255.243 39.1836 255.04 39.6851C254.838 40.1865 254.654 40.7247 254.494 41.3118L245.771 63.1689C245.121 64.918 245.047 66.294 245.526 67.2908C246.011 68.2877 247.14 68.7892 248.92 68.7892H250.13L247.705 74.1587C247.061 74.3238 246.373 74.4889 245.643 74.6601C244.433 74.9109 242.936 75.0332 241.162 75.0332C236.558 75.0332 233.667 73.7428 232.501 71.162C231.328 68.5812 231.875 64.5388 234.133 59.047C234.618 57.879 235.263 56.2155 236.073 54.0506C236.877 51.8857 237.73 49.7208 238.62 47.5558C239.59 45.0607 240.64 42.4371 241.769 39.6851C242.254 38.4375 242.273 37.459 241.831 36.7496C241.389 36.0463 240.72 35.6243 239.83 35.502C238.94 35.3797 237.89 35.5632 236.681 36.0646C235.472 36.5661 234.256 37.355 233.047 38.4375C232.881 38.939 232.703 39.4343 232.501 39.9358C232.298 40.4373 232.114 40.9755 231.954 41.5626C231.469 42.8958 230.782 44.6448 229.892 46.8097C229.002 48.9746 228.136 51.164 227.289 53.3656C226.442 55.5734 225.656 57.5915 224.926 59.4262C224.202 61.2609 223.717 62.5085 223.471 63.1751C222.747 64.9241 222.624 66.3001 223.109 67.297C223.594 68.2938 224.766 68.7953 226.62 68.7953H227.829L225.282 74.1648C224.631 74.3299 223.95 74.495 223.22 74.6662C222.01 74.917 220.513 75.0393 218.739 75.0393C214.135 75.0393 211.268 73.7489 210.139 71.1681C209.01 68.5874 209.531 64.5449 211.717 59.0531C212.201 57.7199 212.846 56.0565 213.656 54.0567C214.46 52.0569 215.295 49.996 216.142 47.8738C216.989 45.7517 217.775 43.7519 218.505 41.8806C219.23 40.0092 219.837 38.5292 220.322 37.4468C220.967 35.7833 221.047 34.4318 220.568 33.386C220.083 32.3464 218.953 31.8265 217.173 31.8265H215.964L218.389 26.457C219.033 26.2919 219.721 26.1268 220.451 25.9556C221.096 25.7904 221.783 25.662 222.514 25.5825C223.238 25.503 224.048 25.4602 224.938 25.4602C230.266 25.4602 233.299 27.2949 234.023 30.9581C235.963 29.2947 238.062 27.9615 240.327 26.9646C242.586 25.9678 244.851 25.4663 247.11 25.4663C252.039 25.4663 254.985 27.3805 255.955 31.215C257.895 29.4659 260.012 28.0716 262.314 27.0319C264.616 25.9923 266.936 25.4724 269.281 25.4724C273.24 25.4724 275.965 26.8056 277.457 29.472C278.949 32.1384 278.685 36.0952 276.671 41.3363L268.919 60.949L268.913 60.9306Z" fill="#E81E63"/>
<path d="M312.168 25.4543C315.078 25.4543 317.521 26.1026 319.497 27.393C321.474 28.6834 322.91 30.4508 323.8 32.7013C324.69 34.9519 325.052 37.5754 324.893 40.5721C324.727 43.5687 324.003 46.7794 322.714 50.1919C321.259 54.1059 319.485 57.5857 317.386 60.619C315.286 63.6584 312.96 66.2637 310.419 68.4225C307.871 70.5874 305.164 72.2325 302.304 73.3578C299.437 74.483 296.467 75.0457 293.397 75.0457C290.328 75.0457 287.947 74.3974 286.007 73.107C284.067 71.8166 282.656 70.0492 281.765 67.7987C280.875 65.5482 280.538 62.9062 280.734 59.8668C280.937 56.8273 281.686 53.6044 282.975 50.1858C286.044 42.2783 290.101 36.175 295.153 31.8879C300.199 27.6009 305.876 25.4543 312.174 25.4543H312.168ZM309.142 50.3754C310.112 47.8007 310.898 45.3545 311.505 43.0306C312.113 40.7066 312.494 38.6518 312.659 36.866C312.819 35.0803 312.739 33.6492 312.42 32.5729C312.095 31.4965 311.45 30.9523 310.48 30.9523C309.51 30.9523 308.418 31.4965 307.208 32.5729C305.999 33.6492 304.765 35.0864 303.513 36.866C302.261 38.6518 301.027 40.7066 299.818 43.0306C298.609 45.3545 297.516 47.8068 296.546 50.3754C295.577 52.8644 294.766 55.2495 294.122 57.5367C293.471 59.8178 293.091 61.8299 292.968 63.5728C292.845 65.3158 292.986 66.704 293.391 67.7437C293.796 68.7833 294.484 69.297 295.454 69.297C296.424 69.297 297.492 68.7772 298.664 67.7437C299.836 66.704 301.027 65.3158 302.237 63.5728C303.446 61.8299 304.661 59.8178 305.87 57.5367C307.08 55.2556 308.172 52.8705 309.142 50.3754Z" fill="#E81E63"/>
</svg>
