<svg width="26" height="26" viewBox="0 0 26 26" fill="none" xmlns="http://www.w3.org/2000/svg">
<path d="M12.821 0.200684C16.1995 0.200684 19.4397 1.5428 21.8287 3.93177C24.2176 6.32075 25.5598 9.5609 25.5598 12.9394C25.5598 16.3179 24.2176 19.5581 21.8287 21.9471C19.4397 24.336 16.1995 25.6782 12.821 25.6782C9.44249 25.6782 6.20234 24.336 3.81337 21.9471C1.42439 19.5581 0.0822754 16.3179 0.0822754 12.9394C0.0822754 9.5609 1.42439 6.32075 3.81337 3.93177C6.20234 1.5428 9.44249 0.200684 12.821 0.200684ZM13.4962 5.64558C12.0148 5.64558 10.8538 6.06596 9.99301 6.90672C9.11222 7.74748 8.69184 8.90852 8.69184 10.3899H10.9739C10.9739 9.5491 11.134 8.8885 11.4743 8.42809C11.8547 7.86758 12.4752 7.60735 13.356 7.60735C14.0367 7.60735 14.5771 7.78751 14.9575 8.16785C15.3178 8.5482 15.518 9.06867 15.518 9.72926C15.518 10.2297 15.3378 10.7101 14.9775 11.1505L14.7373 11.4308C13.4361 12.5918 12.6554 13.4326 12.3952 13.9731C12.1149 14.5136 11.9948 15.1742 11.9948 15.9348V16.2151H14.2969V15.9348C14.2969 15.4544 14.397 15.034 14.5972 14.6337C14.7773 14.2733 15.0376 13.933 15.3979 13.6328C16.3587 12.792 16.9393 12.2515 17.1194 12.0514C17.5999 11.4108 17.8601 10.59 17.8601 9.58913C17.8601 8.36803 17.4597 7.40717 16.659 6.70654C15.8583 5.98589 14.7973 5.64558 13.4962 5.64558ZM13.1358 17.196C12.7277 17.1849 12.3318 17.3361 12.0349 17.6164C11.8883 17.7544 11.7731 17.9224 11.6971 18.1089C11.6211 18.2955 11.5861 18.4961 11.5945 18.6973C11.5945 19.1377 11.7346 19.4981 12.0349 19.7783C12.3295 20.0643 12.7252 20.2226 13.1358 20.2187C13.5762 20.2187 13.9366 20.0786 14.2368 19.7983C14.3865 19.6574 14.5049 19.4865 14.5842 19.2968C14.6636 19.1071 14.7021 18.9029 14.6972 18.6973C14.7011 18.4967 14.664 18.2974 14.5883 18.1115C14.5126 17.9257 14.3998 17.7572 14.2569 17.6164C13.9522 17.3356 13.55 17.1848 13.1358 17.196Z" fill="#F8F8F8"/>
</svg>
