<svg width="40" height="28" viewBox="0 0 40 28" fill="none" xmlns="http://www.w3.org/2000/svg">
<ellipse cx="28.6573" cy="20.9323" rx="10.6329" ry="1.06021" fill="#462097"/>
<path d="M33.2351 12.4583C34.5671 12.4583 35.8476 12.9741 36.8096 13.8979C37.7716 14.8217 38.3409 16.0823 38.3987 17.4168L38.4039 17.6418V18.6785C38.4041 19.2016 38.2071 19.7054 37.8524 20.089C37.4977 20.4725 37.0116 20.7075 36.4915 20.7467L36.3364 20.7519H21.8639C21.3423 20.7521 20.8399 20.5545 20.4574 20.1988C20.075 19.8431 19.8407 19.3556 19.8016 18.834L19.7964 18.6785V17.6418C19.7965 16.306 20.3107 15.0219 21.2319 14.0571C22.1531 13.0923 23.4101 12.5214 24.7408 12.4635L24.9651 12.4583H33.2351ZM29.1001 0.0178223C30.471 0.0178223 31.7857 0.563941 32.755 1.53604C33.7243 2.50814 34.2689 3.82659 34.2689 5.20134C34.2689 6.5761 33.7243 7.89454 32.755 8.86664C31.7857 9.83874 30.471 10.3849 29.1001 10.3849C27.7293 10.3849 26.4146 9.83874 25.4453 8.86664C24.476 7.89454 23.9314 6.5761 23.9314 5.20134C23.9314 3.82659 24.476 2.50814 25.4453 1.53604C26.4146 0.563941 27.7293 0.0178223 29.1001 0.0178223Z" fill="#FF84B6"/>
<ellipse cx="16.5598" cy="26.2401" rx="15.7473" ry="1.26454" fill="#462097"/>
<path d="M20.6297 16.4823C22.2296 16.4824 23.7677 17.1019 24.9233 18.2116C26.0789 19.3213 26.7627 20.8355 26.8321 22.4384L26.8383 22.7087V23.9539C26.8385 24.5823 26.6019 25.1875 26.1759 25.6482C25.7498 26.1089 25.1659 26.3911 24.5411 26.4383L24.3549 26.4445H6.97075C6.34421 26.4447 5.74074 26.2074 5.28133 25.7801C4.82191 25.3529 4.5405 24.7673 4.49351 24.1407L4.4873 23.9539V22.7087C4.4874 21.1042 5.10511 19.5617 6.21164 18.4028C7.31816 17.2439 8.82806 16.5582 10.4265 16.4885L10.6959 16.4823H20.6297ZM15.6628 1.53906C17.3094 1.53906 18.8886 2.19505 20.053 3.36272C21.2173 4.53039 21.8714 6.11409 21.8714 7.76542C21.8714 9.41675 21.2173 11.0004 20.053 12.1681C18.8886 13.3358 17.3094 13.9918 15.6628 13.9918C14.0162 13.9918 12.437 13.3358 11.2727 12.1681C10.1083 11.0004 9.4542 9.41675 9.4542 7.76542C9.4542 6.11409 10.1083 4.53039 11.2727 3.36272C12.437 2.19505 14.0162 1.53906 15.6628 1.53906Z" fill="#C5C9F4"/>
</svg>
