<svg width="35" height="36" viewBox="0 0 35 36" fill="none" xmlns="http://www.w3.org/2000/svg">
<ellipse cx="17.6746" cy="32.9063" rx="17.1189" ry="2.40266" fill="#462097"/>
<rect width="18.3943" height="29.0675" rx="1.87783" transform="matrix(-1 8.74228e-08 8.74228e-08 1 27.0381 4.00671)" fill="#A4ACFD"/>
<path d="M22.7236 2.02407C22.7236 0.986972 21.8829 0.14624 20.8458 0.14624L14.8366 0.146241C13.7995 0.146241 12.9588 0.986974 12.9588 2.02407L12.9588 3.55259L22.7236 3.55259L22.7236 2.02407Z" fill="#A4ACFD"/>
<path fill-rule="evenodd" clip-rule="evenodd" d="M25.1603 4.00684C26.1974 4.00684 27.0381 4.84757 27.0381 5.88467L27.0381 31.1965C27.0381 32.2336 26.1974 33.0743 25.1603 33.0743L17.9543 33.0743L17.9543 4.00684L25.1603 4.00684Z" fill="#727ADE"/>
<path fill-rule="evenodd" clip-rule="evenodd" d="M20.8458 0.146266C21.8829 0.146266 22.7236 0.986997 22.7236 2.02409L22.7236 3.55261L17.9546 3.55261L17.9546 0.146266L20.8458 0.146266Z" fill="#727ADE"/>
<path fill-rule="evenodd" clip-rule="evenodd" d="M17.9541 22.3119L19.0516 23.0823L19.0516 19.8462L24.5396 19.8462L17.9541 15.2234L17.9541 22.3119Z" fill="#EDC665"/>
<path fill-rule="evenodd" clip-rule="evenodd" d="M11.3687 17.6889L16.8567 17.6889L16.8567 14.4529L17.9539 15.2231L17.9539 22.3115L11.3687 17.6889Z" fill="#FFB600"/>
</svg>
