<svg width="105" height="185" viewBox="0 0 105 185" fill="none" xmlns="http://www.w3.org/2000/svg">
<g clip-path="url(#clip0_1_5907)">
<path d="M88.2959 63.6041V61.8761H88.4307C88.4624 61.8761 88.4822 61.892 88.4901 61.9237L88.5099 62.0782C88.5654 62.0109 88.6288 61.9593 88.7001 61.9157C88.7715 61.8761 88.8547 61.8563 88.9459 61.8563C89.0212 61.8563 89.0885 61.8721 89.148 61.8999C89.2074 61.9276 89.259 61.9712 89.3026 62.0267C89.3462 62.0822 89.3779 62.1496 89.4016 62.2328C89.4254 62.316 89.4373 62.4111 89.4373 62.5181C89.4373 62.6133 89.4254 62.7005 89.3977 62.7837C89.3739 62.8669 89.3343 62.9383 89.2867 62.9977C89.2391 63.0571 89.1797 63.1047 89.1123 63.1404C89.041 63.176 88.9657 63.1919 88.8785 63.1919C88.7992 63.1919 88.7319 63.18 88.6764 63.1523C88.6209 63.1245 88.5694 63.0889 88.5258 63.0413V63.612H88.2999L88.2959 63.6041ZM88.8706 62.0386C88.7953 62.0386 88.7319 62.0545 88.6764 62.0901C88.6209 62.1258 88.5694 62.1733 88.5218 62.2328V62.855C88.5614 62.9105 88.609 62.9501 88.6566 62.9739C88.7081 62.9977 88.7636 63.0096 88.823 63.0096C88.9419 63.0096 89.0331 62.966 89.1004 62.8828C89.1638 62.7956 89.1995 62.6767 89.1995 62.5142C89.1995 62.431 89.1916 62.3596 89.1757 62.2962C89.1599 62.2368 89.1401 62.1852 89.1123 62.1496C89.0846 62.1099 89.0489 62.0822 89.0093 62.0663C88.9696 62.0465 88.9221 62.0386 88.8706 62.0386Z" fill="white"/>
<path d="M89.7046 63.1682V61.8762H89.8394C89.8711 61.8762 89.8909 61.8921 89.8988 61.9238L89.9147 62.0545C89.9623 61.9951 90.0177 61.9475 90.0732 61.9119C90.1287 61.8762 90.2 61.8564 90.2793 61.8564C90.3665 61.8564 90.4378 61.8802 90.4894 61.9277C90.5448 61.9753 90.5805 62.0427 90.6043 62.1259C90.6201 62.0783 90.6439 62.0387 90.6756 62.003C90.7034 61.9674 90.739 61.9396 90.7747 61.9198C90.8104 61.896 90.85 61.8802 90.8896 61.8722C90.9293 61.8603 90.9729 61.8564 91.0165 61.8564C91.0838 61.8564 91.1433 61.8683 91.1988 61.8881C91.2503 61.9079 91.2979 61.9396 91.3335 61.9832C91.3692 62.0228 91.3969 62.0744 91.4168 62.1378C91.4366 62.1972 91.4445 62.2686 91.4445 62.3478V63.1682H91.2186V62.3478C91.2186 62.2487 91.1988 62.1695 91.1552 62.118C91.1116 62.0664 91.0482 62.0387 90.961 62.0387C90.9253 62.0387 90.8896 62.0466 90.854 62.0585C90.8223 62.0704 90.7906 62.0902 90.7668 62.118C90.743 62.1417 90.7232 62.1734 90.7073 62.2131C90.6915 62.2527 90.6836 62.2963 90.6836 62.3478V63.1682H90.4577V62.3478C90.4577 62.2448 90.4378 62.1655 90.3982 62.114C90.3586 62.0625 90.2952 62.0387 90.2159 62.0387C90.1604 62.0387 90.1089 62.0545 90.0613 62.0823C90.0138 62.114 89.9702 62.1536 89.9306 62.2051V63.1682H89.7007H89.7046Z" fill="white"/>
<path d="M102.492 65.0114C102.492 65.0114 101.513 50.6805 93.1151 43.3089L84.5784 36.508C83.4568 35.5489 79.6798 32.8777 79.6798 32.8777C79.5332 32.7905 79.3905 32.7073 79.2518 32.6201C73.4417 24.5114 74.2066 11.4803 74.2066 11.4803C74.2066 7.47748 69.0624 0.47052 51.2002 0.47052C33.338 0.47052 28.7724 7.47748 28.7724 11.4803C28.7724 21.749 24.504 31.118 21.6941 33.7734C19.7878 35.0694 17.8141 36.508 17.8141 36.508L9.1188 43.3089C9.1188 43.3089 0.459184 49.1507 0.177796 64.734C-0.103592 80.3134 0.177796 120.381 0.177796 120.381C0.177796 120.381 -1.22122 131.094 6.19792 140.277C6.19792 140.277 11.2352 146.816 16.5538 149.737C19.0348 151.1 21.8486 152.975 24.1869 154.929C29.4976 162.875 28.7724 175.407 28.7724 175.407C28.7724 179.41 37.8006 184.383 51.4895 184.383C67.0293 184.383 74.2066 179.414 74.2066 175.407C74.2066 165.007 78.582 155.622 81.388 153.015C85.4423 149.876 89.7504 146.677 89.7504 146.677C89.7504 146.677 101.925 139.024 102.488 120.802V99.2378C102.488 99.2378 100.11 92.2823 102.488 87.5502V65.0114H102.492Z" fill="#F4639F"/>
<path d="M7.87817 61.6704C7.87817 61.6704 8.29828 43.1662 30.8331 41.9178H71.7017C71.7017 41.9178 93.3964 41.9178 94.2366 64.5953C94.2366 64.5953 94.6567 122.327 94.2366 122.886C93.8165 123.441 93.3964 141.39 72.5419 144.034H28.4512C28.4512 144.034 8.01689 142.92 7.87817 120.385V61.6704Z" fill="#FF94C0"/>
<path d="M15.4361 65.8437C15.4361 65.8437 13.8983 55.69 24.1155 50.5418C24.1155 50.5418 25.3758 50.5418 26.3547 49.2894C26.3547 49.2894 27.615 46.3685 31.5346 46.9233C31.5346 46.9233 33.3538 47.2008 34.194 49.1507C34.194 49.1507 35.0342 49.8482 37.4121 49.7055C39.79 49.5668 71.9832 49.5668 71.9832 49.5668C71.9832 49.5668 85.8386 49.5668 86.12 63.0615C86.4014 76.5563 86.12 121.214 86.12 121.214C86.12 121.214 87.2415 134.847 72.6847 136.1H58.2705C58.2705 136.1 56.8715 136.1 56.3126 136.936C55.7538 137.772 52.9518 139.441 49.1749 138.882C49.1749 138.882 46.9357 138.743 44.5578 136.654C44.5578 136.654 44.2764 136.238 41.8984 136.238C39.5205 136.238 30.1436 136.377 30.1436 136.377C30.1436 136.377 15.7016 135.961 15.3647 121.491L15.448 65.8437H15.4361Z" fill="#1D1D1B"/>
<path d="M102.892 87.6101C103.383 87.8201 104.215 88.375 104.311 90.4676C104.311 90.4676 104.731 96.448 104.311 97.9818C104.311 97.9818 103.752 99.5116 102.491 99.2342C102.491 99.2342 100.617 96.1746 101.814 88.7872C101.814 88.7872 102.052 87.7805 102.491 87.5506C102.491 87.5506 102.682 87.5229 102.892 87.614V87.6101Z" fill="#B3DFF1"/>
<path d="M30.269 54.858C31.5823 54.858 32.647 53.7987 32.647 52.492C32.647 51.1853 31.5823 50.126 30.269 50.126C28.9557 50.126 27.8911 51.1853 27.8911 52.492C27.8911 53.7987 28.9557 54.858 30.269 54.858Z" fill="#4D4C4C"/>
<path d="M50.6678 134.915C52.3488 134.915 53.7115 133.561 53.7115 131.891C53.7115 130.221 52.3488 128.867 50.6678 128.867C48.9868 128.867 47.624 130.221 47.624 131.891C47.624 133.561 48.9868 134.915 50.6678 134.915Z" stroke="#757576" stroke-width="0.435975" stroke-miterlimit="10"/>
<path d="M82.9923 60.9767H18.6892V124.891H82.9923V60.9767Z" fill="#2D2D2D"/>
<path d="M60.7484 81.5435C60.7484 80.8747 60.4827 80.2333 60.0098 79.7603C59.5369 79.2874 58.8955 79.0217 58.2266 79.0217H48.1394L40.574 86.5872V101.718C40.574 102.387 40.8397 103.028 41.3126 103.501C41.7855 103.974 42.427 104.24 43.0958 104.24H58.2266C58.8955 104.24 59.5369 103.974 60.0098 103.501C60.4827 103.028 60.7484 102.387 60.7484 101.718V81.5435ZM46.8785 100.457H44.3567V97.9353H46.8785V100.457ZM56.9657 100.457H54.4439V97.9353H56.9657V100.457ZM46.8785 95.4135H44.3567V90.3699H46.8785V95.4135ZM51.9221 100.457H49.4003V95.4135H51.9221V100.457ZM51.9221 92.8917H49.4003V90.3699H51.9221V92.8917ZM56.9657 95.4135H54.4439V90.3699H56.9657V95.4135Z" fill="#F8F8F8"/>
</g>
<defs>
<clipPath id="clip0_1_5907">
<rect width="104.443" height="183.909" fill="white" transform="translate(0.0551758 0.47052)"/>
</clipPath>
</defs>
</svg>
