<svg width="128" height="37" viewBox="0 0 128 37" fill="none" xmlns="http://www.w3.org/2000/svg">
<path d="M7.02749 31.1819C6.54194 31.1819 6.04466 31.1443 5.55207 31.0693C4.35813 30.8699 3.34715 30.4125 2.50037 29.6994C1.69581 29.0239 1.08125 28.1935 0.675449 27.2341C0.276687 26.2888 0.103109 25.2614 0.157059 24.1824C0.211009 23.1386 0.483105 22.1323 0.968656 21.1941C1.5105 20.1221 2.25173 19.2612 3.17826 18.6373C3.23221 18.5998 3.28851 18.5646 3.34481 18.5294C3.13135 17.6099 3.07975 16.6599 3.19468 15.7076C3.31431 14.706 3.64505 13.7255 4.17751 12.7966C4.63023 11.985 5.23775 11.2297 5.96959 10.587C6.66625 9.97244 7.44267 9.47516 8.27772 9.10455C9.0987 8.74097 9.97128 8.50171 10.8673 8.39381C11.2051 8.35394 11.5452 8.33282 11.8783 8.33282C12.4577 8.33282 13.0394 8.39381 13.6047 8.51579C14.5524 8.71282 15.4179 9.11862 16.1638 9.72145C16.9707 10.3759 17.5595 11.1898 17.9184 12.1422C18.2538 13.0312 18.3734 14.0023 18.2796 15.0297C18.1881 16.0172 17.8597 17.0164 17.3085 17.9969C16.9825 18.5927 16.6071 19.1064 16.1873 19.5357C16.7174 20.7625 17.0786 22.639 16.1779 25.0315C16.1685 25.0574 16.1591 25.0832 16.1474 25.109C15.7557 26.073 15.1951 26.9737 14.4796 27.7924C13.7712 28.5993 12.9385 29.2819 12.0026 29.8237C11.0831 30.3585 10.0675 30.7456 8.98845 30.9754C8.34574 31.1115 7.68896 31.1795 7.02983 31.1795L7.02749 31.1819Z" fill="white"/>
<path d="M17.5901 30.9499C16.2625 30.9499 15.0943 30.6192 14.1162 29.9671C13.117 29.2986 12.3499 28.3392 11.8972 27.1875C11.5031 26.1859 11.3436 25.0553 11.4257 23.8262C11.4961 22.7589 11.7494 21.6447 12.1764 20.5117C13.124 18.0582 14.4282 16.1207 16.0584 14.7297C17.8505 13.2003 19.9076 12.4263 22.1735 12.4263C23.4707 12.4263 24.6248 12.7523 25.6076 13.3927C26.6303 14.0635 27.409 15.0276 27.8664 16.184C28.2558 17.1762 28.42 18.2881 28.3567 19.4937C28.298 20.5634 28.0518 21.6846 27.6178 22.8316C27.1792 24.0185 26.6186 25.1163 25.9571 26.078C25.2886 27.0467 24.5333 27.8959 23.7076 28.5996C22.8303 29.3478 21.8733 29.9296 20.86 30.3283C19.8138 30.7412 18.7137 30.9499 17.5901 30.9499Z" fill="white"/>
<path d="M26.1657 36.0919C24.8428 36.0919 23.6981 35.7142 22.7645 34.973C21.8755 34.2646 21.2352 33.3123 20.9115 32.2145C20.6347 31.2715 20.5784 30.2653 20.7426 29.2167C20.888 28.2832 21.1976 27.366 21.6691 26.4911C21.6879 26.4536 21.709 26.416 21.7301 26.3808C21.8122 26.2425 21.8943 26.1087 21.9811 25.975C21.9741 25.8226 21.9717 25.6654 21.9741 25.5083C21.9928 24.6286 22.1969 23.7021 22.598 22.6771C22.7106 22.3956 22.8677 22.0156 23.0789 21.5042L23.7263 19.9326C23.8435 19.6488 23.9561 19.3697 24.0617 19.1023C24.0054 19.0249 23.9514 18.9451 23.9022 18.863C23.3392 17.9294 23.2806 16.7637 23.7474 15.7738L24.369 14.4579C24.7701 13.6111 25.5113 12.9895 26.3956 12.762C26.5645 12.7174 26.7451 12.6752 26.9351 12.6306C27.2119 12.5602 27.5028 12.5086 27.8007 12.4735C28.1009 12.4406 28.4105 12.4242 28.7342 12.4242C30.3668 12.4242 31.4927 12.8886 32.2668 13.4821C32.8204 12.9684 33.5475 12.6681 34.3239 12.6681H37.6055C38.6376 12.6681 39.6017 13.203 40.174 14.0943C40.744 14.9857 40.8472 16.1116 40.4461 17.0967L39.9019 18.4385C39.7002 18.9357 39.4891 19.4659 39.2686 20.0335C39.0434 20.6082 38.8159 21.2016 38.5836 21.8162C38.342 22.4542 38.0981 23.0782 37.8541 23.688C37.3381 25.0321 36.7587 26.5005 36.1465 28.0134C35.2035 30.4857 33.8923 32.4397 32.2433 33.8213C30.4442 35.3272 28.3988 36.0919 26.1657 36.0919Z" fill="white"/>
<path d="M38.2316 32.3177C37.8727 32.3177 37.5138 32.2825 37.1573 32.2121C35.5857 31.9353 34.319 30.9337 33.6693 29.4583C33.2658 28.5388 32.9374 27.0329 33.674 25.086C33.681 25.0696 40.2395 8.55853 40.2395 8.55853C40.0729 8.43421 39.9181 8.28877 39.7774 8.12927C39.1933 7.46545 38.9071 6.57879 38.9869 5.6851L39.1722 3.62561C39.2895 2.31673 40.1738 1.21662 41.3959 0.85539C41.6516 0.780329 41.9448 0.702923 42.2731 0.627862C42.632 0.536381 43.005 0.468357 43.3826 0.421444C43.772 0.374531 44.1966 0.351074 44.647 0.351074C48.027 0.351074 49.8942 1.80069 50.8653 3.01809C52.1718 4.6577 52.7653 6.89546 52.6808 9.86271L52.6386 11.1176L55.5754 7.26372C55.2235 6.43336 55.2259 5.47633 55.6035 4.63893L56.53 2.57945C56.9218 1.70686 57.6771 1.06181 58.5801 0.829588C58.8405 0.76391 59.115 0.695886 59.4058 0.627862C59.7764 0.534035 60.1775 0.463666 60.5974 0.416753C61.0056 0.372185 61.4325 0.351074 61.8711 0.351074C65.6828 0.351074 67.2966 2.18069 67.9815 3.71475C68.8142 5.58658 68.6242 7.96977 67.3998 10.998L64.2238 19.1187C65.1198 19.2571 65.9244 19.7989 66.4053 20.6175L67.1934 21.9593C67.7047 22.8295 67.7822 23.9015 67.4045 24.8397C66.9729 25.9093 66.3771 26.9109 65.6312 27.814C64.9439 28.6491 64.1652 29.402 63.3207 30.0518C62.4247 30.7414 61.4465 31.2903 60.4168 31.6844C59.319 32.0995 58.2072 32.3106 57.1071 32.3106C55.9014 32.3106 54.8013 32.0667 53.8396 31.5835C52.7418 31.0346 51.8552 30.1761 51.2711 29.1041C50.9802 28.567 50.7691 27.9829 50.6448 27.3543C50.0162 28.0298 49.3664 28.5576 48.6838 28.947C47.7737 29.4654 46.8542 29.7281 45.9535 29.7281C45.5571 29.7281 45.163 29.6765 44.783 29.5756C44.335 29.456 43.9151 29.2683 43.5281 29.0173L43.0238 30.087C42.6766 30.8211 42.0714 31.3911 41.3325 31.6773C40.9666 31.8181 40.5772 31.9377 40.1738 32.0339C39.8407 32.1183 39.4771 32.191 39.0901 32.252C38.8063 32.2966 38.5201 32.3177 38.2339 32.3177H38.2316Z" fill="white"/>
<path d="M68.4909 32.1679C66.7527 32.1679 65.2398 31.7456 63.9943 30.9153C62.7159 30.0591 61.7729 28.8793 61.1912 27.4015C60.6751 26.0903 60.4687 24.5914 60.5766 22.9401C60.6751 21.4529 61.0317 19.8884 61.6369 18.2839C63.0067 14.7373 64.8762 11.946 67.2008 9.96389C69.6872 7.84341 72.5348 6.7691 75.6662 6.7691C77.3645 6.7691 78.8587 7.18429 80.1136 8.00526C81.4201 8.86143 82.3795 10.0483 82.9636 11.5331C83.4749 12.835 83.6907 14.3151 83.6039 15.9336C83.5242 17.416 83.1747 18.9876 82.5648 20.6038C81.9268 22.3278 81.1175 23.9135 80.1676 25.2951C79.2105 26.6837 78.1315 27.8964 76.9564 28.898C75.7319 29.9442 74.3949 30.7581 72.9898 31.3117C71.5473 31.8793 70.0343 32.1679 68.4909 32.1679Z" fill="white"/>
<path d="M100.671 32.1678C98.8906 32.1678 97.5911 31.6659 96.6598 31.0208C96.2916 31.3633 95.8412 31.6119 95.3486 31.7386C95.0789 31.809 94.795 31.877 94.4924 31.9473C94.469 31.952 94.4479 31.9567 94.4244 31.9614C93.7559 32.0998 92.9983 32.1678 92.1046 32.1678C90.2585 32.1678 88.9286 31.7409 87.9692 31.1311C87.6244 31.4172 87.2209 31.626 86.7823 31.7386C86.5125 31.809 86.2287 31.877 85.9261 31.9473C85.9027 31.952 85.8815 31.9567 85.8581 31.9614C85.1896 32.0998 84.4319 32.1678 83.5382 32.1678C79.7125 32.1678 78.1127 30.3406 77.4419 28.8065C76.6303 26.9488 76.8039 24.6852 77.9837 21.6828C78.1855 21.1315 78.4435 20.4654 78.7508 19.703C79.0557 18.943 79.3724 18.1549 79.6937 17.3456C80.0127 16.5411 80.3106 15.7858 80.5851 15.075C80.6015 15.0352 80.6156 14.9976 80.6296 14.9578C80.3341 14.7302 80.0784 14.4464 79.8743 14.118C79.309 13.1985 79.234 12.0468 79.6773 11.0593L80.6038 8.9998C80.9956 8.12721 81.7508 7.48216 82.6539 7.24994C82.9143 7.18426 83.1887 7.11623 83.4796 7.04821C83.8455 6.95673 84.2302 6.88636 84.629 6.83945C85.0301 6.79488 85.4546 6.77142 85.898 6.77142C87.7557 6.77142 89.0904 7.2171 90.0474 7.84808C90.2187 7.76364 90.3899 7.68154 90.5658 7.60413C91.8114 7.05056 93.0921 6.77142 94.3728 6.77142C96.1696 6.77142 97.4714 7.24055 98.412 7.89734C98.588 7.8082 98.7639 7.72141 98.9445 7.63932C100.214 7.06228 101.527 6.77142 102.845 6.77142C106.364 6.77142 107.985 8.73005 108.637 9.89584C109.716 11.8287 109.681 14.2236 108.534 17.219L107.804 19.072C108.693 19.2128 109.493 19.7546 109.971 20.5686L110.76 21.9103C111.271 22.7805 111.348 23.8525 110.971 24.7908C110.539 25.8604 109.943 26.862 109.197 27.7674C108.489 28.6259 107.687 29.3812 106.812 30.0122C105.932 30.6455 104.982 31.1592 103.983 31.5392C102.885 31.9544 101.773 32.1655 100.673 32.1655L100.671 32.1678Z" fill="white"/>
<path d="M112.059 32.1679C110.321 32.1679 108.808 31.7456 107.563 30.9153C106.284 30.0591 105.341 28.8793 104.76 27.4015C104.244 26.0903 104.037 24.5914 104.145 22.9401C104.244 21.4529 104.6 19.8884 105.205 18.2839C106.575 14.7373 108.445 11.946 110.769 9.96389C113.256 7.84341 116.103 6.7691 119.235 6.7691C120.933 6.7691 122.427 7.18429 123.682 8.00526C124.988 8.86143 125.948 10.0483 126.532 11.5331C127.043 12.835 127.259 14.3151 127.172 15.9336C127.093 17.416 126.743 18.9876 126.133 20.6038C125.495 22.3278 124.686 23.9135 123.736 25.2951C122.779 26.6837 121.7 27.8964 120.525 28.898C119.3 29.9442 117.963 30.7581 116.558 31.3117C115.116 31.8793 113.603 32.1679 112.059 32.1679Z" fill="white"/>
<path d="M12.9787 11.6386C13.4713 11.7418 13.9005 11.9389 14.2641 12.2344C14.6277 12.53 14.8904 12.8865 15.0476 13.304C15.2047 13.7215 15.2587 14.1977 15.2094 14.7278C15.1602 15.258 14.9678 15.8186 14.6324 16.4097C14.2782 17.0618 13.863 17.5004 13.3915 17.7256C12.9177 17.9508 12.5049 17.9508 12.1483 17.7256C11.7941 17.5004 11.5924 17.1392 11.5432 16.6395C11.4939 16.1399 11.6065 15.645 11.8833 15.1547C12.1601 14.6856 12.5189 14.3549 12.9623 14.1602C13.4056 13.9655 13.8044 13.9819 14.1609 14.2071C14.1797 13.8599 14.053 13.5433 13.7762 13.2595C13.4994 12.9733 13.0772 12.7809 12.5049 12.6777C11.834 12.5769 11.203 12.7082 10.6119 13.0765C10.0208 13.4424 9.59626 13.9444 9.34058 14.5754C9.04503 15.2697 9.06379 15.9429 9.39922 16.595C9.73465 17.2471 10.2859 17.8288 11.0553 18.3378C12.0991 18.9899 12.8497 19.7757 13.3024 20.6928C13.7551 21.61 13.7551 22.6726 13.3024 23.8759C13.0467 24.5092 12.6761 25.1003 12.1929 25.6516C11.7097 26.2028 11.142 26.6672 10.4923 27.0425C9.84255 27.4202 9.13182 27.6899 8.36244 27.8541C7.59307 28.0183 6.80493 28.0371 5.99802 27.9151C5.38581 27.8119 4.86976 27.5844 4.4452 27.2278C4.02063 26.8713 3.70632 26.4467 3.4999 25.9588C3.29348 25.4686 3.20434 24.9338 3.23484 24.3521C3.26533 23.7703 3.4178 23.2144 3.69224 22.6843C3.98779 22.0932 4.37717 21.6334 4.86038 21.3074C5.34358 20.9814 5.80099 20.9391 6.23493 21.1854C6.58913 21.3895 6.79085 21.746 6.84011 22.2574C6.88937 22.7664 6.77678 23.2566 6.49999 23.7258C6.24432 24.1738 5.91358 24.4951 5.51013 24.6898C5.10667 24.8845 4.72668 24.9103 4.37248 24.7672C4.31384 25.1543 4.48976 25.5483 4.90495 25.9448C5.31778 26.3435 5.86197 26.6133 6.53049 26.7564C6.86591 26.8385 7.2248 26.8385 7.60949 26.7564C7.99417 26.6743 8.36244 26.5312 8.71898 26.3271C9.07318 26.123 9.39453 25.8627 9.6807 25.546C9.96687 25.2293 10.1874 24.8681 10.3469 24.46C10.6424 23.6437 10.5932 22.9517 10.1991 22.3794C9.80502 21.8094 9.13416 21.1854 8.18886 20.5122C7.71504 20.1862 7.32097 19.7874 7.00665 19.3183C6.68999 18.8492 6.4695 18.3401 6.34049 17.7889C6.21148 17.2377 6.18333 16.6771 6.25135 16.1071C6.31938 15.5371 6.51172 14.9741 6.82838 14.4252C7.12394 13.8951 7.50393 13.426 7.96603 13.0179C8.42812 12.6097 8.93713 12.2837 9.48836 12.0397C10.0396 11.7958 10.6166 11.6363 11.2171 11.5659C11.8176 11.4955 12.404 11.519 12.9763 11.6433L12.9787 11.6386Z" fill="#E81E63"/>
<path d="M22.1735 15.6145C22.8842 15.6145 23.48 15.7716 23.9632 16.0883C24.4464 16.405 24.7959 16.8389 25.0141 17.3878C25.2299 17.939 25.319 18.5817 25.2791 19.3159C25.2392 20.0501 25.061 20.8359 24.7467 21.671C24.3925 22.6303 23.9585 23.4818 23.4448 24.2254C22.9311 24.9713 22.3658 25.607 21.7442 26.1371C21.1226 26.6672 20.4635 27.0707 19.7621 27.3451C19.0631 27.6195 18.3383 27.7579 17.5877 27.7579C16.8371 27.7579 16.2577 27.6008 15.7839 27.2841C15.3101 26.9674 14.9653 26.5335 14.7495 25.9846C14.5337 25.4334 14.4492 24.786 14.4985 24.0424C14.5477 23.2988 14.7307 22.5083 15.045 21.671C15.7933 19.7334 16.7855 18.2393 18.017 17.1884C19.2484 16.1375 20.6347 15.6121 22.1711 15.6121L22.1735 15.6145ZM21.4346 21.7179C21.6715 21.0869 21.8638 20.4887 22.0116 19.9187C22.1594 19.3488 22.2532 18.8468 22.2931 18.4105C22.333 17.9742 22.3119 17.6223 22.2345 17.3573C22.1547 17.0922 21.9976 16.9609 21.7606 16.9609C21.5237 16.9609 21.2587 17.0946 20.9631 17.3573C20.6676 17.6223 20.3673 17.9719 20.0624 18.4105C19.7574 18.8468 19.4572 19.3511 19.1617 19.9187C18.8661 20.4887 18.5987 21.0892 18.3641 21.7179C18.1272 22.3277 17.9302 22.9118 17.773 23.4724C17.6159 24.0307 17.522 24.5256 17.4915 24.9525C17.4611 25.3794 17.4962 25.7196 17.5948 25.9752C17.6933 26.2286 17.8598 26.3552 18.0967 26.3552C18.3336 26.3552 18.594 26.2286 18.8802 25.9752C19.1663 25.7219 19.4572 25.3794 19.7528 24.9525C20.0483 24.5256 20.3439 24.033 20.6394 23.4724C20.935 22.9141 21.2024 22.3277 21.4369 21.7179H21.4346Z" fill="#E81E63"/>
<path d="M37.6107 15.8607C37.4535 16.2478 37.2706 16.6981 37.0642 17.2072C36.8577 17.7162 36.6396 18.2627 36.4144 18.8444C36.1869 19.4261 35.957 20.0266 35.7201 20.6506C35.4832 21.2722 35.2463 21.8797 35.0094 22.4708C34.4769 23.8571 33.9046 25.3067 33.2947 26.815C32.5464 28.7923 31.5495 30.3029 30.3087 31.3444C29.0678 32.3835 27.6862 32.9043 26.1686 32.9043C25.5376 32.9043 25.0309 32.7518 24.6462 32.4445C24.2616 32.1396 24.0012 31.7502 23.8628 31.2811C23.7244 30.812 23.7009 30.2912 23.7901 29.7212C23.8792 29.1489 24.0716 28.5883 24.3671 28.0394C24.6439 27.5703 24.9582 27.1621 25.3124 26.815C25.1341 26.4678 25.052 26.055 25.0614 25.5765C25.0708 25.0979 25.2045 24.5303 25.4602 23.8782C25.5587 23.6342 25.7112 23.2613 25.9176 22.7617C26.124 22.262 26.3422 21.7366 26.5673 21.1854C26.7925 20.6342 27.0013 20.1134 27.1889 19.6255C27.3766 19.1353 27.5079 18.7787 27.5877 18.5559C27.766 18.1478 27.7941 17.817 27.6768 17.5613C27.5596 17.3057 27.2734 17.179 26.8183 17.179H26.5228L27.1444 15.8631C27.3015 15.8232 27.4704 15.781 27.6463 15.7411C27.8035 15.7012 27.9724 15.6707 28.1483 15.6496C28.3266 15.6285 28.5236 15.6191 28.7394 15.6191C29.863 15.6191 30.5667 15.9405 30.8529 16.5832C31.139 17.2259 31.0053 18.2205 30.4541 19.5669C30.3368 19.8718 30.1726 20.2917 29.9662 20.8218C29.7598 21.3519 29.5463 21.882 29.3305 22.4122C29.0936 23.0244 28.8473 23.6577 28.5916 24.3098C28.4744 24.657 28.4744 24.9173 28.5916 25.0909C28.7089 25.2645 28.8919 25.356 29.1382 25.3653C29.3845 25.3747 29.6753 25.2997 30.0108 25.1355C30.3462 24.9713 30.6605 24.7179 30.9561 24.3708L34.3268 15.8654H37.6083L37.6107 15.8607ZM27.2898 27.7626C26.8559 27.7626 26.4806 27.7016 26.1662 27.5796C25.9106 27.8048 25.6643 28.1004 25.4274 28.4663C25.1904 28.8322 25.0122 29.3131 24.8949 29.9042C24.7776 30.4132 24.8409 30.8166 25.0872 31.1122C25.3335 31.4078 25.6549 31.5555 26.049 31.5555C26.443 31.5555 26.8019 31.4124 27.1866 31.1263C27.5713 30.8401 27.9349 30.4742 28.2797 30.0238C28.6245 29.5758 28.9458 29.0691 29.2414 28.5085C29.5369 27.9479 29.7832 27.392 29.9803 26.8408C29.5463 27.1269 29.103 27.3498 28.6503 27.514C28.1976 27.6782 27.7425 27.7579 27.2898 27.7579V27.7626Z" fill="#E81E63"/>
<path d="M58.5832 11.9247C57.6871 13.0741 56.7606 14.2798 55.8059 15.5417C54.8489 16.8037 53.9388 18.0023 53.0732 19.1353C52.2077 20.2682 51.4219 21.3003 50.7112 22.2245C50.0004 23.151 49.4609 23.8524 49.0903 24.3333C48.4429 25.1965 47.8096 25.8016 47.1927 26.1535C46.5758 26.5053 46.0269 26.6156 45.5484 26.4889C45.0699 26.3622 44.6922 25.994 44.4131 25.3865C44.1363 24.7789 44.012 23.9486 44.0425 22.8954C44.0425 22.5764 44.0565 22.0181 44.0894 21.2182C44.1199 20.4207 44.1504 19.5106 44.1832 18.4879C44.2137 17.4652 44.2442 16.3956 44.2747 15.279C44.3052 14.1625 44.3357 13.1069 44.3662 12.1171L39.4121 24.6687C39.0415 25.6257 38.9876 26.2895 39.2503 26.6578C39.513 27.0261 40.1369 27.0824 41.1245 26.8243L40.2448 28.6938C39.9962 28.79 39.7358 28.8698 39.4567 28.9331C39.2104 28.9964 38.9313 29.0527 38.624 29.0996C38.3144 29.1465 38.0071 29.1395 37.6975 29.0762C37.1111 28.98 36.7029 28.668 36.4707 28.1426C36.2385 27.6148 36.2619 26.9862 36.5411 26.2497L43.8102 7.94884C44.026 7.407 44.1339 6.9754 44.1339 6.65639C43.7938 6.20837 43.2543 5.98553 42.5131 5.98553H42.051L42.2363 3.92604C42.4521 3.86271 42.6984 3.79938 42.9775 3.7337C43.2238 3.67037 43.4795 3.62111 43.7422 3.59061C44.0049 3.56012 44.3052 3.5437 44.6453 3.5437C46.4045 3.5437 47.6853 4.04802 48.4875 5.05196C49.2897 6.05824 49.6603 7.63218 49.5993 9.77142L49.2287 20.7421L60.1102 6.46404C59.8616 6.14503 59.4464 5.98553 58.86 5.98553H58.3979L59.3244 3.92604C59.5707 3.86271 59.8334 3.79938 60.1126 3.7337C60.3588 3.67037 60.6286 3.62111 60.9218 3.59061C61.215 3.56012 61.5317 3.5437 61.8718 3.5437C63.631 3.5437 64.7335 4.04802 65.1815 5.05196C65.6295 6.05824 65.4208 7.63218 64.5552 9.77142L59.1391 23.6178C58.8905 24.2558 58.9233 24.7132 59.2306 24.983C59.5379 25.2551 59.9624 25.3348 60.5043 25.2223C61.0438 25.1097 61.6232 24.8071 62.2401 24.3121C62.857 23.8172 63.366 23.1393 63.7671 22.2761L64.5552 23.6178C64.2456 24.3849 63.821 25.0956 63.2815 25.75C62.742 26.4045 62.1392 26.9885 61.4754 27.4999C60.8116 28.0112 60.1008 28.41 59.3455 28.6985C58.5879 28.9847 57.842 29.1301 57.1007 29.1301C56.3595 29.1301 55.7191 28.9941 55.1796 28.722C54.6401 28.4522 54.2296 28.0605 53.9529 27.5491C53.6761 27.0378 53.5518 26.3998 53.5822 25.6327C53.6127 24.8657 53.8285 23.9884 54.2296 22.9986L58.5808 11.9318L58.5832 11.9247Z" fill="#E81E63"/>
<path d="M75.669 9.9585C76.7808 9.9585 77.7144 10.2071 78.4697 10.7021C79.225 11.197 79.7739 11.8749 80.114 12.7381C80.4541 13.6013 80.5925 14.6076 80.5315 15.757C80.4682 16.9063 80.1914 18.1378 79.6988 19.4467C79.1429 20.9479 78.465 22.2826 77.6628 23.446C76.8606 24.6118 75.9716 25.6111 75.0005 26.4391C74.027 27.2694 72.9926 27.9004 71.8995 28.332C70.8041 28.7636 69.6688 28.9794 68.496 28.9794C67.3232 28.9794 66.413 28.7308 65.6718 28.2358C64.9306 27.7409 64.3911 27.063 64.051 26.1998C63.7108 25.3366 63.5818 24.3233 63.6569 23.1575C63.7343 21.9917 64.0205 20.7556 64.5131 19.4443C65.6859 16.4114 67.2364 14.0704 69.1668 12.4261C71.095 10.7818 73.2647 9.9585 75.6713 9.9585H75.669ZM74.5126 19.517C74.8832 18.5295 75.1834 17.5913 75.4157 16.6999C75.6479 15.8086 75.7933 15.0204 75.8567 14.3355C75.9176 13.6506 75.8871 13.1017 75.7652 12.6888C75.6408 12.276 75.3946 12.0672 75.0239 12.0672C74.6533 12.0672 74.2358 12.276 73.7737 12.6888C73.3116 13.1017 72.8401 13.6529 72.3616 14.3355C71.8831 15.0204 71.4116 15.8086 70.9495 16.6999C70.4874 17.5913 70.0699 18.5319 69.6993 19.517C69.3287 20.4717 69.0191 21.3865 68.7728 22.2638C68.5241 23.1387 68.3787 23.9105 68.3318 24.579C68.2849 25.2475 68.3388 25.7799 68.4936 26.1787C68.6484 26.5775 68.9112 26.7745 69.2818 26.7745C69.6524 26.7745 70.0605 26.5751 70.5086 26.1787C70.9566 25.7799 71.4116 25.2475 71.8737 24.579C72.3358 23.9105 72.8003 23.1387 73.2624 22.2638C73.7245 21.3889 74.142 20.4741 74.5126 19.517Z" fill="#E81E63"/>
<path d="M102.707 23.5654C102.459 24.173 102.491 24.6046 102.799 24.8579C103.106 25.1136 103.524 25.1933 104.049 25.0971C104.574 25.001 105.151 24.7148 105.785 24.2339C106.418 23.7554 106.934 23.0846 107.335 22.2214L108.123 23.5631C107.814 24.3301 107.389 25.0409 106.85 25.6953C106.31 26.3497 105.707 26.9174 105.044 27.3959C104.38 27.8744 103.669 28.2591 102.914 28.5453C102.156 28.8314 101.41 28.9769 100.669 28.9769C99.1559 28.9769 98.1074 28.4655 97.521 27.4428C96.9346 26.4201 97.0425 24.9048 97.8447 22.8922L100.807 15.419C100.993 14.9405 101.016 14.5722 100.878 14.3165C100.739 14.0608 100.5 13.9084 100.16 13.8615C99.8197 13.8145 99.4186 13.8685 98.9565 14.028C98.4944 14.1875 98.0464 14.4596 97.6148 14.8419C97.5515 15.0343 97.4835 15.2243 97.4061 15.4166C97.3287 15.609 97.2583 15.8154 97.1973 16.0406L93.8641 24.4239C93.6155 25.0948 93.5873 25.6226 93.7703 26.0049C93.9556 26.3873 94.3872 26.5796 95.0674 26.5796H95.5295L94.603 28.6391C94.3567 28.7024 94.094 28.7658 93.8149 28.8314C93.3528 28.9276 92.7804 28.9745 92.1025 28.9745C90.3433 28.9745 89.2385 28.4796 88.7928 27.4897C88.3448 26.4999 88.5536 24.9494 89.4168 22.843C89.6021 22.395 89.8484 21.7569 90.158 20.9266C90.4653 20.0962 90.7913 19.2658 91.1314 18.4355C91.5021 17.4785 91.9032 16.4722 92.3348 15.4166C92.5201 14.9381 92.5271 14.5628 92.3582 14.2907C92.1893 14.021 91.9337 13.8591 91.5935 13.8122C91.2534 13.7653 90.8523 13.8357 90.3902 14.028C89.9281 14.2203 89.4637 14.5229 89.0016 14.9381C88.9382 15.1305 88.8702 15.3205 88.7928 15.5128C88.7154 15.7051 88.645 15.9116 88.5841 16.1367C88.3987 16.6481 88.136 17.319 87.7959 18.1493C87.4558 18.9797 87.1251 19.8194 86.8014 20.6639C86.4777 21.5106 86.1774 22.2847 85.8983 22.9884C85.6215 23.6921 85.4362 24.1706 85.3424 24.4263C85.0656 25.0971 85.0187 25.6249 85.204 26.0073C85.3893 26.3896 85.8373 26.5819 86.5457 26.5819H87.0078L86.0343 28.6414C85.7857 28.7048 85.5253 28.7681 85.2462 28.8338C84.7841 28.93 84.2118 28.9769 83.5339 28.9769C81.7746 28.9769 80.6792 28.4819 80.2476 27.4921C79.816 26.5022 80.0154 24.9517 80.8504 22.8453C81.0357 22.334 81.282 21.6959 81.5917 20.9289C81.8989 20.1619 82.2179 19.3714 82.5416 18.5575C82.8653 17.7435 83.1656 16.9765 83.4447 16.2587C83.7215 15.5409 83.9537 14.9733 84.139 14.5581C84.3853 13.9201 84.4158 13.4017 84.2329 13.0006C84.0476 12.6018 83.616 12.4025 82.9357 12.4025H82.4736L83.4002 10.343C83.6465 10.2796 83.9092 10.2163 84.1883 10.1506C84.4346 10.0873 84.6973 10.038 84.9764 10.0075C85.2532 9.97705 85.5628 9.96063 85.903 9.96063C87.939 9.96063 89.0978 10.6643 89.3745 12.0694C90.1158 11.4314 90.918 10.92 91.7835 10.5377C92.6467 10.1553 93.5123 9.96298 94.3755 9.96298C96.259 9.96298 97.385 10.6972 97.7556 12.1679C98.4968 11.497 99.306 10.9622 100.186 10.5635C101.065 10.1647 101.952 9.96532 102.848 9.96532C104.361 9.96532 105.402 10.4767 105.972 11.4994C106.542 12.5221 106.442 14.0397 105.672 16.05L102.71 23.5725L102.707 23.5654Z" fill="#E81E63"/>
<path d="M119.237 9.9585C120.349 9.9585 121.282 10.2071 122.038 10.7021C122.793 11.197 123.342 11.8749 123.682 12.7381C124.022 13.6013 124.16 14.6076 124.099 15.757C124.036 16.9063 123.759 18.1378 123.267 19.4467C122.711 20.9479 122.033 22.2826 121.231 23.446C120.428 24.6118 119.539 25.6111 118.568 26.4391C117.595 27.2694 116.56 27.9004 115.467 28.332C114.372 28.7636 113.237 28.9794 112.064 28.9794C110.891 28.9794 109.981 28.7308 109.24 28.2358C108.498 27.7409 107.959 27.063 107.619 26.1998C107.279 25.3366 107.15 24.3233 107.225 23.1575C107.302 21.9917 107.588 20.7556 108.081 19.4443C109.254 16.4114 110.804 14.0704 112.735 12.4261C114.663 10.7818 116.833 9.9585 119.239 9.9585H119.237ZM118.08 19.517C118.451 18.5295 118.751 17.5913 118.984 16.6999C119.216 15.8086 119.361 15.0204 119.425 14.3355C119.486 13.6506 119.455 13.1017 119.333 12.6888C119.209 12.276 118.962 12.0672 118.592 12.0672C118.221 12.0672 117.804 12.276 117.342 12.6888C116.879 13.1017 116.408 13.6529 115.929 14.3355C115.451 15.0204 114.98 15.8086 114.517 16.6999C114.055 17.5913 113.638 18.5319 113.267 19.517C112.897 20.4717 112.587 21.3865 112.341 22.2638C112.092 23.1387 111.947 23.9105 111.9 24.579C111.853 25.2475 111.907 25.7799 112.062 26.1787C112.216 26.5775 112.479 26.7745 112.85 26.7745C113.22 26.7745 113.628 26.5751 114.076 26.1787C114.524 25.7799 114.98 25.2475 115.442 24.579C115.904 23.9105 116.368 23.1387 116.83 22.2638C117.292 21.3889 117.71 20.4741 118.08 19.517Z" fill="#E81E63"/>
</svg>
