<svg width="12" height="13" viewBox="0 0 12 13" fill="none" xmlns="http://www.w3.org/2000/svg">
<path d="M11.5363 0.874637C11.5292 0.75212 11.4773 0.636496 11.3905 0.549716C11.3037 0.462936 11.1881 0.411042 11.0656 0.403887C6.29986 0.124067 2.48253 1.55885 0.854938 4.25064C0.290767 5.17143 0.0127573 6.23902 0.0561655 7.31803C0.0844996 8.00802 0.224887 8.68882 0.471828 9.33374C0.486338 9.37343 0.510657 9.4088 0.54252 9.43656C0.574383 9.46432 0.612753 9.48356 0.654057 9.4925C0.69536 9.50143 0.738254 9.49977 0.778741 9.48766C0.819229 9.47555 0.855994 9.4534 0.885612 9.42325L6.20659 4.0209C6.25312 3.97437 6.30835 3.93746 6.36915 3.91228C6.42994 3.8871 6.4951 3.87414 6.5609 3.87414C6.6267 3.87414 6.69186 3.8871 6.75266 3.91228C6.81345 3.93746 6.86869 3.97437 6.91522 4.0209C6.96175 4.06743 6.99865 4.12267 7.02384 4.18346C7.04902 4.24425 7.06198 4.30941 7.06198 4.37521C7.06198 4.44102 7.04902 4.50617 7.02384 4.56697C6.99865 4.62776 6.96175 4.683 6.91522 4.72953L1.10033 10.6321L0.212039 11.5203C0.119658 11.6103 0.0645051 11.7317 0.057546 11.8604C0.0505869 11.9892 0.092331 12.1158 0.174479 12.2152C0.219467 12.2673 0.274713 12.3096 0.336766 12.3394C0.39882 12.3691 0.466348 12.3858 0.535136 12.3884C0.603924 12.3909 0.672494 12.3792 0.736566 12.354C0.800637 12.3289 0.858833 12.2908 0.907521 12.2421L1.95857 11.1911C2.84373 11.6193 3.73703 11.8527 4.62281 11.884C4.69251 11.8866 4.76199 11.8878 4.83127 11.8878C5.84 11.8904 6.8296 11.6125 7.68957 11.0853C10.3814 9.45768 11.8168 5.64098 11.5363 0.874637Z" fill="#603BB0"/>
</svg>
