<svg width="36" height="26" viewBox="0 0 36 26" fill="none" xmlns="http://www.w3.org/2000/svg">
<path opacity="0.5" d="M31.5649 6.60846C32.6663 7.57215 34.869 10.0961 34.869 14.0427C34.869 17.6772 32.9416 19.9625 31.978 20.6508" stroke="white" stroke-width="1.65215" stroke-linecap="round"/>
<path opacity="0.5" d="M4.30371 6.60846C3.20235 7.57215 0.999621 10.0961 0.999621 14.0427C0.999621 17.6772 2.92701 19.9625 3.8907 20.6508" stroke="white" stroke-width="1.65215" stroke-linecap="round"/>
<path opacity="0.5" d="M28.2607 8.26074C29.0868 8.98351 30.7388 10.7388 30.7388 13.8364C30.7388 16.5623 29.2933 18.2763 28.5705 18.7925" stroke="white" stroke-width="1.65215" stroke-linecap="round"/>
<path opacity="0.5" d="M7.60889 8.26074C6.78286 8.98351 5.13082 10.7388 5.13082 13.8364C5.13082 16.5623 6.57636 18.2763 7.29913 18.7925" stroke="white" stroke-width="1.65215" stroke-linecap="round"/>
<path fill-rule="evenodd" clip-rule="evenodd" d="M23.8065 5.93503C24.97 6.95634 25.1057 8.94184 25.1057 8.94184H25.1051V12.0645C24.7757 12.7201 25.1051 13.6838 25.1051 13.6838V16.6714C25.0272 19.1961 23.3404 20.2564 23.3404 20.2564C23.3404 20.2564 22.7435 20.6995 22.1818 21.1343C21.793 21.4956 21.1868 22.7959 21.1868 24.2367C21.1868 24.7918 20.1924 25.4804 18.0395 25.4804C16.1429 25.4804 14.8921 24.7913 14.8921 24.2367C14.8921 24.2367 14.9926 22.5005 14.2568 21.3996C13.9328 21.1289 13.543 20.8691 13.1992 20.6803C12.4624 20.2756 11.7645 19.3696 11.7645 19.3696C10.7366 18.0973 10.9304 16.6132 10.9304 16.6132C10.9304 16.6132 10.8914 11.0619 10.9304 8.9034C10.9694 6.74439 12.1692 5.93503 12.1692 5.93503L13.3739 4.9928C13.3739 4.9928 13.6473 4.79348 13.9114 4.61393C14.3007 4.24604 14.8921 2.94799 14.8921 1.52531C14.8921 0.970727 15.5246 -6.10352e-05 17.9994 -6.10352e-05C20.4741 -6.10352e-05 21.1868 0.970727 21.1868 1.52531C21.1868 1.52531 21.0809 3.33071 21.8858 4.45414C21.9011 4.46375 21.9167 4.47301 21.9327 4.48248C21.9368 4.48492 21.941 4.48736 21.9451 4.48983C21.9451 4.48983 22.4684 4.85992 22.6238 4.9928L23.8065 5.93503ZM14.2468 6.93708C12.8314 7.6503 13.0444 9.05697 13.0444 9.05697H13.046L13.0345 16.7662C13.0812 18.7708 15.0819 18.8285 15.0819 18.8285C15.0819 18.8285 16.381 18.8093 16.7104 18.8093C17.0399 18.8093 17.0788 18.8669 17.0788 18.8669C17.4083 19.1563 17.7185 19.1755 17.7185 19.1755C18.2417 19.2529 18.6299 19.0217 18.7073 18.9059C18.7847 18.79 18.9786 18.7901 18.9786 18.7901H20.9755C22.9921 18.6165 22.8368 16.7278 22.8368 16.7278C22.8368 16.7278 22.8757 10.5411 22.8368 8.67154C22.7978 6.80201 20.8783 6.80201 20.8783 6.80201C20.8783 6.80201 16.4183 6.80201 16.0889 6.82123C15.7595 6.84099 15.6431 6.74436 15.6431 6.74436C15.5267 6.47422 15.2746 6.43579 15.2746 6.43579C14.7316 6.35892 14.557 6.76358 14.557 6.76358C14.4214 6.93708 14.2468 6.93708 14.2468 6.93708Z" fill="white"/>
<rect x="12.5649" y="5.78229" width="10.7383" height="14.0424" rx="3.3043" fill="#603BB0" fill-opacity="0.37"/>
</svg>
