<svg width="11" height="16" viewBox="0 0 11 16" fill="none" xmlns="http://www.w3.org/2000/svg">
<path fill-rule="evenodd" clip-rule="evenodd" d="M5.52915 15.7324C5.52915 15.7324 10.7228 8.79594 10.7228 5.92209C10.7228 4.54464 10.1757 3.2236 9.20165 2.24959C8.22764 1.27559 6.9066 0.728394 5.52915 0.728394C4.15169 0.728394 2.83066 1.27559 1.85665 2.24959C0.882641 3.2236 0.335449 4.54464 0.335449 5.92209C0.335449 8.79594 5.52915 15.7324 5.52915 15.7324ZM7.26041 5.92188C7.26041 6.87802 6.48531 7.65312 5.52918 7.65312C4.57305 7.65312 3.79795 6.87802 3.79795 5.92188C3.79795 4.96575 4.57305 4.19065 5.52918 4.19065C6.48531 4.19065 7.26041 4.96575 7.26041 5.92188Z" fill="#603BB0"/>
</svg>
