<svg width="52" height="53" viewBox="0 0 52 53" fill="none" xmlns="http://www.w3.org/2000/svg">
<rect x="0.23291" y="0.710205" width="51.3768" height="51.3768" rx="15.6985" fill="#613DB2"/>
<path d="M33.9309 33.6573L33.1362 31.4105C33.4737 30.9976 33.7808 30.5544 34.0481 30.0914C34.3154 29.6284 34.5471 29.1384 34.7345 28.6421L37.0776 28.2069C37.2547 28.1739 37.4176 28.0877 37.5445 27.9599C37.6715 27.832 37.7565 27.6686 37.7883 27.4913L37.8027 27.4164C38.068 25.9598 38.0672 24.467 37.8003 23.0106L37.7862 22.9353C37.7538 22.7585 37.6686 22.5956 37.5418 22.4681C37.4149 22.3406 37.2525 22.2546 37.0758 22.2213L34.7276 21.7899C34.3486 20.7843 33.816 19.8563 33.1346 19.0311L33.9339 16.7769C33.994 16.6071 34.0011 16.4229 33.9541 16.249C33.9072 16.075 33.8084 15.9195 33.6709 15.803L33.613 15.7537C32.4958 14.8079 31.1812 14.0489 29.8035 13.5542L29.7318 13.5288C29.5622 13.468 29.3781 13.4602 29.204 13.5065C29.0299 13.5528 28.874 13.651 28.757 13.788L27.1965 15.6155C26.1478 15.4453 25.0785 15.4469 24.0303 15.6203L22.471 13.7892C22.3541 13.6525 22.1984 13.5545 22.0245 13.5084C21.8506 13.4623 21.6668 13.4701 21.4974 13.531L21.4252 13.5564C20.0313 14.0554 18.7385 14.8009 17.6084 15.7573L17.5508 15.8072C17.2697 16.0447 17.1646 16.4318 17.2864 16.7804L18.092 19.0527C17.7572 19.4608 17.4553 19.9006 17.1921 20.3564C16.9262 20.817 16.6963 21.2984 16.513 21.7875L14.1472 22.2288C13.9701 22.2618 13.8072 22.348 13.6803 22.4758C13.5534 22.6036 13.4684 22.7671 13.4366 22.9444L13.4221 23.0192C13.1597 24.4766 13.1562 25.9619 13.4245 27.4251L13.4386 27.5004C13.471 27.6772 13.5562 27.8401 13.6831 27.9676C13.8099 28.0951 13.9724 28.1811 14.1491 28.2144L16.5144 28.6493C16.89 29.6498 17.4177 30.575 18.0934 31.3937L17.291 33.6588C17.2308 33.8286 17.2237 34.0127 17.2707 34.1867C17.3177 34.3606 17.4165 34.5162 17.5539 34.6326L17.6118 34.682C18.7406 35.6361 20.0307 36.3809 21.4213 36.8815L21.493 36.9069C21.6626 36.9677 21.8467 36.9755 22.0208 36.9292C22.1949 36.8829 22.3509 36.7847 22.4679 36.6477L24.0204 34.8284C25.0772 35.0036 26.1457 35.0032 27.2061 34.8285L28.7538 36.6465C28.8707 36.7832 29.0264 36.8812 29.2003 36.9273C29.3742 36.9734 29.5581 36.9655 29.7274 36.9047L29.7997 36.8793C31.2037 36.3753 32.4855 35.6344 33.6164 34.6784L33.674 34.6285C33.9489 34.3906 34.0526 34.0059 33.9309 33.6573ZM23.317 29.1991C20.9877 27.8542 20.1897 24.8762 21.5346 22.5469C22.8795 20.2175 25.8574 19.4195 28.1868 20.7644C30.5162 22.1093 31.3141 25.0872 29.9693 27.4166C28.6244 29.746 25.6464 30.5439 23.317 29.1991Z" fill="url(#paint0_linear_101_3)"/>
<ellipse cx="25.5723" cy="39.344" rx="13.9915" ry="1.74894" fill="#462097"/>
<path fill-rule="evenodd" clip-rule="evenodd" d="M15.095 22.0521L14.1466 22.229C13.9695 22.262 13.8066 22.3482 13.6797 22.476C13.5527 22.6038 13.4677 22.7673 13.4359 22.9446L13.4215 23.0194C13.159 24.4768 13.1555 25.9621 13.4239 27.4252L13.438 27.5005C13.4704 27.6774 13.5556 27.8403 13.6824 27.9678C13.8092 28.0953 13.9717 28.1813 14.1484 28.2146L16.5138 28.6495C16.8893 29.6499 17.4171 30.5752 18.0927 31.3938L17.2903 33.659C17.2302 33.8288 17.2231 34.0129 17.2701 34.1869C17.317 34.3608 17.4158 34.5164 17.5533 34.6328L17.6111 34.6822C18.74 35.6362 20.03 36.3811 21.4207 36.8816L21.4924 36.907C21.662 36.9679 21.8461 36.9757 22.0202 36.9294C22.1943 36.8831 22.3502 36.7849 22.4672 36.6479L24.0198 34.8286C25.0765 35.0037 26.1451 35.0033 27.2055 34.8287L28.7532 36.6466C28.8701 36.7834 29.0258 36.8814 29.1997 36.9275C29.3736 36.9736 29.5574 36.9657 29.7268 36.9049L29.799 36.8794C31.2031 36.3755 32.4849 35.6346 33.6158 34.6786L33.6734 34.6287C33.9483 34.3908 34.052 34.0061 33.9302 33.6575L33.2238 31.6602C31.4733 32.5794 29.4614 33.1024 27.3211 33.1024C20.7743 33.1024 15.4277 28.2083 15.095 22.0521ZM37.381 28.0895C37.4399 28.0531 37.4946 28.0097 37.5439 27.9601C37.6698 27.8333 37.7545 27.6714 37.7869 27.4957C37.6578 27.6977 37.5224 27.8957 37.381 28.0895Z" fill="#E3BA3C"/>
<defs>
<linearGradient id="paint0_linear_101_3" x1="31.8068" y1="14.4853" x2="19.4145" y2="35.9495" gradientUnits="userSpaceOnUse">
<stop stop-color="#FFF1C7"/>
<stop offset="0.572917" stop-color="#FFDF7D"/>
</linearGradient>
</defs>
</svg>
